<svg width="38" height="38" viewBox="0 0 38 38" xmlns="http://www.w3.org/2000/svg" xmlns:xlink="http://www.w3.org/1999/xlink"><title>Page 1 Copy 2</title><defs><ellipse id="b" cx="18.857" cy="18" rx="18.103" ry="18"/><path d="M.148 25.226s.69-.346 1.132-.53c1.01-.419 2.15-.86 3.422-1.325 1.272-.464 2.204-.851 2.796-1.16a4.125 4.125 0 0 0 1.74-1.708 4.778 4.778 0 0 0 .619-2.336c0-.55-.32-1.198-.961-1.947-.65-.769-1.177-1.814-1.58-3.137s-.604-2.848-.604-4.575c0-1.298.18-2.454.538-3.467.36-1.014.85-1.825 1.471-2.434a6.355 6.355 0 0 1 2.119-1.385A6.815 6.815 0 0 1 13.38.75c.903 0 1.746.157 2.527.472a6.475 6.475 0 0 1 2.111 1.385c.627.609 1.12 1.42 1.478 2.434.36 1.013.54 2.169.54 3.467 0 1.727-.2 3.252-.598 4.575-.398 1.323-.922 2.368-1.572 3.137-.65.759-.976 1.408-.976 1.947 0 .799.209 1.575.626 2.329.418.754 1 1.325 1.747 1.714.593.31 1.525.697 2.796 1.161a78.4 78.4 0 0 1 3.408 1.325c.446.188 1.142.541 1.142.541" id="a"/><mask id="d" x="-1" y="-1" width="28.461" height="26.487"><path fill="#fff" d="M-.852-.25h28.461v26.487H-.852z"/><use xlink:href="#a"/></mask></defs><g transform="translate(0 1)" fill="none" fill-rule="evenodd"><mask id="c" fill="#fff"><use xlink:href="#b"/></mask><use stroke="#FFF" xlink:href="#b"/><use mask="url(#d)" xlink:href="#a" transform="translate(5.404 7.5)" stroke="#FFF" stroke-width="2"/></g></svg>