<svg width="43" height="28" viewBox="0 0 232 171" xmlns="http://www.w3.org/2000/svg"><title>Untitled 11</title><g fill="#000" fill-rule="evenodd"><path d="M-1.7 172.033h19.5V-.705H-1.7v172.738zM105.4 172.033h19.9V-.705h-20.1c.3 57.58.2 115.159.2 172.738zM187.8 172.033h10.6V-.705h-10.6v172.738zM228-.705v172.738h5.4V-.705H228zM76.7 172.033h10.5V-.705H76.7v172.738zM36.7 172.033H47V-.705H36.7v172.738zM144.3 172.033h10.2V-.705h-10.2v172.738zM24.4 172.033h6.3V-.705h-6.4c.2 57.58.2 115.159.1 172.738zM132 172.033h6V-.705h-6.1c.1 57.58.1 115.159.1 172.738zM90.5 172.033h5.8c.1-57.58.1-115.158.1-172.738h-5.9v172.738zM209.4 172.033h6.3V-.705h-6.4c.2 57.58.1 115.159.1 172.738zM58.7 172.033h5.4V-.705h-5.4v172.738zM166.1 172.033h5.5V-.705h-5.5v172.738zM72-.705h-4.8c-.1 57.58-.1 115.159 0 172.738H72c.1-28.313.1-56.699.1-85.012 0-29.266.1-58.46-.1-87.726zM218.5-.705c-.1 28.753-.1 57.58-.1 86.333 0 28.826-.1 57.579.1 86.332h4.6c.1-57.58.1-115.159 0-172.738h-4.6v.073zM179.5-.705h-4.7c-.1 57.58-.1 115.159 0 172.738h4.7c.1-28.02.1-55.965.1-83.985-.1-29.56 0-59.193-.1-88.753z"/></g></svg>