<svg width="36" height="36" viewBox="0 0 28 28" xmlns="http://www.w3.org/2000/svg"><title>Untitled 3</title><path d="M9.324 20.15c-.165 0-.275.054-.33.164a.499.499 0 0 0-.165.384c0 .165.054.275.164.384.11.11.22.165.33.165.11 0 .274-.055.33-.165.11-.11.164-.22.164-.384a.497.497 0 0 0-.165-.384c-.055-.11-.165-.165-.33-.165zm9.113.987c.165 0 .275-.055.33-.164.11-.11.164-.22.164-.385a.5.5 0 0 0-.163-.384c-.11-.11-.22-.165-.33-.165a.498.498 0 0 0-.384.164.499.499 0 0 0-.165.384.5.5 0 0 0 .165.385c.11.11.22.164.384.164zM14.1 0C6.36 0 .1 6.26.1 14s6.26 14 14 14 14-6.26 14-14-6.26-14-14-14zm7.85 11.035h-.987l-.988 6.04h-7.248l-2.14 2.745.164.33h6.26c.055-.22.22-.385.33-.55.274-.275.658-.44 1.097-.44.44 0 .824.165 1.043.44.275.275.44.66.44 1.098 0 .44-.165.824-.44 1.098-.274.275-.658.44-1.043.44a1.53 1.53 0 0 1-1.098-.44 1.141 1.141 0 0 1-.33-.55h-6.26c-.054.22-.22.385-.328.55-.275.275-.66.44-1.044.44-.44 0-.823-.165-1.043-.44a1.504 1.504 0 0 1-.44-1.043c0-.44.166-.824.44-1.098.275-.275.66-.44 1.043-.44.165 0 .33.056.495.11l1.647-2.086H9.927l-.988-7.083-2.032-2.032a.984.984 0 0 1-.988-.988c0-.55.44-.988.988-.988.55 0 .988.438.988.987l2.03 2.032 12.135.987v.878h-.11z" fill="#ec7e00"/></svg>