<svg width="34" height="30" viewBox="0 0 34 30" xmlns="http://www.w3.org/2000/svg"><title>Shape</title><path d="M1 1.372c0 .206.167.372.372.372h4.163l4 18.874a.374.374 0 0 0 .396.477h18.606a.372.372 0 1 0 0-.745H10.233l-.79-3.72h20.583a.372.372 0 0 0 .36-.292l2.605-11.163a.372.372 0 0 0-.36-.454H6.918l-.72-3.43A.372.372 0 0 0 5.837 1H1.372A.372.372 0 0 0 1 1.372zm6.082 4.093h25.083l-2.43 10.42H9.28L7.082 5.465zm6.942 17.862a2.983 2.983 0 0 0-2.977 2.977 2.983 2.983 0 0 0 2.977 2.977 2.983 2.983 0 0 0 2.977-2.977 2.983 2.983 0 0 0-2.977-2.977zm10.42 0a2.983 2.983 0 0 0-2.977 2.977 2.983 2.983 0 0 0 2.977 2.977 2.983 2.983 0 0 0 2.977-2.977 2.983 2.983 0 0 0-2.977-2.977zm-10.42.745c1.238 0 2.233.995 2.233 2.232a2.227 2.227 0 0 1-2.233 2.233 2.227 2.227 0 0 1-2.232-2.233c0-1.237.995-2.232 2.232-2.232zm10.42 0c1.237 0 2.233.995 2.233 2.232a2.227 2.227 0 0 1-2.233 2.233 2.227 2.227 0 0 1-2.233-2.233c0-1.237.995-2.232 2.233-2.232z" stroke="#72C44B" stroke-width=".4" fill="#72C44B" fill-rule="evenodd"/></svg>