<svg width="54" height="54" viewBox="0 0 256 257" xmlns="http://www.w3.org/2000/svg"><title>Untitled 12</title><path d="M170 0c4.4 2.2 9.5 3.7 12.9 6.9 4 3.7 8 8.6 9.4 13.7 6.7 25.1 12.6 50.3 18.8 75.6.1.5 0 1 0 2.3h-5.8c-38.5 0-77-.1-115.5 0-24.2.1-43.5 13.6-49.2 35.4-2.2 8.2-1.7 17.1-2.3 25.7-.1 1.9 0 3.9 0 6.4-9-3.7-14.8-9.6-17-18-7-27.1-13.8-54.2-19.9-81.5-3.3-14.8 7.4-29.2 23.5-33.2 30.4-7.5 60.8-14.9 91.2-22.3 13.6-3.3 27.1-6.6 40.7-10 .8-.2 1.4-.7 2.1-1H170zm-28.1 50.8c2.9 11.6 5.5 22.3 8.2 33.3 11.4-2.8 22.2-5.5 33.3-8.2-2.8-11.5-5.5-22.2-8.2-33.2-11.4 2.7-22.2 5.4-33.3 8.1zM82 256c-3.3-1.5-6.8-2.6-9.8-4.5-9-5.6-13.9-13.9-14-24.4-.2-26.6-.3-53.3 0-79.9.2-16.5 13.2-29 30-29 33.6-.1 67.2 0 100.9 0h34c16.2 0 26.1 7.3 31.2 22.7.1.4.6.8.8 1.2v90c-1.2 2.9-2.3 5.8-3.7 8.6-4.3 8.4-11.8 12.6-20.3 15.4-49.8-.1-99.4-.1-149.1-.1zm-8.1-68.8c0 13.1-.1 25.7 0 38.3.1 9.1 5.5 14.6 14.7 14.6 45.3.1 90.6.1 135.9 0 9.2 0 14.6-5.4 14.7-14.6.1-11.7 0-23.3 0-35 0-1.1-.3-2.2-.4-3.4-55 .1-109.5.1-164.9.1zm.2-29.9h165.1v-5.1c0-13.8-4.4-18.2-18.2-18.2H88.5c-7.6 0-13.5 4.5-14.4 11.2-.4 3.9 0 7.9 0 12.1z"/></svg>