<svg width="34" height="34" viewBox="0 0 34 34" xmlns="http://www.w3.org/2000/svg"><title>Untitled 6</title><path d="M17 .7C7.608.7 0 8.308 0 17.7s7.608 17 17 17 17-7.608 17-17-7.608-17-17-17zm8.862 23.69a1.53 1.53 0 0 1-1.085 2.618c-.386 0-.784-.145-1.086-.446l-6.34-6.342-6.342 6.342a1.542 1.542 0 0 1-2.17 0 1.528 1.528 0 0 1 0-2.17l6.34-6.342-6.34-6.342a1.528 1.528 0 0 1 0-2.17 1.528 1.528 0 0 1 2.17 0l6.342 6.34 6.34-6.34a1.53 1.53 0 0 1 2.172 0c.603.602.603 1.58 0 2.17L19.52 18.05l6.342 6.34z" fill="#fff"/></svg>