<svg width="18" height="18" viewBox="0 0 28 28" xmlns="http://www.w3.org/2000/svg"><title>Untitled 5</title><path d="M13.714 18.425l-6.989 6.957c-.744.765-1.323 1.257-1.74 1.476a2.983 2.983 0 0 1-1.41.328c-.94 0-1.74-.333-2.395-1-.657-.668-.985-1.482-.985-2.445 0-.481.11-.935.328-1.362.22-.426.7-1.011 1.444-1.755l6.99-6.956L2.13 6.843C1.387 6.099.906 5.519.688 5.103a2.983 2.983 0 0 1-.329-1.41c0-.941.328-1.74.985-2.396C2 .641 2.82.313 3.804.313c.482 0 .93.11 1.346.328.416.219.995.7 1.74 1.444l6.824 6.825 6.923-6.924c.744-.765 1.324-1.257 1.74-1.476a2.983 2.983 0 0 1 1.41-.328c.941 0 1.74.333 2.396 1 .656.668.984 1.482.984 2.445 0 .481-.11.935-.328 1.362-.219.426-.7 1.011-1.444 1.755l-6.923 6.924 6.792 6.792c.744.744 1.225 1.323 1.444 1.739.219.415.328.886.328 1.41 0 .941-.328 1.74-.984 2.396-.657.656-1.477.984-2.461.984-.482 0-.93-.109-1.346-.328-.415-.218-.995-.7-1.739-1.443l-6.792-6.793z" fill="#5b5b5e" fill-rule="evenodd"/></svg>