<svg width="28" height="25" viewBox="0 0 28 25" xmlns="http://www.w3.org/2000/svg" xmlns:xlink="http://www.w3.org/1999/xlink"><title>Page 1</title><defs><path d="M17.592 2.91c1.87 0 3.407.616 4.607 1.849C23.4 5.99 24 7.682 24 9.829c0 2.188-.724 4.276-2.171 6.265-1.413 1.949-3.178 3.699-5.297 5.25a21.992 21.992 0 0 1-2.383 1.58c-.742.418-1.271.687-1.589.806l-.424.18c-.988-.28-2.454-1.134-4.396-2.566-2.118-1.551-3.883-3.301-5.296-5.25C.997 14.105.273 12.017.273 9.83c0-2.148.6-3.839 1.8-5.071 1.201-1.233 2.737-1.85 4.608-1.85 1.095 0 2.145.278 3.151.835a5.649 5.649 0 0 1 2.304 2.327 5.649 5.649 0 0 1 2.304-2.327c1.007-.557 2.057-.835 3.152-.835z" id="a"/><mask id="b" x="-1.3" y="-1.3" width="26.327" height="23.6"><path fill="#fff" d="M-1.027 1.609H25.3v23.6H-1.027z"/><use xlink:href="#a"/></mask></defs><use mask="url(#b)" xlink:href="#a" transform="translate(2 -1)" stroke="#7C7C7C" stroke-width="2.6" fill="none" fill-rule="evenodd"/></svg>