<svg width="30" height="24" viewBox="0 0 35 29" xmlns="http://www.w3.org/2000/svg"><title>Untitled 10</title><path d="M29.9 27.2c0 .4-.1.7-.4 1-.3.3-.6.4-1 .4h-8.3v-8.3h-5.6v8.3H6.3c-.4 0-.7-.1-1-.4-.3-.3-.4-.6-.4-1V16.6L17.4 6.3l12.5 10.3v10.6zm4.9-12l-1.3 1.6c-.1.1-.3.2-.5.2h-.1c-.2 0-.3-.1-.5-.2l-15-12.5-15 12.5c-.2.1-.3.2-.5.2s-.3-.1-.5-.2L.1 15.2c-.1-.1-.2-.3-.2-.5s.1-.4.2-.5l15.6-13c.5-.4 1-.6 1.7-.6.6 0 1.2.2 1.7.6l5.3 4.4V1.4c0-.2.1-.4.2-.5.1-.1.3-.2.5-.2h4.2c.2 0 .4.1.5.2.1.1.2.3.2.5v8.9l4.8 4c.1.1.2.3.2.5 0 .1-.1.3-.2.4z" fill="#fff"/></svg>