<svg width="22" height="22" viewBox="0 0 19 20" xmlns="http://www.w3.org/2000/svg" xmlns:xlink="http://www.w3.org/1999/xlink"><title>Magnifier</title><defs><path d="M18.508 16.579l-4.539-4.549-.168-.135a7.474 7.474 0 0 0 1.215-4.094A7.515 7.515 0 0 0 7.503.28C3.354.28-.012 3.647-.012 7.801s3.365 7.52 7.515 7.52a7.491 7.491 0 0 0 4.093-1.217l.133.166 4.543 4.547a1.581 1.581 0 1 0 2.236-2.238zM7.503 12.946a5.148 5.148 0 0 1-5.141-5.145 5.149 5.149 0 0 1 5.141-5.146c2.834 0 5.142 2.307 5.142 5.146s-2.308 5.145-5.142 5.145z" id="a"/></defs><use fill="#429284" xlink:href="#a"/></svg>