<svg width="20" height="21" viewBox="0 0 20 21" xmlns="http://www.w3.org/2000/svg"><title>@</title><path d="M4.8 19.548a8.827 8.827 0 0 1-3.552-3.612C.416 14.384 0 12.584 0 10.536c0-2.096.444-3.94 1.332-5.532C2.22 3.412 3.436 2.18 4.98 1.308 6.524.436 8.256 0 10.176 0c2.064 0 3.828.432 5.292 1.296 1.464.864 2.564 1.972 3.3 3.324.736 1.352 1.104 2.764 1.104 4.236 0 1.632-.244 2.952-.732 3.96s-1.096 1.732-1.824 2.172c-.728.44-1.492.66-2.292.66-.88 0-1.552-.188-2.016-.564-.464-.376-.712-.916-.744-1.62h-.048c-.4.672-.92 1.204-1.56 1.596-.64.392-1.36.588-2.16.588-1.024 0-1.864-.364-2.52-1.092-.656-.728-.984-1.756-.984-3.084 0-1.088.212-2.12.636-3.096.424-.976 1.024-1.76 1.8-2.352.776-.592 1.676-.888 2.7-.888.8 0 1.492.196 2.076.588.584.392.948.884 1.092 1.476h.024l.288-1.752h1.296l-1.176 6.792a5.415 5.415 0 0 0-.072.84c0 .544.132.928.396 1.152.264.224.668.336 1.212.336.496 0 1-.188 1.512-.564.512-.376.94-.988 1.284-1.836.344-.848.516-1.952.516-3.312 0-1.248-.308-2.456-.924-3.624-.616-1.168-1.56-2.128-2.832-2.88C13.548 1.6 12 1.224 10.176 1.224c-1.68 0-3.196.38-4.548 1.14-1.352.76-2.416 1.844-3.192 3.252-.776 1.408-1.164 3.048-1.164 4.92 0 1.84.356 3.44 1.068 4.8a7.52 7.52 0 0 0 3.084 3.156c1.344.744 2.936 1.116 4.776 1.116 1.392 0 2.612-.212 3.66-.636 1.048-.424 1.852-1.012 2.412-1.764H18c-.688 1.136-1.712 2.024-3.072 2.664-1.36.64-2.936.96-4.728.96-2.064 0-3.864-.428-5.4-1.284zm6.18-5.748c.632-.512 1.112-1.18 1.44-2.004a6.913 6.913 0 0 0 .492-2.58c0-.96-.24-1.696-.72-2.208-.48-.512-1.128-.768-1.944-.768-.816 0-1.528.248-2.136.744-.608.496-1.072 1.14-1.392 1.932a6.508 6.508 0 0 0-.48 2.46c0 1.024.244 1.812.732 2.364.488.552 1.084.828 1.788.828.848 0 1.588-.256 2.22-.768z" fill="#444" fill-rule="evenodd"/></svg>