<svg id="Camada_1" data-name="Camada 1" xmlns="http://www.w3.org/2000/svg" viewBox="0 0 87 89"><defs><style>.cls-1{fill:#fff}</style></defs><title>Prancheta 1</title><path class="cls-1" d="M85.11 35.29l-9.66-9.66V12.31a2.9 2.9 0 0 0-2.89-2.89H59.25l-5-5a15.23 15.23 0 0 0-21.51 0l-5 5H14.47a2.9 2.9 0 0 0-2.89 2.89v13.31l-9.66 9.67C-.22 37.43 0 42.52 0 42.7v43.23A3.08 3.08 0 0 0 3.09 89h80.85A3.08 3.08 0 0 0 87 85.93V42.71c0-.56 0-5.52-1.89-7.42zm-.91.92a1.63 1.63 0 0 1 0 2.31l-8.75 8.75V27.46zM33.68 5.36a13.94 13.94 0 0 1 19.67 0l4.06 4.06H29.62zM12.88 48.5V12.31a1.59 1.59 0 0 1 1.59-1.59h58.09a1.59 1.59 0 0 1 1.59 1.59v36.52h-.27L67.75 55a34.27 34.27 0 0 1-48.47 0l-6.46-6.45h.06zm-1.3-21v19.77l-8.75-8.75a1.63 1.63 0 0 1 0-2.31zm74.14 58.43a1.78 1.78 0 0 1-1.78 1.77H3.09a1.78 1.78 0 0 1-1.78-1.77V42.67a15.9 15.9 0 0 1 .3-3.67 2.06 2.06 0 0 0 .31.46l16.44 16.42a35.45 35.45 0 0 0 6.32 5L6.86 78.71a.66.66 0 0 0 0 .92.65.65 0 0 0 .92 0l18-18.06a35.42 35.42 0 0 0 35.91-.32l18.42 18.38a.7.7 0 0 0 .46.19.66.66 0 0 0 .46-.19.64.64 0 0 0 0-.92L62.88 60.56a35.32 35.32 0 0 0 5.79-4.68l16.44-16.44a3.19 3.19 0 0 0 .26-.38 19.42 19.42 0 0 1 .35 3.64z"/><path class="cls-1" d="M22.75 25h41.87a.65.65 0 1 0 0-1.3H22.75a.65.65 0 0 0 0 1.3zM22.75 31.4H51a.65.65 0 0 0 0-1.3H22.75a.65.65 0 0 0 0 1.3zM22.75 37.81h25.48a.65.65 0 0 0 0-1.3H22.75a.65.65 0 0 0 0 1.3z"/></svg>