<svg width="30" height="26" viewBox="0 0 30 26" xmlns="http://www.w3.org/2000/svg" xmlns:xlink="http://www.w3.org/1999/xlink"><title>Page 1</title><defs><path d="M0 23.817c0-.15.008-.345.025-.59.016-.243.107-.636.273-1.178.165-.542.397-.961.694-1.259.29-.29.865-.608 1.725-.955.86-.347 1.831-.713 2.915-1.098 1.083-.384 1.877-.705 2.381-.961a3.47 3.47 0 0 0 1.483-1.414c.351-.62.527-1.266.527-1.935 0-.455-.273-.993-.819-1.613-.554-.637-1.003-1.503-1.346-2.599-.343-1.096-.514-2.359-.514-3.79 0-1.074.153-2.032.458-2.871.306-.84.724-1.511 1.253-2.016A5.43 5.43 0 0 1 10.86.391 5.952 5.952 0 0 1 13.025 0c.769 0 1.486.13 2.152.39.666.261 1.265.644 1.799 1.148.533.505.953 1.177 1.259 2.016.306.84.459 1.797.459 2.872 0 1.43-.17 2.693-.509 3.79-.339 1.095-.786 1.961-1.34 2.598-.554.628-.83 1.166-.83 1.613 0 .661.177 1.304.533 1.928a3.498 3.498 0 0 0 1.488 1.42c.505.257 1.299.578 2.382.962 1.083.385 2.05.75 2.903 1.098.851.347 1.422.666 1.711.955.298.298.53.699.695 1.203.165.505.256.935.273 1.29v.534" id="a"/><mask id="b" x="-1.3" y="-1.3" width="28.6" height="26.417"><path fill="#fff" d="M-1.3-1.3h28.6v26.417H-1.3z"/><use xlink:href="#a"/></mask></defs><use mask="url(#b)" xlink:href="#a" transform="translate(2 2)" stroke-width="2.6" stroke="#7C7C7C" fill="none" fill-rule="evenodd"/></svg>