<svg width="22" height="22" viewBox="0 0 22 22" xmlns="http://www.w3.org/2000/svg" xmlns:xlink="http://www.w3.org/1999/xlink"><title>Page 1</title><defs><path d="M1185.805 58.906l-5.157-5.078a8.309 8.309 0 0 0 1.602-2.52c.39-.95.586-1.959.586-3.027 0-1.146-.221-2.22-.664-3.222a8.407 8.407 0 0 0-1.807-2.627 8.58 8.58 0 0 0-2.676-1.778 8.247 8.247 0 0 0-3.271-.654c-1.159 0-2.25.218-3.272.654a8.58 8.58 0 0 0-2.675 1.778 8.406 8.406 0 0 0-1.807 2.627 7.888 7.888 0 0 0-.664 3.222c0 1.146.221 2.22.664 3.223a8.406 8.406 0 0 0 1.807 2.627 8.58 8.58 0 0 0 2.675 1.777 8.247 8.247 0 0 0 3.272.654 8.306 8.306 0 0 0 2.852-.488 8.479 8.479 0 0 0 2.44-1.367l5.177 5.098c.13.13.283.195.459.195a.628.628 0 0 0 .459-.195.567.567 0 0 0 .195-.44.628.628 0 0 0-.195-.459zm-11.387-3.613a6.92 6.92 0 0 1-2.773-.557 7.358 7.358 0 0 1-2.256-1.504 7.117 7.117 0 0 1-1.534-2.226 6.654 6.654 0 0 1-.566-2.725c0-.963.189-1.871.566-2.724a7.117 7.117 0 0 1 1.534-2.227 7.358 7.358 0 0 1 2.256-1.504 6.92 6.92 0 0 1 2.773-.556c.977 0 1.898.185 2.764.556a7.326 7.326 0 0 1 2.265 1.504 6.984 6.984 0 0 1 1.524 2.227c.37.853.556 1.76.556 2.724 0 .964-.185 1.872-.556 2.725a6.984 6.984 0 0 1-1.524 2.226 7.326 7.326 0 0 1-2.265 1.504 6.941 6.941 0 0 1-2.764.557z" id="a"/><mask id="b" x="-.1" y="-.1" width="20.2" height="20.2"><path fill="#fff" d="M1165.9 39.9h20.2v20.2h-20.2z"/><use xlink:href="#a"/></mask></defs><g transform="translate(-1165 -39)" fill="none" fill-rule="evenodd"><use fill="#72C44B" xlink:href="#a"/><use stroke="#72C44B" mask="url(#b)" stroke-width=".2" xlink:href="#a"/></g></svg>