<svg width="22" height="22" viewBox="0 0 448 448" xmlns="http://www.w3.org/2000/svg"><title>Slice 1</title><path d="M223.8.2C100.4.2-.3 101 .1 224.7c.4 122.5 99 220.6 219 223.1 125 2.6 226.4-97.3 228.7-219.5C450.2 102 347.7-.1 223.8.2zm141.3 332.4c-1.4 3.3-3.6 6.4-6 9-4.3 4.8-9.5 9-13.6 13.9-8.1 9.6-18 13.9-25.5 12.9-70.9-3.4-127.5-27.7-173.3-75.6-37.6-39.3-59-86.5-65.2-140.5-1-8.7-1.4-17.6-1.3-26.4 0-7 2.5-13.3 7.6-18.4 5.7-5.6 11.3-11.3 17-17 11.7-11.6 28.2-14.2 42.7-6 9.6 5.4 16.6 13.3 19.5 24.2 3.2 11.7 6.5 23.4 9.5 35.2 3.3 13.3.2 25-9.1 35.1-2 2.2-4 4.6-6.4 6.3-5.9 4.2-5.9 9-3.5 15.4 17 45.3 48.2 75.8 94 91.3 3.8 1.3 6.5 1.1 9.2-2.2 2.7-3.3 6-6.2 9.1-9.2 9.4-9 20.8-12 33.2-9.2 12.8 2.9 25.4 6.6 38 10.4 21.2 6.5 32.7 30.7 24.1 50.8z" fill="#fff"/></svg>