<svg width="20" height="26" viewBox="0 0 319 438" xmlns="http://www.w3.org/2000/svg"><path d="M24.4 105.3c-.1 1.8-.3 3.2-.3 4.7 0 95.5-.1 190.9 0 286.4 0 22.7 18.3 41.1 41 41.2 62.8.1 125.6.1 188.4 0 9.8 0 18.6-3.3 26.2-9.7 11-9.3 15-21.5 15-35.5 0-94 0-187.9.1-281.9 0-1.6-.1-3.2-.2-5.1-90.1-.1-179.8-.1-270.2-.1zm71.1 272.4c0 2.3 0 4.7-.3 7-.8 7.3-6.6 12.5-13.8 12.5-7.3 0-13.1-5.1-13.9-12.4-.2-1.8-.1-3.7-.1-5.5V159.8c0-6.4 2-11.5 7.8-14.5 8.7-4.5 19.1 1.2 20.1 10.9.2 1.8.2 3.7.2 5.5v216zM173.9 165v214.4c0 2.5-.1 5-.7 7.4-1.8 6.7-7.8 10.8-14.6 10.3-6.7-.6-12-5.7-12.7-12.6-.2-1.8-.1-3.7-.1-5.5V161.5c0-2.3 0-4.7.5-7 1.5-6.7 8.1-11.4 14.9-10.8 6.8.6 12.3 6.1 12.8 13.2.1 2.8-.1 5.5-.1 8.1zm78.4 213.1c0 2.2 0 4.3-.3 6.5-.8 7.3-6.6 12.6-13.7 12.6-7.2 0-13.1-5.1-14.1-12.3-.2-1.6-.1-3.3-.1-5v-109c0-37-.1-74 .2-111 0-3.9 1.6-8.3 3.8-11.4 3.4-4.6 8.8-5.9 14.4-4 5.5 1.9 8.9 5.7 9.6 11.6.2 1.8.2 3.7.2 5.5v216.5zM269.4 40c-73.3-.2-146.6-.1-219.9 0-11 0-21 3.6-29.6 10.4C7.2 60.5.5 73.7.1 90.2h318c.2-.9.5-1.4.5-1.8-.8-26.3-22.9-48.4-49.2-48.4zM188.7.4c-19.5-.5-39-.5-58.4 0C117.5.7 107.8 11.9 108 25h102.4c1.3-12.2-9-24.3-21.7-24.6z" fill="#4D4D4D"/></svg>