<svg version="1" xmlns="http://www.w3.org/2000/svg" width="62" height="44" viewBox="0 0 62 44"><path d="M61.3 8.2c0 4.1-.6 8.2-1.8 12.4-1.2 4.2-3.2 8-5.9 11.4-2.7 3.4-6.3 6.2-10.7 8.3-4.4 2.1-9.8 3.2-16.1 3.2-8 0-14.4-1.5-19.1-4.6-4.7-3.1-7-8.1-7-15.1C.7 19 2.2 15.1 5.2 12 8.1 9 12 6.6 16.7 4.8c4.7-1.7 9.9-2.9 15.6-3.5C38 .8 43.6.5 49 .5h12.3v7.7z" fill="#76b72a"/><g fill="#fff"><path d="M45 21.8c0-.3 0-.6.1-1 .1-.3.2-.6.5-.9.2-.3.5-.5.8-.6.3-.2.8-.2 1.3-.2.6 0 1.1.1 1.5.4.4.2.5.6.5 1.2 0 .4-.1.7-.3.9-.2.2-.5.4-.9.6l-1.2.3c-.4 0-.9.1-1.3.1h-1v-.8zm-1.5 3.8c.2.4.4.7.7 1 .3.3.7.5 1.2.7.5.2 1.1.3 1.8.3s1.3-.1 2-.3c.7-.2 1.2-.6 1.8-1l-.2-.2s0-.1-.1-.1l-.1-.1c-.6-.6-1.2-.4-1.5-.2-.1.1-.2.1-.3.2-.2.1-.4.2-.7.2-.3.1-.6.1-.9.1-.4 0-.7-.1-1-.2-.3-.1-.5-.3-.7-.5-.2-.2-.3-.4-.4-.6-.1-.3-.1-.5-.1-.8v-.4h1.3c.7 0 1.4-.1 2-.2.6-.1 1.2-.3 1.7-.6s.8-.6 1.1-1c.3-.4.4-.9.4-1.5 0-.5-.1-.9-.3-1.2-.2-.4-.4-.6-.7-.9-.3-.2-.6-.4-1-.5-.4-.1-1.2-.2-1.9-.2-3 0-4.3 2.1-4.3 4v2.8c0 .4.1.8.2 1.2M24.8 23.3c0 .3 0 .6-.1 1-.1.3-.2.6-.5.9-.2.3-.5.5-.8.6-.4.1-.8.2-1.3.2-.6 0-1.1-.1-1.5-.4-.4-.2-.5-.6-.5-1.2 0-.4.1-.7.3-.9.2-.2.5-.4.9-.6l1.2-.3c.4 0 .9-.1 1.3-.1h1v.8zm.7-4.8c-.3-.3-.7-.5-1.2-.7-.5-.2-1.1-.3-1.8-.3s-1.3.1-2 .3c-.7.2-1.2.6-1.8 1l.2.2s0 .1.1.1l.1.1c.6.6 1.2.4 1.5.2.1-.1.2-.1.3-.2.2-.1.4-.2.7-.2.3-.1.6-.1.9-.1.4 0 .7.1 1 .2.3.1.5.3.7.5.2.2.3.4.4.6.1.2.1.5.1.7v.4h-1.3c-.7 0-1.4.1-2 .2-.6.1-1.2.3-1.7.6s-.8.6-1.1 1c-.3.4-.4.9-.4 1.5 0 .5.1.9.3 1.2.2.4.4.6.7.9.3.2.6.4 1 .5.4.1 1.2.2 1.9.2 3 0 4.3-2.1 4.3-4v-2.8c0-.4-.1-.8-.2-1.2-.1-.3-.4-.6-.7-.9M16 18.4c-.3-.3-.7-.5-1.1-.6-.4-.1-.9-.2-1.3-.2-.7 0-1.4.2-1.9.5-.6.3-1 .8-1.2 1.3V19c0-1-.8-1.2-1.1-1.2h-.7v8.1c0 1.2.9 1.3 1.2 1.3h.6v-4.9c0-.5.1-1 .2-1.4.1-.4.3-.7.6-1 .2-.3.5-.4.8-.6.3-.1.7-.2 1-.2.3 0 .5 0 .8.1.3.1.5.2.7.4.2.2.4.4.5.8.1.3.2.7.2 1.1v4.3c0 1.2.9 1.3 1.2 1.3h.5V21c0-.6-.1-1.2-.3-1.6-.1-.3-.4-.7-.7-1M40.8 17.8h-.6v4.9c0 .5-.1 1-.2 1.4-.1.4-.3.7-.6 1-.2.3-.5.4-.8.6-.3.1-.7.2-1 .2-.3 0-.5 0-.8-.1-.3-.1-.5-.2-.7-.4-.2-.2-.4-.4-.5-.8-.1-.3-.2-.7-.2-1.1v-4.3c0-1.2-.9-1.3-1.2-1.3h-.6V24c0 .6.1 1.2.3 1.6.2.5.4.8.7 1.1.3.3.7.5 1.1.6.4.1.9.2 1.3.2.7 0 1.4-.2 1.9-.5.6-.3 1-.8 1.2-1.3v.3c0 1 .8 1.2 1.1 1.2h.8v-8.1c0-1.2-1-1.3-1.2-1.3M30.9 17.8h-1.3v-1.3c0-1.2-.9-1.3-1.2-1.3h-.6v10.2c0 .4.1.7.3 1 .2.3.5.6.8.7.4.2.8.3 1.5.3h.4c1.2 0 1.3-.9 1.3-1.2v-.3h-1.4c-.3 0-.5-.1-.7-.2-.2-.1-.3-.3-.4-.5-.1-.2-.2-.4-.2-.7v-5.2H32V19c.2-.3.1-1.2-1.1-1.2"/></g></svg>