<svg xmlns="http://www.w3.org/2000/svg" viewBox="0 0 25 25"><path d="M22.2 20.4c4-4.9 3.7-12.2-.9-16.7C19 1.3 15.8 0 12.5 0S6 1.3 3.7 3.7C1.3 6 0 9.2 0 12.5c0 2.9 1 5.7 2.8 7.9l.9.9C6 23.7 9.2 25 12.5 25s6.5-1.3 8.8-3.7l.9-.9zM5.2 5.2c2-2 4.6-3 7.3-3 2.8 0 5.4 1.1 7.3 3 3.5 3.5 4 8.9 1.4 12.9l-.1-.1c-1.6-.8-3.3-1.3-5.1-1.6.5-.4.8-1 .8-1.5l.1-.4c.4-.2.7-.6.8-1.1l.2-2.1c.1-.5-.1-.9-.5-1.2l.1-.5c.1-.7.2-2.4-1.1-3.6-.9-.9-2.3-1.4-3.9-1.4s-3 .5-3.9 1.4C7.3 7.1 7.5 8.8 7.5 9.5l.1.5c-.3.3-.5.8-.5 1.2l.2 2.1c.1.5.4.9.8 1.1v.4c.1.6.4 1.2.9 1.6-1.8.3-3.5.9-5.2 1.6h-.1c-1.1-1.7-1.6-3.6-1.6-5.6 0-2.7 1.1-5.3 3.1-7.2zm7.3 17.7c-.3 0-.7 0-1-.1-1.7-.2-3.3-.7-4.7-1.7-.3-.2-.5-.4-.8-.6s-.5-.4-.8-.7c1.6-.7 3.4-1.2 5.2-1.4.3 0 .5-.2.7-.4.2-.2.2-.5.2-.8l-.2-1.4c0-.3-.2-.6-.5-.7-.2-.1-.3-.3-.3-.3 0-.5-.1-.9-.2-1.4 0-.4-.3-.8-.7-.9l-.1-.8c.3-.2.5-.6.5-1l-.2-1.4c-.1-.7-.1-1.4.4-1.9s1.4-.8 2.4-.8 1.9.3 2.5.8c.5.4.5 1.1.4 1.8l-.2 1.4c0 .4.1.8.5 1h.1l-.1.8c-.4.1-.7.5-.7.9l-.2 1.3s-.1.2-.3.3c-.3.2-.4.4-.5.7l-.2 1.5c0 .3 0 .6.2.8.2.2.4.4.7.4 1.8.2 3.6.7 5.2 1.4-1.9 2.1-4.5 3.2-7.3 3.2z"/></svg>