<svg xmlns="http://www.w3.org/2000/svg" viewBox="0 0 371.2 322.2"><path fill="#FFF" d="M.6 296.7v-.1-.1c0-.3.1-.4.4-.5.3 0 .5-.1.7-.1h4.4c.1 0 .2.1.4.3.1.2.3.4.4.6.1.2.3.5.4.7.1.2.2.4.2.5.1.1.1.3.3.6.1.3.2.6.4.9.1.3.2.6.4.8.1.3.2.4.2.5l.9 2.1c.3.7.7 1.3 1.2 2l.9-1.8c.3-.6.5-1.2.9-1.8 0-.1.1-.2.2-.4s.2-.4.4-.6c.1-.2.2-.4.4-.6.1-.2.2-.3.2-.4 0-.1.1-.2.2-.4s.2-.4.3-.7c.1-.2.2-.5.3-.7.1-.2.2-.4.2-.5.1-.2.2-.5.3-.7.1-.3.3-.4.6-.4h5.3c.2 0 .2.1.2.2v.4c0 .6-.1 1.1-.3 1.7-.2.6-.4 1.1-.6 1.6 0 .1-.1.3-.2.5s-.2.4-.2.7c-.1.2-.2.5-.3.7-.1.2-.1.4-.2.4-.2.3-.4.8-.8 1.6-.4.7-.7 1.5-1.1 2.4-.4.8-.8 1.6-1.1 2.3-.4.7-.6 1.2-.7 1.5 0 .1-.1.2-.1.4l-.3.6-.3.6c-.1.2-.1.3-.2.4 0 0-.1.1-.1.3-.1.1-.2.3-.2.4-.1.2-.2.3-.2.4-.1.1-.1.2-.1.3 0 0-.1.1-.1.2-.1.1-.1.2-.2.4-.1.1-.1.3-.2.4-.1.1-.1.2-.1.2l-.1.1c0 .1-.1.1-.1.1h-.1c-.4 0-.8 0-1.2-.1-.4 0-.8-.1-1.2-.1h-.9s-.1 0-.2.1c-.1 0-.2.1-.2.1h-.4c-.2 0-.3-.1-.5-.4-.1-.3-.2-.5-.3-.6-.2-.4-.4-.9-.7-1.3-.2-.4-.5-.9-.7-1.3-.6-1.3-1.2-2.6-1.9-3.9l-1.8-3.9c0-.1-.1-.3-.3-.7-.1-.4-.3-.7-.4-1.2-.2-.4-.3-.8-.4-1.1-.1-.4-.2-.6-.3-.6 0-.1-.1-.3-.3-.6-.1-.3-.3-.6-.5-.9-.2-.3-.3-.6-.5-.9.1-.3 0-.5-.1-.6M24.1 313.7v-.7-1.6-2.2c0-.8 0-1.6-.1-2.5 0-.8 0-1.6-.1-2.4v-4-.7-.8c0-.3 0-.6.1-1l.3-.1H29s.1 0 .1.1l.1.1c0 .1.1.2.1.4s0 .4.1.5l.8 15.7v.1c0 .2 0 .3-.1.4l-.3.3H24.6l-.2-.3-.3-1.3zm1.2-23.5H27c.1 0 .3.1.5.2l.4.2c.2.1.4.3.6.4.2.1.3.3.6.5.2.3.3.6.4.8 0 .3.1.6.1.9v.8c0 .2-.1.4-.2.6-.2.2-.3.4-.6.6-.2.2-.4.4-.7.5-.2.1-.5.2-.7.2h-.7c-.5 0-1.1-.1-1.6-.3-.5-.2-.9-.6-1.2-1.1 0-.1-.1-.2-.2-.3-.1-.1-.1-.3-.1-.3v-2s0-.2.1-.3c.1-.2.2-.3.2-.4.2-.2.4-.4.6-.7.3-.1.6-.3.8-.3M31.6 297.9v-.1-.1c0-.3.1-.4.4-.5.3 0 .5-.1.7-.1h4.4c.1 0 .2.1.4.3.1.2.3.4.4.6.1.2.3.5.4.7.1.2.2.4.2.5.1.1.1.3.3.6.1.3.2.6.4.9.1.3.2.6.4.8.1.3.2.4.2.5l.9 2.1c.3.7.7 1.3 1.2 2l.9-1.8c.3-.6.5-1.2.9-1.8 0-.1.1-.2.2-.4s.2-.4.4-.6c.1-.2.2-.4.4-.6.1-.2.2-.3.2-.4 0-.1.1-.2.2-.4s.2-.4.3-.7c.1-.2.2-.5.3-.7.1-.2.2-.4.2-.5.1-.2.2-.5.3-.7.1-.3.3-.4.6-.4h5.3c.2 0 .2.1.2.2v.4c0 .6-.1 1.1-.3 1.7-.2.6-.4 1.1-.6 1.6 0 .1-.1.3-.2.5s-.2.4-.2.7c-.1.2-.2.5-.3.7-.1.2-.1.4-.2.4-.2.3-.4.8-.8 1.6-.4.7-.7 1.5-1.1 2.4-.4.8-.8 1.6-1.1 2.3-.4.7-.6 1.2-.7 1.5 0 .1-.1.2-.1.4l-.3.6-.3.6c-.1.2-.1.3-.2.4 0 0-.1.1-.1.3-.1.1-.2.3-.2.4-.1.2-.2.3-.2.4-.1.1-.1.2-.1.3 0 0-.1.1-.1.2-.1.1-.1.2-.2.4-.1.1-.1.3-.2.4-.1.1-.1.2-.1.2l-.1.1c0 .1-.1.1-.1.1h-.1c-.4 0-.8 0-1.2-.1-.4 0-.8-.1-1.2-.1h-.9s-.1 0-.2.1c-.1 0-.2.1-.2.1h-.1c-.2 0-.3-.1-.5-.4-.1-.3-.2-.5-.3-.6-.2-.4-.4-.9-.7-1.3-.2-.4-.5-.9-.7-1.3-.6-1.3-1.2-2.6-1.9-3.9l-1.8-3.9c0-.1-.1-.3-.3-.7-.1-.4-.3-.7-.4-1.2-.2-.4-.3-.8-.4-1.1-.1-.4-.2-.6-.3-.6 0-.1-.1-.3-.3-.6-.1-.3-.3-.6-.5-.9-.2-.3-.3-.6-.5-.9-.2-.3-.3-.5-.4-.6M63.9 301.2c-.4 0-.8 0-1.2.1-.4.1-.8.2-1.2.4-.4.2-.7.4-1.1.7-.3.3-.5.7-.7 1v.2c.1 0 .2 0 .5-.1.3 0 .4-.1.5-.1H67.7v-.1c0-.2 0-.3-.1-.4-.5-.6-1-1-1.6-1.3-.6-.3-1.3-.4-2.1-.4m-10.5 5.2c0-.7.1-1.3.2-1.8s.3-1.2.5-1.8c0-.1 0-.2.1-.3 0-.1.1-.3.1-.4.1-.2.1-.3.2-.5 0-.2.1-.3.1-.3.1-.4.4-.7.7-1.1.3-.4.6-.7.8-1 .6-.6 1.3-1.1 2-1.5.7-.4 1.5-.7 2.3-1 .5-.2 1-.2 1.4-.2H65c.6.1 1.3.3 1.9.6.6.3 1.2.6 1.8 1 .6.4 1.1.8 1.6 1.4.5.5.9 1 1.2 1.6.8 1.4 1.2 2.8 1.2 4.3v.9c0 .3-.1.5-.2.8-.1.2-.2.4-.5.6-.2.1-.5.2-.9.3H58.6c-.1 0-.1.1-.1.1v.1c.2.9.5 1.6 1 2.2.5.6 1.2 1 2.1 1.2H63c.7 0 1.3-.1 2-.2.6-.1 1.2-.4 1.8-.7 0 0 .1-.1.3-.2.2-.1.3-.2.5-.4.2-.1.4-.2.5-.4.2-.1.3-.2.3-.2.1-.1.2-.1.2-.1h.4s.1.1.2.1l.2.2c.1.1.3.2.4.3.1.1.3.2.4.3.1.1.3.2.3.2.2.2.5.3.7.5.3.2.4.4.4.7v.4c0 .1-.1.2-.2.3l-.4.4-.6.6c-.2.2-.4.4-.7.6s-.4.3-.4.4c-.2.2-.5.4-.8.6-.3.2-.6.3-1 .4-.1 0-.2.1-.4.1-.1 0-.3.1-.5.1-.2.1-.4.1-.5.1h-4.4s-.2 0-.3-.1c-.2 0-.3-.1-.4-.1-.3-.1-.6-.1-.9-.2l-.9-.3c-.3-.1-.5-.2-.7-.4-.2-.2-.4-.3-.7-.5-.8-.6-1.4-1.2-2-1.8-.6-.6-1-1.1-1.4-1.8-.4-.6-.6-1.3-.8-2.1-.1-.1-.2-1-.2-2M83.7 301.7c-.5 0-.9.1-1.2.2-.4.1-.7.4-1 .8-.2.2-.3.5-.5.8-.1.3-.2.7-.3 1-.1.4-.2.7-.2 1.1 0 .4-.1.7-.1 1-.2 1.5-.3 3-.4 4.4v4.5l-.3.3h-3.6c-.2 0-.3-.1-.4-.2-.1-.2-.1-.3-.1-.4v-5c0-2.1 0-4.3.1-6.4.1-2.1.1-4.3 0-6.4l.1-.1h3.1s.2 0 .4.1c.3 0 .4.1.6.1.3 0 .5.1.6.3.1.1.2.4.2.7h.1l.1-.1c.1 0 .2-.1.2-.2.1-.1.2-.1.2-.2l.1-.1c.4-.2.7-.4 1-.5l.9-.3c.3-.1.6-.1 1-.1h2.5c.5.1 1 .3 1.4.5.4.2.8.5 1.2.9.6.6 1.1 1.2 1.5 1.8.3.7.6 1.4.7 2.1.1.7.2 1.5.2 2.3V315.8l-.1.1-.1.1c-.1 0-.2 0-.4.1-.2 0-.4.1-.5.1-.5 0-1 .1-1.6.1h-2.2l-.1-.1h-.1-.1l-.1-.1-.1-.1v-9.8-.2c0-.1 0-.3-.1-.4 0-.2-.1-.3-.1-.5s-.1-.3-.1-.4c0 0 0-.1-.1-.2 0-.1-.1-.2-.1-.3 0-.1-.1-.2-.1-.3 0-.1-.1-.2-.1-.2-.1-.2-.3-.5-.5-.9-.2-.3-.5-.6-.8-.6h-.7zM100.1 306c0 .5.1 1 .3 1.6.2.6.4 1.1.7 1.5.3.5.7.9 1.1 1.2.4.3.9.5 1.5.5.9 0 1.6-.2 2.2-.5.6-.3 1.2-.8 1.6-1.3.4-.6.7-1.2.9-1.9.2-.7.3-1.5.3-2.2V304.3v-.4-.2-.1l-.1-.1c-.2-.2-.5-.5-.7-.8-.3-.3-.6-.5-.9-.7-.1 0-.2-.1-.4-.2s-.3-.2-.4-.2h-2s-.1 0-.2-.1c-.1 0-.2-.1-.2-.1-.5 0-.9.1-1.3.3-.4.2-.7.5-1 .8-.3.3-.5.7-.7 1.1l-.6 1.2s0 .1-.1.2v1m-5.4 1c0-.9.1-1.9.2-3s.3-2.1.7-3.1c.3-1 .8-1.9 1.5-2.7.6-.8 1.5-1.4 2.5-1.7.5-.2 1-.4 1.4-.5.5-.1.9-.2 1.5-.2 1.1 0 2.1.2 3.1.6.9.4 1.9.8 2.8 1.3h.1s0-.1.1-.2c0-.1.1-.2.1-.2v-5.6s0-.1.1-.2.1-.1.1-.2c.5-.1 1-.2 1.5-.2h3.2c.1 0 .1.1.2.1s.1.1.1.1V300.4c0 .9 0 1.9-.1 3 0 1.1 0 2.3-.1 3.5 0 1.2-.1 2.4-.1 3.5s0 2.1-.1 3v1.9c-.1.2-.3.3-.6.4h-4.3c-.2-.2-.2-.4-.2-.7 0-.3 0-.5-.1-.7-.5.3-.9.5-1.3.7s-.8.3-1.2.4c-.4.1-.9.2-1.3.2h-3.2c-.8 0-1.7-.2-2.4-.7-.8-.4-1.4-1-2-1.6-.2-.2-.3-.4-.5-.7-.2-.3-.3-.6-.5-.8-.1-.3-.3-.6-.4-.9-.1-.3-.2-.6-.3-.8-.1-.2-.1-.4-.2-.7-.1-.2-.1-.5-.2-.7V307zM122.4 305.1v.7c0 .2 0 .4.1.7 0 .1.1.2.1.3 0 .2.1.3.2.5s.1.4.2.6c.1.2.1.3.1.4 0 0 0 .1.1.1s.1.1.1.1c0 .1.1.1.2.3.1.1.2.2.3.4s.2.2.3.3l.2.2s.1 0 .3.1c.1.1.3.2.4.2.2.1.5.2.7.3.2 0 .5.1.7.1 1 0 1.9-.2 2.5-.7.7-.4 1.2-1.1 1.6-2.1.2-.4.2-.8.2-1.3V305v-.2-.2c-.2-.9-.5-1.6-1.1-2.2-.5-.6-1.2-1-2.1-1.3-.2-.1-.4-.1-.7-.1h-.7c-1.2 0-2.2.3-2.9 1-.4.9-.8 1.9-.8 3.1m-5.6-1.2c.3-1.4.8-2.5 1.4-3.5.7-1 1.5-1.8 2.4-2.4.9-.6 2-1.1 3.2-1.4 1.2-.3 2.4-.5 3.7-.5h.9c1.3.1 2.3.5 3.3 1.1.9.6 1.7 1.3 2.3 2.2.6.9 1.1 1.9 1.4 3 .3 1.1.5 2.3.5 3.4 0 .6 0 1.2-.1 1.8 0 .6-.1 1.2-.2 1.8-.2.8-.4 1.5-.8 2.1-.4.6-.8 1.2-1.4 1.9-.2.3-.5.5-.8.7-.4.2-.7.5-1.2.7-.4.2-.8.4-1.3.5-.4.1-.8.2-1.1.2h-1.4c-.8 0-1.5 0-2.2-.1-.7-.1-1.4-.2-2.2-.4 0 0-.1 0-.2-.1-.1 0-.2-.1-.2-.1-.1 0-.2-.1-.3-.1-.1-.1-.3-.1-.5-.2s-.3-.2-.5-.2c-.1-.1-.2-.1-.3-.2 0 0-.1-.1-.2-.1s-.2-.1-.2-.1l-.4-.4-.6-.6-.6-.6-.4-.4c-.4-.4-.8-.9-1-1.4-.3-.5-.5-1.1-.7-1.7-.2-.6-.3-1.2-.3-1.8-.1-.6-.1-1.2-.1-1.8v-1.3zM156.7 301.2c-.4 0-.8 0-1.2.1-.4.1-.8.2-1.2.4-.4.2-.7.4-1.1.7-.3.3-.5.7-.7 1v.2c.1 0 .3 0 .5-.1.3 0 .4-.1.5-.1H160.5v-.1c0-.2 0-.3-.1-.4-.5-.6-1-1-1.6-1.3-.6-.3-1.3-.4-2.1-.4m-10.5 5.2c0-.7.1-1.3.2-1.8s.3-1.2.5-1.8c0-.1 0-.2.1-.3 0-.1.1-.3.1-.4.1-.2.1-.3.2-.5 0-.2.1-.3.1-.3.1-.4.4-.7.7-1.1.3-.4.6-.7.8-1 .6-.6 1.3-1.1 2-1.5.7-.4 1.5-.7 2.3-1 .5-.2 1-.2 1.4-.2H157.7c.6.1 1.3.3 1.9.6.6.3 1.2.6 1.8 1 .6.4 1.1.8 1.6 1.4.5.5.9 1 1.2 1.6.8 1.4 1.2 2.8 1.2 4.3v.9c0 .3-.1.5-.2.8-.1.2-.2.4-.5.6-.2.1-.5.2-.9.3h-12.5c-.1 0-.1.1-.1.1v.1c.2.9.5 1.6 1 2.2.5.6 1.2 1 2.1 1.2H155.7c.7 0 1.3-.1 2-.2.6-.1 1.2-.4 1.8-.7 0 0 .1-.1.3-.2.2-.1.3-.2.5-.4.2-.1.4-.2.5-.4.2-.1.3-.2.3-.2.1-.1.2-.1.2-.1h.4s.1.1.2.1l.2.2c.1.1.3.2.4.3.1.1.3.2.4.3.1.1.2.2.3.2.2.2.5.3.7.5.3.2.4.4.4.7v.4c0 .1-.1.2-.2.3l-.4.4-.6.6c-.2.2-.4.4-.7.6s-.4.3-.4.4c-.2.2-.5.4-.8.6-.3.2-.6.3-1 .4-.1 0-.2.1-.4.1-.1 0-.3.1-.5.1-.2.1-.4.1-.5.1h-4.4s-.2 0-.3-.1c-.2 0-.3-.1-.4-.1-.3-.1-.6-.1-.9-.2l-.9-.3c-.3-.1-.5-.2-.7-.4-.2-.2-.4-.3-.7-.5-.8-.6-1.4-1.2-2-1.8-.6-.6-1-1.1-1.4-1.8-.4-.6-.6-1.3-.8-2.1 0-.1-.1-1-.1-2M168.5 312.9c0-1.2 0-2.4.1-3.5 0-1.2.1-2.4.1-3.5 0-1.2 0-2.4-.1-3.5-.1-1.2-.1-2.3-.1-3.5v-.6l.1-.1c.5-.1.8-.1 1.1-.2.3 0 .6-.1 1-.1.3 0 .6-.1.8-.1.5-.1.9-.1 1.3-.1h1.3v1.5l.2-.2c.1-.1.3-.2.4-.3.1-.1.3-.2.4-.3.1-.1.2-.1.3-.2.5-.4 1-.6 1.5-.7.5-.1 1.1-.2 1.7-.2h1.3c.1 0 .2.1.3.1.4.1.8.3 1.1.5.4.2.7.4 1 .6.4.2.7.5 1 .7l.9.9h.1c.1-.1.2-.2.4-.3.2-.2.4-.3.6-.5.2-.2.4-.3.6-.5.2-.1.3-.2.4-.3 0 0 .1-.1.2-.1s.2-.1.4-.2c.1-.1.3-.1.4-.2.1-.1.2-.1.3-.1.3-.2.7-.2 1-.3H190.9c.3.1.7.2 1 .4.4.1.7.3 1 .5l.2.2.4.4.4.4.3.3c.4.4.6.8.8 1.4.2.5.3 1 .4 1.5.4 2.1.7 4.1.8 6.2.1 2 .2 4.1.3 6.2v.1c0 .1-.1.2-.2.3-.1.1-.2.2-.4.2-.1 0-.3.1-.5.1h-3.6l-.3-.3v-1.4c0-.7 0-1.4-.1-2.2 0-.8-.1-1.5-.1-2.2 0-.7 0-1.1-.1-1.4v-.7c0-.3-.1-.5-.1-.8 0-.3-.1-.5-.1-.8 0-.2-.1-.5-.1-.7-.1-.5-.2-.9-.5-1.3-.2-.4-.5-.8-.9-1.1-.1 0-.2-.1-.4-.2s-.3-.1-.3-.1h-1.6c-.3 0-.6.1-.8.2-.3.2-.6.5-.8 1-.2.5-.4.9-.6 1.5-.2.5-.3 1.1-.3 1.6-.1.5-.1 1-.1 1.3 0 1 0 2 .1 3.1 0 1 .1 2 .1 3v.5c0 .2-.1.3-.2.4-.4.1-.8.1-1.2.1h-2.5c-.1 0-.2-.1-.3-.2-.1-.1-.2-.1-.2-.2v-4.6c0-1.6-.1-3.1-.3-4.6-.1-.4-.2-.8-.4-1.1-.3-.7-.7-1.3-1.1-1.7-.4-.4-1-.6-1.9-.6-.2 0-.5 0-.7.1-.2.1-.5.2-.6.4-.1 0-.1.1-.3.2-.1.1-.2.2-.4.3l-.3.3-.2.2c-.3.3-.5.7-.5 1.2-.1.5-.2.9-.2 1.3V312.6c0 .3 0 .6.1.9 0 .3.1.6.1.9v.7c0 .3-.2.4-.5.4-.6.1-1.1.1-1.6.1h-2.8c-.3-.4-.4-.9-.4-1.4v-1.3zM217.7 301.2c-.4 0-.8 0-1.2.1-.4.1-.8.2-1.2.4-.4.2-.7.4-1.1.7-.3.3-.5.7-.7 1v.2c.1 0 .2 0 .5-.1.3 0 .4-.1.5-.1H221.5v-.1c0-.2 0-.3-.1-.4-.5-.6-1-1-1.6-1.3-.6-.3-1.3-.4-2.1-.4m-10.5 5.2c0-.7.1-1.3.2-1.8s.3-1.2.5-1.8c0-.1 0-.2.1-.3 0-.1.1-.3.1-.4.1-.2.1-.3.2-.5 0-.2.1-.3.1-.3.1-.4.4-.7.7-1.1.3-.4.6-.7.8-1 .6-.6 1.3-1.1 2-1.5.7-.4 1.5-.7 2.3-1 .5-.2 1-.2 1.4-.2H218.7c.6.1 1.3.3 1.9.6.6.3 1.2.6 1.8 1 .6.4 1.1.8 1.6 1.4.5.5.9 1 1.2 1.6.8 1.4 1.2 2.8 1.2 4.3v.9c0 .3-.1.5-.2.8-.1.2-.2.4-.5.6-.2.1-.5.2-.9.3h-12.5c-.1 0-.1.1-.1.1v.1c.2.9.5 1.6 1 2.2.5.6 1.2 1 2.1 1.2H216.7c.7 0 1.3-.1 2-.2.6-.1 1.2-.4 1.8-.7 0 0 .1-.1.3-.2.2-.1.3-.2.5-.4.2-.1.4-.2.5-.4.2-.1.3-.2.3-.2.1-.1.2-.1.2-.1h.4s.1.1.2.1l.2.2c.1.1.3.2.4.3.1.1.3.2.4.3.1.1.3.2.3.2.2.2.5.3.7.5.3.2.4.4.4.7v.4c0 .1-.1.2-.2.3l-.4.4-.6.6c-.2.2-.4.4-.7.6s-.4.3-.4.4c-.2.2-.5.4-.8.6-.3.2-.6.3-1 .4-.1 0-.2.1-.4.1-.1 0-.3.1-.5.1-.2.1-.4.1-.5.1h-4.4s-.2 0-.3-.1c-.2 0-.3-.1-.4-.1-.3-.1-.6-.1-.9-.2l-.9-.3c-.3-.1-.5-.2-.7-.4-.2-.2-.4-.3-.7-.5-.8-.6-1.4-1.2-2-1.8-.6-.6-1-1.1-1.4-1.8-.4-.6-.6-1.3-.8-2.1 0-.1-.1-1-.1-2M235 307.1v.6c0 .2.1.4.2.6 0 0 .1.1.1.2.1.1.1.2.1.2s0 .1.1.2c0 .1.1.2.1.2.4.6.9 1 1.5 1.3.7.3 1.3.5 2 .5h.7c.2 0 .5 0 .7-.1.5-.2.8-.4 1.2-.8.3-.4.6-.8.8-1.3.2-.5.3-1 .4-1.5.1-.5.1-1 .1-1.4 0-.4-.1-.7-.2-1.1-.1-.4-.3-.7-.5-1-.5-.5-.9-.9-1.5-1.3-.5-.4-1.1-.6-1.8-.6-.3 0-.6 0-.9.1-.3.1-.6.2-.9.4l-1.1 1.1s-.1.1-.1.2c-.1.1-.1.2-.1.2-.1.2-.3.5-.4.9-.2.4-.3.7-.3.9v1.5zm8.5 14.9c-.1-.1-.1-.2-.2-.4 0-.1-.1-.3-.1-.4v-1.4-1.7c0-.5 0-1.1.1-1.7 0-.1 0-.2.1-.5 0-.3.1-.5.1-.8 0-.3.1-.5.1-.8 0-.2.1-.4.1-.5v-.2s-.1.1-.3.2c-.1.1-.3.2-.4.3-.1.1-.3.2-.4.3l-.2.2c-.6.5-1.3.8-2 1-.8.1-1.5.2-2.2.2-1.2 0-2.3-.2-3.3-.7-1-.5-1.9-1.1-2.8-2-.9-.8-1.6-1.7-2-2.7-.5-1-.7-2.1-.7-3.3 0-.6.1-1.3.2-2s.3-1.4.5-2.2.5-1.4.8-2.1c.3-.6.7-1.2 1.1-1.7l1-1c.4-.4.7-.7 1.2-1 .4-.3.8-.5 1.3-.7.4-.2.9-.3 1.3-.3h2.9c.6.1 1.1.4 1.6.7.5.4 1 .7 1.4 1.1 0 0 .1-.1.1-.2s0-.2.1-.3v-.6-.6l.1-.1H243.9c.2 0 .5 0 .7-.1h4.1c.2.1.5.1.6.3.2.1.3.3.4.6V301c0 .5 0 1.1-.1 1.7 0 .7-.1 1.4-.1 2.1 0 .7-.1 1.4-.1 2.1 0 .7-.1 1.2-.1 1.7v12.2l-.1.5h-1.1c-.4 0-.7.1-1.1.1-.4.1-.7.1-1.1.2-.4 0-.7.1-1.1.1h-.7c-.1.4-.4.4-.6.3M252.8 297.7c0-.5.1-.8.4-.9.3-.1.6-.1 1-.1h.5c.2 0 .5 0 .9.1.4 0 .8.1 1.1.1.4 0 .8.1 1.4.2l.1.1v8.5c0 .2.1.4.1.6 0 .2.1.5.1.7 0 .2 0 .4.1.5.1.7.3 1.2.5 1.7.3.5.7.8 1.3 1.1.1 0 .2.1.4.1s.3.1.4.1h.1c.9 0 1.6-.3 2.1-.8.4-.6.7-1.3.9-2.2v-2.4-2.5c0-.7-.1-1.6-.1-2.5v-.4c0-.2 0-.4-.1-.6 0-.2-.1-.4-.1-.6v-.4-.5c0-.3 0-.5.1-.6 0 0 0-.1.1-.1 0-.1.1-.1.1-.1.3-.1.6-.1.8-.1H269.9l.3.3c.1.1.1.3.1.5v.9c0 1.5-.1 3-.2 4.5s-.3 3-.6 4.5c0 0 0 .2-.1.4 0 .2-.1.5-.2.8-.1.3-.1.6-.2 1-.1.3-.1.6-.2.8-.2.7-.4 1.3-.7 1.9-.3.6-.7 1.1-1.2 1.7-.5.5-1 .9-1.5 1.1-.5.2-1.1.4-1.7.6-.1 0-.2 0-.3.1H259.6c-.1 0-.3 0-.5-.1s-.4-.1-.5-.2c-.8-.4-1.6-.8-2.3-1.3-.7-.5-1.4-1.1-2-1.8-.2-.2-.3-.4-.4-.7-.1-.3-.2-.6-.2-.8-.1-.2-.1-.6-.2-1l-.3-1.2c-.1-.4-.2-.8-.2-1.1-.1-.3-.1-.5-.1-.6v-.3-.5-.5-.3-.5c0-.3-.1-.4-.1-.5v-6.7zM274 313.7v-.7-1.6-2.2c0-.8 0-1.6-.1-2.5 0-.8 0-1.6-.1-2.4v-4-.7-.8c0-.3 0-.6.1-1l.3-.1h4.8s.1 0 .1.1l.1.1c0 .1.1.2.1.4s0 .4.1.5l.8 15.7v.1c0 .2 0 .3-.1.4l-.3.3h-5.4l-.2-.3-.2-1.3zm1.3-23.5H277c.1 0 .3.1.5.2l.4.2c.2.1.4.3.6.4.2.1.3.3.6.5.2.3.3.6.4.8 0 .3.1.6.1.9v.8c0 .2-.1.4-.2.6-.2.2-.3.4-.6.6-.2.2-.4.4-.7.5-.2.1-.5.2-.7.2h-.7c-.5 0-1.1-.1-1.6-.3-.5-.2-.9-.6-1.2-1.1 0-.1-.1-.2-.2-.3-.1-.1-.1-.3-.1-.3v-2s0-.2.1-.3c.1-.2.2-.3.2-.4.2-.2.4-.4.6-.7.3-.1.5-.3.8-.3M283.6 314v-1.1-5.6-1.7-1.1-1.3c0-.6 0-1.4-.1-2.3 0-.9-.1-1.8-.1-2.7 0-1-.1-1.9-.1-2.7 0-.9-.1-1.6-.1-2.2v-2s0-.1.1-.2c0-.1 0-.1.1-.1l.8-.1h4c.1 0 .2.1.2.2.1.1.1.2.1.3v5.1c0 .5 0 1.1.1 1.6 0 .6.1 1.1.1 1.6v1.5c0 .1 0 .2.1.3v.2c.1.9.2 1.9.2 2.9V315c0 .2-.1.3-.2.4-.1.1-.2.1-.3.2-.1 0-.3 0-.4.1h-.4-.3c-.1 0-.3 0-.5.1H284l-.2-.3-.2-1.5zM294.6 292.7v-.4c0-.1.1-.2.1-.4.1-.1.2-.3.3-.6.1-.2.3-.6.4-1 .1-.3.2-.5.2-.6 0-.1 0-.2.1-.4 0-.2.1-.3.1-.4 0-.1.2-.1.4-.1.8 0 1.3.1 1.6.2.3.1.4.3.4.6s-.1.7-.3 1.2c-.2.5-.5 1.1-.7 2 0 .3-.1.5-.3.6-.1.1-.2.1-.4 0-.1 0-.3-.1-.4-.1-.1 0-.2-.1-.4-.2-.1-.1-.3-.1-.4-.1 0 0-.1 0-.3-.1-.2 0-.3-.1-.3-.1s0-.1-.1-.1c0 .1 0 .1 0 0m-2.1 21v-.7-1.6-2.2c0-.8 0-1.6-.1-2.5 0-.8 0-1.6-.1-2.4v-4-.7-.8c0-.3 0-.6.1-1l.3-.1h4.8s.1 0 .1.1l.1.1c0 .1.1.2.1.4s0 .4.1.5l.8 15.7v.1c0 .2 0 .3-.1.4l-.3.3H293.1l-.2-.3-.4-1.3zM308.3 306.5c0 .5.1 1 .4 1.5.2.5.5.9.9 1.3s.8.7 1.3 1c.5.2 1 .4 1.5.4s.9-.1 1.3-.3c.4-.2.8-.5 1.1-.8.3-.3.6-.7.8-1.1.2-.4.4-.9.5-1.3 0 0 0-.1.1-.3 0-.1 0-.1.1-.2v-2.2c0-.2-.1-.3-.1-.4l-.2-.4c-.2-.3-.4-.6-.6-.8-.2-.2-.4-.4-.8-.7-.4-.2-.7-.4-1.1-.5-.3-.1-.7-.2-1.2-.2-.7 0-1.4.2-1.9.5s-.9.7-1.2 1.2c-.3.5-.5 1-.7 1.7-.1.3-.2 1-.2 1.6m-6.7 5.9c0-1.8 0-3.5.1-5.3 0-1.8.1-3.5.2-5.3.1-1.8.1-3.6.1-5.3v-5.3c.8 0 1.5-.1 2.3-.2.8-.1 1.5-.1 2.3-.1h1.2c.2.1.3.3.4.6v1.6c0 .9 0 1.8-.1 2.7 0 .9-.2 1.7-.5 2.6.1 0 .2-.1.3-.2.1-.1.3-.3.5-.4.2-.1.3-.3.5-.4l.3-.3c.5-.4 1.1-.7 1.9-.8.8-.1 1.5-.2 2.1-.2.7 0 1.4.1 1.9.3.6.2 1.2.4 1.8.7.1 0 .2.1.4.2s.3.2.3.2c1 .7 1.9 1.5 2.6 2.4.7.8 1.2 1.9 1.6 3 0 .1 0 .2.1.3 0 .1.1.2.1.3v1.4c0 1.3-.2 2.5-.5 3.8-.4 1.3-.9 2.5-1.6 3.5-.7 1.1-1.6 1.9-2.7 2.6-1.1.7-2.3 1-3.7 1H312c-.2 0-.3 0-.4-.1-.5-.2-1-.4-1.5-.7-.5-.3-.9-.6-1.3-1l-.1.1c0 .1 0 .1-.1.1V315.6c0 .1-.1.2-.3.2-.2 0-.3.1-.3.1h-2.8H302.8c-.3 0-.5-.1-.7-.2-.2-.1-.3-.3-.4-.5-.1-.2-.1-.4-.1-.6v-2.2zM324.7 298.3v-.4c0-.2.1-.3.1-.4l.1-.1.1-.1c.4-.1.8-.2 1.2-.2H329c.3 0 .4 0 .5.1.3.1.5.2.5.4v.8h.1c.1 0 .3-.1.5-.2s.5-.2.8-.4c.3-.1.5-.2.8-.4.2-.1.4-.2.5-.2.4-.2.8-.3 1.1-.3.4 0 .8-.1 1.1-.1.4 0 .9 0 1.4.1.5.1.9.2 1.4.4.4.2.9.4 1.2.7.4.3.7.6.9 1.1.1.2.2.3.2.3 0 .1.1.2.1.3 0 .2-.1.4-.3.6-.2.2-.4.3-.5.4 0 0-.1.1-.3.2-.2.1-.4.3-.6.4-.2.2-.4.3-.6.5l-.4.4c-.2.2-.4.3-.6.4-.2.1-.4.1-.7.1-.3 0-.5 0-.8-.1-.2-.1-.5-.2-.7-.3-.2-.1-.5-.2-.7-.3-.2-.1-.5-.1-.8-.1h-.3c-.1 0-.2 0-.3.1-.6.5-1 .9-1.3 1.4-.3.5-.5 1-.6 1.5-.1.5-.2 1.1-.2 1.6v3.5c0 .1.1.4.1.9s.1 1 .2 1.6c.1.6.1 1.1.2 1.6 0 .5.1.8.1.9v.4c0 .1 0 .1-.1.1h-5.1c-.1 0-.1 0-.1-.1s0-.2-.1-.4c0-.2-.1-.4-.1-.5v-2.7-.9-1.6c0-.6 0-1.2-.1-1.9 0-.7 0-1.3-.1-1.9v-1.6-.9-.4c0-.2-.1-.4-.1-.7 0-.2-.1-.5-.1-.7V299v-.1-.3-.2c-.4 0-.4-.1-.4-.1M343 313.7v-.7-1.6-2.2c0-.8 0-1.6-.1-2.5 0-.8 0-1.6-.1-2.4v-4-.7-.8c0-.3 0-.6.1-1l.3-.1h4.8s.1 0 .1.1l.1.1c0 .1.1.2.1.4s0 .4.1.5l.8 15.7v.1c0 .2 0 .3-.1.4l-.3.3h-5.4l-.2-.3-.2-1.3zm1.2-23.5H345.9c.1 0 .3.1.5.2l.4.2c.2.1.4.3.6.4.2.1.3.3.6.5.2.3.3.6.4.8 0 .3.1.6.1.9v.8c0 .2-.1.4-.2.6-.2.2-.3.4-.6.6-.2.2-.4.4-.7.5-.2.1-.5.2-.7.2h-.7c-.5 0-1.1-.1-1.6-.3-.5-.2-.9-.6-1.2-1.1 0-.1-.1-.2-.2-.3-.1-.1-.1-.3-.1-.3v-2s0-.2.1-.3c.1-.2.2-.3.2-.4.2-.2.4-.4.6-.7.4-.1.6-.3.8-.3M357.6 305.1v.7c0 .2 0 .4.1.7 0 .1.1.2.1.3 0 .2.1.3.2.5s.1.4.2.6c.1.2.1.3.1.4 0 0 0 .1.1.1s.1.1.1.1c0 .1.1.1.2.3.1.1.2.2.3.4l.3.3.2.2s.1 0 .3.1c.1.1.3.2.4.2.2.1.5.2.7.3.2 0 .5.1.7.1 1 0 1.9-.2 2.5-.7.7-.4 1.2-1.1 1.6-2.1.2-.4.2-.8.2-1.3V305v-.2-.2c-.2-.9-.5-1.6-1.1-2.2-.5-.6-1.2-1-2.1-1.3-.2-.1-.4-.1-.7-.1h-.7c-1.2 0-2.2.3-2.9 1-.4.9-.8 1.9-.8 3.1m-5.6-1.2c.3-1.4.8-2.5 1.4-3.5.7-1 1.5-1.8 2.4-2.4.9-.6 2-1.1 3.2-1.4 1.2-.3 2.4-.5 3.7-.5h.9c1.3.1 2.3.5 3.3 1.1.9.6 1.7 1.3 2.3 2.2.6.9 1.1 1.9 1.4 3 .3 1.1.5 2.3.5 3.4 0 .6 0 1.2-.1 1.8 0 .6-.1 1.2-.2 1.8-.2.8-.4 1.5-.8 2.1-.4.6-.8 1.2-1.4 1.9-.2.3-.5.5-.8.7-.4.2-.7.5-1.2.7-.4.2-.8.4-1.3.5-.4.1-.8.2-1.1.2h-1.4c-.8 0-1.5 0-2.2-.1-.7-.1-1.4-.2-2.2-.4 0 0-.1 0-.2-.1-.1 0-.2-.1-.2-.1-.1 0-.2-.1-.3-.1-.1-.1-.3-.1-.5-.2s-.3-.2-.5-.2c-.1-.1-.2-.1-.3-.2 0 0-.1-.1-.2-.1s-.2-.1-.2-.1l-.4-.4-.6-.6-.6-.6-.4-.4c-.4-.4-.8-.9-1-1.4-.3-.5-.5-1.1-.7-1.7-.2-.6-.3-1.2-.3-1.8-.1-.6-.1-1.2-.1-1.8v-1.3zM371.2 47.5c0 25.1-3.7 50.4-10.9 75.9-7.3 25.6-19.3 48.9-36.1 69.7-16.7 20.9-38.7 37.9-65.8 50.9-27.2 13.1-60.1 19.6-98.7 19.6-49.1 0-88-9.4-116.7-28.2C14.4 216.6 0 185.8 0 143c0-29.2 9.1-53.2 27.4-72 18.2-18.7 41.7-33.4 70.5-43.8C126.6 16.7 158.5 9.6 193.4 6 228.3 2.4 262.5.5 295.9.5h75.2v47z"/><path fill="#77BC1F" d="M271.1 130.9c0-1.9.3-3.9.8-5.9.6-2 1.5-3.8 2.8-5.4 1.3-1.6 3-2.9 5.1-4 2.1-1 4.7-1.5 7.7-1.5 3.8 0 6.8.7 9.1 2.2 2.2 1.5 3.4 3.9 3.4 7.2 0 2.3-.7 4.1-2.1 5.6-1.4 1.5-3.2 2.6-5.5 3.4-2.2.8-4.7 1.4-7.4 1.6-2.7.3-5.4.4-8 .4h-5.8v-3.6zm-8.9 23.1c.9 2.3 2.4 4.4 4.3 6.1 1.9 1.8 4.4 3.2 7.5 4.3 3 1.1 6.7 1.6 10.9 1.6 4.1 0 8.1-.7 12.2-2.1 4.1-1.4 7.6-3.5 10.7-6.4l-1.5-1.5.1.1-.5-.5-.3-.4c-3.6-3.5-7.1-2.3-9-1.2-.6.4-1.3.7-2 1.1-1.3.6-2.7 1.1-4.3 1.5-1.6.4-3.4.6-5.5.6-2.4 0-4.4-.3-6.1-1-1.7-.7-3.1-1.6-4.3-2.8-1.1-1.2-2-2.5-2.6-4-.6-1.5-.8-2.9-.8-4.4v-2.4h8c4.4 0 8.5-.3 12.4-1 3.9-.7 7.2-1.8 10.1-3.4 2.9-1.6 5.2-3.6 6.8-6.1 1.7-2.5 2.5-5.6 2.5-9.4 0-2.8-.5-5.3-1.6-7.5-1.1-2.1-2.5-4-4.3-5.4-1.8-1.5-4-2.6-6.4-3.3-2.4-.7-7.2-1.1-11.7-1.1-18.5 0-26 12.6-26 24.3v17c0 2.5.5 4.9 1.4 7.3M147.6 139.9c0 1.9-.3 3.9-.8 5.9-.6 2-1.5 3.8-2.8 5.4-1.3 1.6-3 2.9-5.1 4-2.1 1-4.7 1.5-7.7 1.5-3.8 0-6.8-.7-9.1-2.2-2.2-1.5-3.4-3.9-3.4-7.2 0-2.3.7-4.1 2.1-5.6 1.4-1.5 3.2-2.6 5.5-3.4 2.2-.8 4.7-1.4 7.4-1.6 2.7-.3 5.4-.4 8-.4h5.8v3.6zm4.5-29.2c-1.9-1.8-4.4-3.2-7.5-4.3-3-1.1-6.7-1.6-10.9-1.6-4.1 0-8.1.7-12.2 2.1-4.1 1.4-7.6 3.5-10.7 6.4l1.5 1.5-.1-.1.5.5.3.4c3.6 3.5 7.2 2.3 9 1.2.6-.4 1.3-.7 2-1.1 1.3-.6 2.7-1.1 4.3-1.5 1.6-.4 3.4-.6 5.5-.6 2.4 0 4.4.3 6.1 1 1.7.7 3.1 1.6 4.3 2.8 1.1 1.2 2 2.5 2.6 4 .6 1.5.8 2.9.8 4.4v2.4h-8c-4.4 0-8.5.3-12.4 1-3.9.7-7.2 1.8-10.1 3.4-2.9 1.6-5.2 3.6-6.8 6.1-1.7 2.5-2.5 5.6-2.5 9.4 0 2.8.5 5.3 1.6 7.5 1.1 2.1 2.5 4 4.3 5.4 1.8 1.5 4 2.6 6.4 3.3 2.4.7 7.2 1.1 11.7 1.1 18.5 0 26-12.6 26-24.3v-17c0-2.5-.5-4.9-1.4-7.2-.9-2.4-2.4-4.5-4.3-6.2M93.9 110.1c-1.9-1.8-4.1-3.1-6.7-4-2.6-.9-5.2-1.3-8-1.3-4.5 0-8.4 1-11.8 2.9-3.4 1.9-6 4.8-7.4 7.9v-1.7c-.2-6.4-5-7.5-7-7.6h-3.9V156c.1 7.2 5.7 8 7.4 8H60v-29.7c0-3.3.4-6.2 1.2-8.6.8-2.4 2-4.4 3.4-6 1.5-1.6 3.2-2.7 5.1-3.5 1.9-.7 4.1-1.1 6.3-1.1 1.7 0 3.4.3 4.9.8 1.6.5 3 1.4 4.2 2.6 1.2 1.2 2.2 2.7 2.9 4.6.7 1.9 1.1 4.2 1.1 6.9v26c.1 7.2 5.7 8 7.4 8h3.5v-37.1c0-3.8-.6-7.1-1.7-9.9-1-2.9-2.5-5.2-4.4-6.9M245.3 106.3h-3.5V136c0 3.3-.4 6.2-1.2 8.6-.8 2.4-2 4.4-3.4 6-1.5 1.6-3.2 2.7-5.1 3.5-1.9.7-4.1 1.1-6.3 1.1-1.7 0-3.4-.3-4.9-.8-1.6-.5-3-1.4-4.2-2.6-1.2-1.2-2.2-2.7-2.9-4.6-.7-1.9-1.1-4.2-1.1-6.9v-26.1c-.1-7.2-5.7-8-7.4-8h-3.5v37.1c0 3.8.6 7.1 1.7 9.9 1.1 2.8 2.7 5.1 4.6 6.9 1.9 1.8 4.1 3.1 6.7 4 2.6.9 5.2 1.3 8 1.3 4.5 0 8.4-1 11.8-2.9 3.4-1.9 6-4.8 7.4-7.9v1.7c.2 6.4 5 7.5 7 7.6h3.9v-49.7c-.3-7.2-5.9-7.9-7.6-7.9M185 106.3h-8.1v-8.1c0-7.4-5.7-8.1-7.4-8.1H166v55.7c0 2.4.1 4.7.3 7 .2 2.3.9 4.4 1.9 6.3 1.1 1.9 2.8 3.4 5.1 4.6 2.2 1.1 5.2 1.7 9 1.7h2.6c7.2-.1 7.9-5.7 8-7.4v-2.1h-8.3c-1.8-.1-3.3-.4-4.3-1.1-1.1-.8-1.9-1.8-2.4-3-.5-1.3-1-2.7-1-4.3-.1-1.6 0-31.7 0-31.7H193v-2.1c-.1-1.7-.8-7.4-8-7.4"/><path fill="#FFF" d="M370.5 46.8c0 25-3.7 50.2-10.9 75.6-7.3 25.5-19.3 48.7-35.9 69.5-16.6 20.8-38.5 37.7-65.5 50.7-27.1 13-59.8 19.5-98.3 19.5-48.9 0-87.6-9.4-116.2-28.1C15.1 215.3.8 184.6.8 141.9c0-29.1 9.1-53 27.3-71.8 18.2-18.7 41.6-33.2 70.2-43.7C126.8 16 158.6 9 193.4 5.4 228.3 1.8 262.3 0 295.6 0h74.9v46.8z"/><path fill="#77BC1F" d="M262 152.8c.9 2.3 2.4 4.3 4.3 6.1 1.9 1.8 4.4 3.2 7.5 4.2 3 1.1 6.6 1.6 10.8 1.6 4 0 8.1-.7 12.1-2.1 4-1.4 7.6-3.5 10.7-6.4l-1.4-1.5.1.1c-.1-.2-.3-.3-.5-.5l-.3-.4c-3.6-3.5-7.1-2.3-9-1.2-.6.4-1.3.7-1.9 1.1-1.3.6-2.7 1.1-4.3 1.5-1.6.4-3.4.6-5.5.6-2.3 0-4.4-.3-6.1-1-1.7-.7-3.1-1.6-4.2-2.8-1.1-1.2-2-2.5-2.5-3.9-.6-1.5-.8-2.9-.8-4.4v-2.4h8c4.4 0 8.5-.3 12.3-1 3.8-.7 7.2-1.8 10.1-3.4 2.9-1.6 5.1-3.6 6.8-6.1 1.7-2.5 2.5-5.6 2.5-9.3 0-2.8-.5-5.3-1.6-7.5-1.1-2.1-2.5-3.9-4.3-5.4-1.8-1.5-3.9-2.5-6.4-3.3-2.4-.7-7.2-1.1-11.6-1.1-18.4 0-25.9 12.6-25.9 24.2v17c-.2 2.6.2 5 1.1 7.3m8.8-22.9c0-1.9.3-3.9.8-5.9.6-2 1.5-3.8 2.8-5.4 1.3-1.6 3-2.9 5.1-3.9 2.1-1 4.7-1.5 7.6-1.5 3.8 0 6.8.7 9 2.2 2.2 1.5 3.3 3.8 3.3 7.2 0 2.3-.7 4.1-2.1 5.6-1.4 1.5-3.2 2.6-5.5 3.4-2.2.8-4.7 1.4-7.4 1.6-2.7.3-5.3.4-7.9.4h-5.8v-3.7zM152.3 109.7c-1.9-1.8-4.4-3.2-7.5-4.2-3-1.1-6.6-1.6-10.9-1.6-4 0-8.1.7-12.1 2.1-4 1.4-7.6 3.5-10.7 6.4l1.5 1.5-.1-.1.5.5.3.4c3.6 3.5 7.1 2.3 9 1.2.6-.4 1.3-.7 1.9-1.1 1.3-.6 2.7-1.1 4.3-1.5 1.6-.4 3.4-.6 5.5-.6 2.3 0 4.4.3 6.1 1 1.7.7 3.1 1.6 4.2 2.8 1.1 1.2 2 2.5 2.5 3.9.6 1.5.8 2.9.8 4.4v2.4h-8c-4.4 0-8.5.3-12.3 1-3.8.7-7.2 1.8-10.1 3.4-2.9 1.6-5.1 3.6-6.8 6.1-1.7 2.5-2.5 5.6-2.5 9.3 0 2.8.5 5.3 1.6 7.5 1.1 2.1 2.5 3.9 4.3 5.4 1.8 1.5 3.9 2.5 6.4 3.3 2.4.7 7.2 1.1 11.6 1.1 18.4 0 25.9-12.6 25.9-24.2v-17c0-2.5-.5-4.9-1.4-7.2-.6-2.4-2-4.4-4-6.2m-4.5 29.1c0 1.9-.3 3.9-.8 5.9-.6 2-1.5 3.8-2.8 5.4-1.3 1.6-3 2.9-5.1 3.9-2.1 1-4.7 1.5-7.6 1.5-3.8 0-6.8-.7-9-2.2-2.2-1.5-3.3-3.8-3.3-7.2 0-2.3.7-4.1 2.1-5.6 1.4-1.4 3.2-2.6 5.5-3.4 2.2-.8 4.7-1.4 7.4-1.6 2.7-.3 5.3-.4 7.9-.4h5.8v3.7zM94.4 109.1c-1.9-1.8-4.1-3.1-6.7-3.9-2.5-.8-5.2-1.3-7.9-1.3-4.4 0-8.4 1-11.8 2.8-3.4 1.9-6 4.8-7.4 7.9v-1.7c-.2-6.4-5-7.4-7-7.6h-3.9v49.5c.1 7.2 5.7 7.9 7.4 8h3.5v-29.6c0-3.3.4-6.2 1.2-8.6.8-2.4 1.9-4.4 3.4-6 1.5-1.6 3.2-2.7 5.1-3.5 1.9-.7 4-1.1 6.3-1.1 1.7 0 3.3.3 4.9.8 1.6.5 3 1.4 4.2 2.5 1.2 1.2 2.2 2.7 2.9 4.6.7 1.9 1.1 4.2 1.1 6.8v26c.1 7.2 5.7 7.9 7.4 8h3.5v-37c0-3.8-.6-7.1-1.7-9.9-1.1-2.6-2.6-4.9-4.5-6.7M245.1 105.4h-3.5V135c0 3.3-.4 6.2-1.2 8.6-.8 2.4-1.9 4.4-3.4 6-1.5 1.6-3.2 2.7-5.1 3.5-1.9.7-4 1.1-6.3 1.1-1.7 0-3.3-.3-4.9-.8-1.6-.5-3-1.4-4.2-2.5-1.2-1.2-2.2-2.7-2.9-4.6-.7-1.9-1.1-4.2-1.1-6.8v-26c-.1-7.2-5.7-7.9-7.4-8h-3.5v37c0 3.8.6 7.1 1.7 9.9 1.1 2.8 2.7 5.1 4.6 6.8 1.9 1.8 4.1 3.1 6.7 3.9 2.5.8 5.2 1.3 7.9 1.3 4.4 0 8.4-1 11.8-2.8 3.4-1.9 6-4.8 7.4-7.9v1.7c.2 6.4 5 7.4 7 7.6h3.9v-49.5c-.1-7.4-5.8-8.1-7.5-8.1M185.1 105.4h-8v-8c0-7.3-5.7-8-7.4-8.1h-3.5v55.5c0 2.3.1 4.7.3 7 .2 2.3.8 4.4 1.9 6.2 1.1 1.9 2.8 3.4 5.1 4.6 2.2 1.1 5.2 1.7 9 1.7h2.7c7.2-.1 7.9-5.7 8-7.4v-2.1h-8.3c-1.8-.1-3.3-.4-4.2-1.1-1.1-.8-1.9-1.8-2.4-3-.5-1.3-1-2.7-1-4.2-.1-1.6 0-31.6 0-31.6h16v-2c-.3-1.8-1-7.5-8.2-7.5"/></svg>