<svg id="Layer_1" xmlns="http://www.w3.org/2000/svg" viewBox="0 0 235 81"><style>.st0{fill:#76b72a}.st1{fill:#fff}</style><path class="st0" d="M113.2 15c0 7.6-1.1 15.2-3.3 22.9-2.2 7.7-5.8 14.7-10.9 21-5 6.3-11.6 11.4-19.8 15.3-8.2 3.9-18.1 5.9-29.7 5.9-14.8 0-26.5-2.8-35.2-8.5-8.7-5.7-13-14.9-13-27.9 0-8.8 2.7-16 8.3-21.7 5.5-5.6 12.6-10 21.3-13.1 8.6-3.1 18.2-5.3 28.8-6.4C70.2 1.4 80.5.8 90.6.8h22.7V15z"/><path class="st1" d="M83.1 40.1c0-.6.1-1.2.3-1.8.2-.6.5-1.1.8-1.6.4-.5.9-.9 1.5-1.2.6-.3 1.4-.5 2.3-.5 1.1 0 2.1.2 2.7.7.7.4 1 1.2 1 2.2 0 .7-.2 1.2-.6 1.7-.4.4-1 .8-1.7 1-.7.2-1.4.4-2.2.5-.8.1-1.6.1-2.4.1H83v-1.1zm-2.7 7c.3.7.7 1.3 1.3 1.9.6.5 1.3 1 2.3 1.3.9.3 2 .5 3.3.5 1.2 0 2.4-.2 3.7-.6 1.2-.4 2.3-1.1 3.2-1.9l-.4-.5c0-.1-.1-.1-.1-.1l-.1-.1c-1.1-1.1-2.2-.7-2.7-.4l-.6.3c-.4.2-.8.3-1.3.5-.5.1-1 .2-1.7.2s-1.3-.1-1.8-.3c-.5-.2-.9-.5-1.3-.8-.3-.4-.6-.8-.8-1.2-.2-.4-.3-.9-.3-1.3v-.7h2.4c1.3 0 2.6-.1 3.7-.3 1.2-.2 2.2-.5 3-1 .9-.5 1.6-1.1 2.1-1.9.5-.8.8-1.7.8-2.8 0-.9-.2-1.6-.5-2.3s-.8-1.2-1.3-1.6c-.5-.4-1.2-.8-1.9-1-.7-.2-2.2-.3-3.5-.3-5.6 0-7.9 3.8-7.9 7.3v5.1c0 .6.1 1.3.4 2M45.8 42.9c0 .6-.1 1.2-.3 1.8-.2.6-.5 1.1-.8 1.6-.4.5-.9.9-1.5 1.2-.6.3-1.4.5-2.3.5-1.1 0-2.1-.2-2.7-.7-.7-.4-1-1.2-1-2.2 0-.7.2-1.2.6-1.7.4-.4 1-.8 1.7-1 .7-.2 1.4-.4 2.2-.5.8-.1 1.6-.1 2.4-.1h1.8v1.1zm1.4-8.9c-.6-.5-1.3-1-2.3-1.3-.9-.3-2-.5-3.3-.5-1.2 0-2.4.2-3.7.6-1.2.4-2.3 1.1-3.2 1.9l.4.5c0 .1.1.1.1.1l.1.1c1.1 1.1 2.2.7 2.7.4l.6-.3c.4-.2.8-.3 1.3-.5.5-.1 1-.2 1.7-.2s1.3.1 1.8.3c.5.2.9.5 1.3.8.3.4.6.8.8 1.2.2.4.3.9.3 1.3v.7h-2.4c-1.3 0-2.6.1-3.7.3-1.2.2-2.2.5-3 1-.9.5-1.6 1.1-2.1 1.9-.5.8-.8 1.7-.8 2.8 0 .9.2 1.6.5 2.3s.8 1.2 1.3 1.6c.5.4 1.2.8 1.9 1 .7.2 2.2.3 3.5.3 5.6 0 7.9-3.8 7.9-7.3v-5.1c0-.8-.1-1.5-.4-2.2-.3-.5-.7-1.1-1.3-1.7M29.6 33.9c-.6-.5-1.2-.9-2-1.2-.8-.3-1.6-.4-2.4-.4-1.3 0-2.5.3-3.6.9-1 .6-1.8 1.5-2.2 2.4V35c-.1-1.9-1.5-2.2-2.1-2.3h-1.2v15c0 2.2 1.7 2.4 2.2 2.4h1.1v-9c0-1 .1-1.9.4-2.6.2-.7.6-1.3 1-1.8s1-.8 1.5-1c.6-.2 1.2-.3 1.9-.3.5 0 1 .1 1.5.2.5.2.9.4 1.3.8s.7.8.9 1.4c.2.6.3 1.3.3 2.1v7.9c0 2.2 1.7 2.4 2.2 2.4h1.1V38.9c0-1.2-.2-2.1-.5-3-.3-.8-.8-1.5-1.4-2M75.3 32.7h-1.1v9c0 1-.1 1.9-.4 2.6-.2.7-.6 1.3-1 1.8s-1 .8-1.5 1-1.2.3-1.9.3c-.5 0-1-.1-1.5-.2-.5-.2-.9-.4-1.3-.8s-.7-.8-.9-1.4c-.2-.6-.3-1.3-.3-2.1V35c0-2.2-1.7-2.4-2.2-2.4h-1.1v11.2c0 1.2.2 2.1.5 3 .3.8.8 1.5 1.4 2.1.6.5 1.2.9 2 1.2.8.3 1.6.4 2.4.4 1.3 0 2.5-.3 3.6-.9 1-.6 1.8-1.5 2.2-2.4v.5c.1 1.9 1.5 2.2 2.1 2.3h1.2V35c0-2-1.7-2.3-2.2-2.3M57.1 32.7h-2.4v-2.4c0-2.2-1.7-2.4-2.2-2.5h-1v16.8c0 .7 0 1.4.1 2.1.1.7.3 1.3.6 1.9.3.6.8 1 1.5 1.4.7.3 1.6.5 2.7.5h.8c2.2 0 2.4-1.7 2.4-2.2v-.6H57c-.6 0-1-.1-1.3-.3-.3-.2-.6-.5-.7-.9-.2-.4-.3-.8-.3-1.3v-9.6h4.8V35c0-.5-.2-2.3-2.4-2.3"/><path class="st1" d="M80.3 46.8c.3.7.7 1.3 1.3 1.8.6.5 1.3 1 2.2 1.3.9.3 2 .5 3.3.5 1.2 0 2.4-.2 3.7-.6 1.2-.4 2.3-1.1 3.2-1.9l-.4-.5c0-.1-.1-.1-.1-.1l-.1-.1c-1.1-1.1-2.1-.7-2.7-.4l-.6.3c-.4.2-.8.3-1.3.5-.5.1-1 .2-1.7.2s-1.3-.1-1.8-.3c-.5-.2-.9-.5-1.3-.8-.3-.4-.6-.8-.8-1.2-.1-.5-.2-1-.2-1.4v-.7h2.4c1.3 0 2.6-.1 3.7-.3 1.2-.2 2.2-.5 3-1 .9-.5 1.5-1.1 2-1.8.5-.8.7-1.7.7-2.8 0-.9-.2-1.6-.5-2.2-.3-.6-.7-1.2-1.3-1.6-.5-.4-1.2-.8-1.9-1-.7-.2-2.2-.3-3.5-.3-5.6 0-7.8 3.8-7.8 7.3v4.9c.1.7.3 1.5.5 2.2m2.7-7c0-.6.1-1.2.3-1.8.2-.6.5-1.1.8-1.6.4-.5.9-.9 1.5-1.2.6-.3 1.4-.5 2.3-.5 1.1 0 2.1.2 2.7.7.7.4 1 1.2 1 2.2 0 .7-.2 1.2-.6 1.7-.4.4-1 .8-1.6 1-.7.2-1.4.4-2.2.5-.8.1-1.6.1-2.4.1H83v-1.1zM47.3 33.8c-.6-.5-1.3-1-2.2-1.3-.9-.3-2-.5-3.3-.5-1.2 0-2.4.2-3.7.6-1.2.4-2.3 1.1-3.2 1.9l.4.5c0 .1.1.1.1.1l.1.1c1.1 1.1 2.1.7 2.7.4l.6-.3c.4-.2.8-.3 1.3-.5.5-.1 1-.2 1.7-.2s1.3.1 1.8.3c.5.2.9.5 1.3.8.3.4.6.8.8 1.2.2.4.3.9.3 1.3v.8h-2.4c-1.3 0-2.6.1-3.7.3-1.2.2-2.2.5-3 1-.9.5-1.5 1.1-2 1.8-.7.9-.9 1.8-.9 2.9 0 .9.2 1.6.5 2.2.3.6.7 1.2 1.3 1.6.5.4 1.2.8 1.9 1 .7.2 2.2.3 3.5.3 5.6 0 7.8-3.8 7.8-7.3v-5.1c0-.8-.1-1.5-.4-2.2-.3-.6-.8-1.2-1.3-1.7m-1.4 8.7c0 .6-.1 1.2-.3 1.8-.2.6-.5 1.1-.8 1.6-.4.5-.9.9-1.5 1.2-.6.3-1.4.5-2.3.5-1.1 0-2.1-.2-2.7-.7-.7-.4-1-1.2-1-2.2 0-.7.2-1.2.6-1.7.4-.4 1-.8 1.6-1 .7-.2 1.4-.4 2.2-.5.8-.1 1.6-.1 2.4-.1h1.8v1.1zM29.8 33.6c-.6-.5-1.2-.9-2-1.2-.8-.3-1.6-.4-2.4-.4-1.3 0-2.5.3-3.5.9-1 .6-1.8 1.4-2.2 2.4v-.5c-.1-1.9-1.5-2.2-2.1-2.3h-1.2v14.9c0 2.2 1.7 2.4 2.2 2.4h1.1v-8.9c0-1 .1-1.9.4-2.6.2-.7.6-1.3 1-1.8s1-.8 1.5-1c.6-.2 1.2-.3 1.9-.3.5 0 1 .1 1.5.2.5.2.9.4 1.3.8s.7.8.9 1.4c.2.6.3 1.3.3 2.1v7.8c0 2.2 1.7 2.4 2.2 2.4h1.1V38.6c0-1.1-.2-2.1-.5-3-.5-.8-.9-1.5-1.5-2M75.2 32.5h-1.1v8.9c0 1-.1 1.9-.4 2.6-.2.7-.6 1.3-1 1.8s-1 .8-1.5 1c-.6.2-1.2.3-1.9.3-.5 0-1-.1-1.5-.2-.5-.2-.9-.4-1.3-.8s-.7-.8-.9-1.4c-.2-.6-.3-1.3-.3-2.1v-7.8c0-2.2-1.7-2.4-2.2-2.4H62v11.1c0 1.1.2 2.1.5 3 .3.8.8 1.5 1.4 2.1.6.5 1.2.9 2 1.2.8.3 1.6.4 2.4.4 1.3 0 2.5-.3 3.5-.9 1-.6 1.8-1.4 2.2-2.4v.5c.1 1.9 1.5 2.2 2.1 2.3h1.2V34.9c.2-2.2-1.5-2.4-2.1-2.4M57.1 32.5h-2.4V30c0-2.2-1.7-2.4-2.2-2.4h-1v16.7c0 .7 0 1.4.1 2.1.1.7.3 1.3.6 1.9.3.6.8 1 1.5 1.4.6.3 1.6.5 2.7.5h.8c2.2 0 2.4-1.7 2.4-2.2v-.6H57c-.5 0-1-.1-1.3-.3-.3-.2-.6-.5-.7-.9-.2-.4-.3-.8-.3-1.3v-9.5h4.8v-.6c0-.6-.2-2.3-2.4-2.3"/><g><path class="st0" d="M121.9 45c0-.2 0-.2.1-.2h1.5s.1 0 .1.1.1.1.1.2.1.1.1.2.1.1.1.1 0 .1.1.2c0 .1.1.2.1.3 0 .1.1.2.1.2 0 .1.1.1.1.2l.3.6c.1.2.2.4.4.6l.3-.6c.1-.2.2-.4.3-.5 0 0 0-.1.1-.1 0-.1.1-.1.1-.2s.1-.1.1-.2.1-.1.1-.1 0-.1.1-.1c0-.1.1-.1.1-.2s.1-.1.1-.2.1-.1.1-.1c0-.1.1-.1.1-.2s.1-.1.2-.1H128.1s.1 0 .1.1v.1c0 .2 0 .3-.1.5s-.1.3-.2.5c0 0 0 .1-.1.1 0 .1 0 .1-.1.2 0 .1-.1.1-.1.2v.1c0 .1-.1.2-.2.5-.1.2-.2.5-.3.7-.1.2-.2.5-.3.7-.1.2-.2.4-.2.5v.1c0 .1 0 .1-.1.2 0 .1-.1.1-.1.2v.2s0 .1-.1.1c0 0 0 .1-.1.1v.2s0 .1-.1.1c0 0 0 .1-.1.1v.1h-.8-.2-.1-.1c-.1 0-.1 0-.1-.1s-.1-.1-.1-.2c-.1-.1-.1-.3-.2-.4-.1-.1-.1-.3-.2-.4l-.6-1.2c-.2-.4-.4-.8-.5-1.2 0 0 0-.1-.1-.2 0-.1-.1-.2-.1-.3 0-.1-.1-.2-.1-.3 0-.1-.1-.2-.1-.2s0-.1-.1-.2c0-.1-.1-.2-.1-.3 0-.1-.1-.2-.1-.3-.5-.1-.5-.1-.5-.2M129.1 49.8v-.2-.5-.7-.7-.7-1.2-.2-.3-.3h1.5v.2l.2 4.7v.1s0 .1-.1.1h-1.5l-.1-.1v-.2zm.4-7.1h.6c.1 0 .1.1.1.1.1 0 .1.1.2.1l.2.2c.1.1.1.2.1.3v.5c0 .1 0 .1-.1.2 0 .1-.1.1-.2.2l-.2.2c-.1 0-.1.1-.2.1h-.2c-.2 0-.3 0-.5-.1s-.3-.2-.4-.3v-.1-.7-.1c0-.1.1-.1.1-.1 0-.1.1-.1.2-.2.1-.2.2-.3.3-.3M131.4 45c0-.2 0-.2.1-.2h1.5s.1 0 .1.1.1.1.1.2.1.1.1.2.1.1.1.1 0 .1.1.2c0 .1.1.2.1.3 0 .1.1.2.1.2 0 .1.1.1.1.2l.3.6c.1.2.2.4.4.6l.3-.6c.1-.2.2-.4.3-.5 0 0 0-.1.1-.1 0-.1.1-.1.1-.2s.1-.1.1-.2.1-.1.1-.1 0-.1.1-.1c0-.1.1-.1.1-.2s.1-.1.1-.2.1-.1.1-.1c0-.1.1-.1.1-.2s.1-.1.2-.1H137.6s.1 0 .1.1v.1c0 .2 0 .3-.1.5s-.1.3-.2.5c0 0 0 .1-.1.1 0 .1 0 .1-.1.2 0 .1-.1.1-.1.2v.1c0 .1-.1.2-.2.5-.1.2-.2.5-.3.7-.1.2-.2.5-.3.7-.1.2-.2.4-.2.5v.1c0 .1 0 .1-.1.2 0 .1-.1.1-.1.2v.2s0 .1-.1.1c0 0 0 .1-.1.1v.2s0 .1-.1.1c0 0 0 .1-.1.1v.1h-.8-.2-.1-.1c-.1 0-.1 0-.1-.1s-.1-.1-.1-.2c-.1-.1-.1-.3-.2-.4-.1-.1-.1-.3-.2-.4l-.6-1.2c-.2-.4-.4-.8-.5-1.2 0 0 0-.1-.1-.2 0-.1-.1-.2-.1-.3 0-.1-.1-.2-.1-.3 0-.1-.1-.2-.1-.2s0-.1-.1-.2c0-.1-.1-.2-.1-.3-.1-.1-.1-.2-.1-.3-.5-.1-.5-.1-.5-.2M141.1 46h-.4c-.1 0-.2.1-.4.1-.1.1-.2.1-.3.2-.1.1-.2.2-.2.3h2.4v-.1c-.2-.2-.3-.3-.5-.4-.2 0-.4-.1-.6-.1m-3.2 1.6c0-.2 0-.4.1-.6 0-.2.1-.3.2-.6v-.1-.1-.1-.1c0-.1.1-.2.2-.3.1-.1.2-.2.2-.3.2-.2.4-.3.6-.5.2-.1.4-.2.7-.3.1 0 .3-.1.4-.1H141.3c.2 0 .4.1.6.2.2.1.4.2.5.3.2.1.3.3.5.4.1.2.3.3.4.5.2.4.4.8.4 1.3v.3c0 .1 0 .2-.1.2 0 .1-.1.1-.1.2-.1 0-.2.1-.3.1h-3.7c.1.3.2.5.3.7.1.2.4.3.6.4h.4c.2 0 .4 0 .6-.1.2 0 .4-.1.5-.2l.1-.1s.1-.1.2-.1.1-.1.2-.1l.1-.1h.4l.1.1.1.1.1.1.1.1c.1 0 .1.1.2.2s.1.1.1.2v.1s0 .1-.1.1l-.1.1-.2.2-.2.2-.1.1-.2.2c-.1.1-.2.1-.3.1h-.1-1.6-.2c-.1 0-.2 0-.3-.1-.1 0-.2-.1-.3-.1-.1 0-.1-.1-.2-.1s-.1-.1-.2-.1c-.2-.2-.4-.4-.6-.5-.2-.2-.3-.3-.4-.5-.1-.2-.2-.4-.2-.6-.3-.1-.4-.4-.4-.7M147.1 46.2c-.1 0-.3 0-.4.1-.1 0-.2.1-.3.2-.1.1-.1.2-.1.3 0 .1-.1.2-.1.3 0 .1 0 .2-.1.3v.3c-.1.5-.1.9-.1 1.3v1.3l-.1.1h-1.1s-.1 0-.1-.1v-1.6-1.9-1.9H145.9c.1 0 .2 0 .2.1 0 0 .1.1.1.2h.1l.1-.1c.1-.1.2-.1.3-.1.1 0 .2-.1.3-.1H148c.2 0 .3.1.4.1.1.1.2.2.4.3.2.2.3.4.4.6.1.2.2.4.2.6 0 .2.1.4.1.7V50.5H148v-2.9-.1-.1-.1-.1-.1-.1-.1-.1c0-.1-.1-.2-.1-.3-.1-.1-.1-.2-.2-.2h-.6zM152 47.5c0 .1 0 .3.1.5s.1.3.2.5c.1.1.2.3.3.4.1.1.3.1.5.1.3 0 .5-.1.7-.2.2-.1.4-.2.5-.4l.3-.6c.1-.2.1-.4.1-.7v-.2-.1-.1c-.1-.1-.1-.2-.2-.2-.1-.1-.2-.2-.3-.2 0 0-.1 0-.1-.1-.1 0-.1-.1-.1-.1h-.6-.1-.1c-.1 0-.3 0-.4.1-.1.1-.2.1-.3.2-.1.1-.2.2-.2.3-.1.1-.1.2-.2.4V47.4c-.1 0-.1 0-.1.1m-1.6.3v-.9c0-.3.1-.6.2-.9.1-.3.2-.6.4-.8.2-.2.4-.4.8-.5.1-.1.3-.1.4-.1.1 0 .3-.1.4-.1.3 0 .6.1.9.2.3.1.6.2.9.4V45v-1.8-.1H155.8v7.1c0 .1-.1.1-.2.1h-1.2c0-.1-.1-.1-.1-.2v-.2c-.1.1-.3.2-.4.2s-.2.1-.4.1c-.1 0-.3 0-.4.1h-.9c-.3 0-.5-.1-.7-.2-.2-.1-.4-.3-.6-.5-.1-.1-.1-.1-.1-.2s-.1-.2-.1-.3c0-.1-.1-.2-.1-.3 0-.1-.1-.2-.1-.2 0-.1 0-.1-.1-.2s0-.1-.1-.2v-.4zM158.7 47.2v.5c0 .1 0 .1.1.2 0 .1 0 .1.1.2v.1l.1.1.1.1.1.1.1.1h.1l.1.1c.1 0 .1.1.2.1h.2c.3 0 .6-.1.8-.2.2-.1.4-.3.5-.6 0-.1.1-.2.1-.4v-.4-.1c0-.3-.2-.5-.3-.6-.2-.2-.4-.3-.6-.4h-.4c-.4 0-.7.1-.9.3-.3.1-.4.4-.4.8m-1.7-.3c.1-.4.2-.8.4-1.1.2-.3.4-.5.7-.7.3-.2.6-.3.9-.4.4-.1.7-.1 1.1-.1h.3c.4 0 .7.2 1 .3.3.2.5.4.7.7.2.3.3.6.4.9.1.3.1.7.1 1v.5c0 .2 0 .4-.1.5 0 .2-.1.5-.2.6-.1.2-.2.4-.4.6-.1.1-.1.2-.3.2-.1.1-.2.1-.4.2-.1.1-.3.1-.4.2-.1 0-.2.1-.3.1h-1.1c-.2 0-.4-.1-.7-.1h-.1-.1-.1s-.1 0-.1-.1c-.1 0-.1-.1-.1-.1s-.1 0-.1-.1h-.1-.1l-.1-.1-.2-.2-.2-.2-.1-.1c-.1-.1-.2-.3-.3-.4-.1-.2-.2-.3-.2-.5s-.1-.4-.1-.5v-1.1zM169.1 46h-.4c-.1 0-.2.1-.4.1-.1.1-.2.1-.3.2-.1.1-.2.2-.2.3h2.4v-.1c-.2-.2-.3-.3-.5-.4-.2 0-.4-.1-.6-.1m-3.2 1.6c0-.2 0-.4.1-.6 0-.2.1-.3.2-.6v-.1-.1-.1-.1c0-.1.1-.2.2-.3.1-.1.2-.2.2-.3.2-.2.4-.3.6-.5.2-.1.4-.2.7-.3.1 0 .3-.1.4-.1H169.3c.2 0 .4.1.6.2.2.1.4.2.5.3.2.1.3.3.5.4.1.2.3.3.4.5.2.4.4.8.4 1.3v.3c0 .1 0 .2-.1.2 0 .1-.1.1-.1.2-.1 0-.2.1-.3.1h-3.7c.1.3.2.5.3.7.2.2.4.3.6.4h.4c.2 0 .4 0 .6-.1.2 0 .4-.1.5-.2l.1-.1s.1-.1.2-.1.1-.1.2-.1l.1-.1h.4l.1.1.1.1.1.1.1.1c.1 0 .1.1.2.2s.1.1.1.2v.1s0 .1-.1.1l-.1.1-.2.2-.2.2-.1.1-.2.2c-.1.1-.2.1-.3.1h-.1-1.6-.2c-.1 0-.2 0-.3-.1-.1 0-.2-.1-.3-.1-.1 0-.1-.1-.2-.1s-.1-.1-.2-.1c-.2-.2-.4-.4-.6-.5-.2-.2-.3-.3-.4-.5-.1-.2-.2-.4-.2-.6-.4-.1-.4-.4-.4-.7M172.6 49.6v-1.1-1.1-1.1V45c.1 0 .2 0 .3-.1h1.3v.5l.1-.1.1-.1.1-.1s.1 0 .1-.1c.1-.1.3-.2.5-.2h1c.1 0 .2.1.3.1.1.1.2.1.3.2.1.1.2.1.3.2l.3.3.1-.1c.1 0 .1-.1.2-.2s.1-.1.2-.1.1-.1.1-.1h.1s.1 0 .1-.1c0 0 .1 0 .1-.1h.1c.1 0 .2-.1.3-.1h.7c.1 0 .2.1.3.1.1 0 .2.1.3.2l.1.1.1.1.1.1.1.1c.1.1.2.3.2.4.1.2.1.3.1.5.1.6.2 1.2.2 1.9 0 .6.1 1.2.1 1.9v.1s-.1 0-.1.1h-.1-1.1l-.1-.1v-.4-.6-.7-.4-.2-.2-.2-.2c0-.1-.1-.3-.1-.4l-.3-.3s-.1 0-.1-.1H178.4c-.1 0-.2 0-.3.1l-.3.3c-.1.1-.1.3-.2.4 0 .2-.1.3-.1.5V50.3c0 .1 0 .1-.1.1h-1-.1l-.1-.1v-1.4c0-.5 0-.9-.1-1.4 0-.1-.1-.2-.1-.3-.1-.2-.2-.4-.3-.5-.1-.1-.3-.2-.6-.2h-.2c-.1 0-.1.1-.2.1l-.1.1-.1.1-.1.1-.1.1c-.1.1-.1.2-.2.4 0 .1 0 .3-.1.4v2.7c0 .1-.1.1-.2.1h-1.4c-.1-.1-.1-.3-.1-.4v-.6zM187.5 46h-.4c-.1 0-.2.1-.4.1-.1.1-.2.1-.3.2-.1.1-.2.2-.2.3h2.4v-.1c-.2-.2-.3-.3-.5-.4-.2 0-.4-.1-.6-.1m-3.2 1.6c0-.2 0-.4.1-.6 0-.2.1-.3.2-.6v-.1-.1-.1-.1c0-.1.1-.2.2-.3.1-.1.2-.2.2-.3.2-.2.4-.3.6-.5.2-.1.4-.2.7-.3.1 0 .3-.1.4-.1H187.7c.2 0 .4.1.6.2.2.1.4.2.5.3.2.1.3.3.5.4.1.2.3.3.4.5.2.4.4.8.4 1.3v.3c0 .1 0 .2-.1.2 0 .1-.1.1-.1.2-.1 0-.2.1-.3.1H186c.1.3.2.5.3.7.2.2.4.3.6.4h.4c.2 0 .4 0 .6-.1.2 0 .4-.1.5-.2l.1-.1s.1-.1.2-.1.1-.1.2-.1.1-.1.1-.1h.4l.1.1.1.1.1.1.1.1c.1 0 .1.1.2.2s.1.1.1.2v.1s0 .1-.1.1l-.1.1-.2.2-.2.2-.1.1-.2.2c-.1.1-.2.1-.3.1h-.1-1.6-.2c-.1 0-.2 0-.3-.1-.1 0-.2-.1-.3-.1-.1 0-.1-.1-.2-.1s-.1-.1-.2-.1c-.2-.2-.4-.4-.6-.5-.2-.2-.3-.3-.4-.5s-.2-.4-.2-.6c-.5-.1-.5-.4-.5-.7M192.7 47.8v.2c0 .1 0 .1.1.2v.4c.1.2.3.3.5.4.2.1.4.1.6.1h.4c.1 0 .3-.1.3-.2.1-.1.2-.2.2-.4.1-.1.1-.3.1-.5v-.4c0-.1 0-.2-.1-.3 0-.1-.1-.2-.2-.3l-.4-.4c-.2-.1-.3-.2-.6-.2h-.3c-.1 0-.2.1-.3.1l-.3.3v.2c0 .1-.1.2-.1.3s-.1.2-.1.3V47.9c.2-.2.2-.2.2-.1zm2.5 4.5s0-.1-.1-.1v-.5-.5-.5-.1-.2-.2-.1l-.1.1-.1.1-.1.1-.1.1c-.2.2-.4.2-.6.3-.2 0-.5.1-.7.1-.4 0-.7-.1-1-.2-.3-.1-.6-.3-.9-.6-.3-.2-.5-.5-.6-.8-.1-.3-.2-.6-.2-1 0-.2 0-.4.1-.6 0-.2.1-.4.2-.7s.1-.4.2-.6c.1-.2.2-.4.3-.5l.3-.3c.1-.1.2-.2.4-.3.1-.1.3-.2.4-.2.1-.1.3-.1.4-.1h.8c.2 0 .3.1.5.2s.3.2.4.3v-.1-.1-.2-.2h1.7c.1 0 .1 0 .2.1s.1.1.1.2v7.3h-1.4c.1-.2 0-.2-.1-.2M198 45c0-.2 0-.3.1-.3h1.1c.1 0 .2 0 .4.1V47.8c0 .2.1.4.2.5.1.1.2.2.4.3h.2c.3 0 .5-.1.6-.3.1-.2.2-.4.3-.7v-.7-.7-.7-.1-.2-.2-.1-.2-.2h1.9l.1.1v.4c0 .5 0 .9-.1 1.4 0 .4-.1.9-.2 1.4v.4c0 .1 0 .2-.1.3v.2c-.1.2-.1.4-.2.6-.1.2-.2.3-.4.5-.1.2-.3.3-.5.3-.2.1-.3.1-.5.2h-.1H200h-.1c-.1 0-.1 0-.2-.1-.2-.1-.5-.3-.7-.4-.2-.2-.4-.3-.6-.5 0-.1-.1-.1-.1-.2s-.1-.2-.1-.2c0-.1 0-.2-.1-.3 0-.1-.1-.2-.1-.4 0-.1-.1-.2-.1-.3v-.2-.1-.1-.1-.1-.2V45zM204.4 49.8v-.2-.5-.7-.7-.7-1.2-.2-.3-.3h1.5v.2l.2 4.7v.1s0 .1-.1.1h-1.5l-.1-.1v-.2zm.4-7.1h.6c.1 0 .1.1.1.1.1 0 .1.1.2.1l.2.2c.1.1.1.2.1.3v.5c0 .1 0 .1-.1.2 0 .1-.1.1-.2.2l-.2.2c-.1 0-.1.1-.2.1h-.2c-.2 0-.3 0-.5-.1s-.3-.2-.4-.3v-.1-.7-.1c0-.1.1-.1.1-.1 0-.1.1-.1.2-.2.2-.2.2-.3.3-.3M207.3 49.9v-.3V47.9v-.5-.3-.4-.7-.8-.8-.7-.6-.1h1.4l.1.1v3.1c0 .3 0 .6.1.9v3c0 .1 0 .1-.1.1h-.1-.1-.1-.2-.1-.8l-.1-.1v-.2zM210.6 43.5v-.1-.1s0-.1.1-.2c0-.1.1-.2.1-.3 0-.1 0-.2.1-.2v-.1-.1h.1c.2 0 .4 0 .5.1.1 0 .1.1.1.2s0 .2-.1.3c-.1.1-.1.3-.2.6 0 .1 0 .1-.1.2h-.1-.1-.1-.1-.1c0-.2 0-.2-.1-.3.1 0 .1 0 0 0m-.6 6.3v-.2-.5-.7-.7-.7-1.2-.2-.3-.3h1.5v.2l.2 4.7v.1s0 .1-.1.1h-1.5l-.1-.1v-.2zM214.8 47.6c0 .2 0 .3.1.5.1.1.2.3.3.4.1.1.2.2.4.3.1.1.3.1.4.1.1 0 .3 0 .4-.1s.2-.1.3-.2c.1-.1.2-.2.2-.3.1-.1.1-.3.2-.4v-.1-.8-.1s0-.1-.1-.1c-.1-.1-.1-.2-.2-.3l-.2-.2c-.1-.1-.2-.1-.3-.2-.1 0-.2-.1-.3-.1-.2 0-.4 0-.6.1-.2.1-.3.2-.4.4-.1.1-.2.3-.2.5v.6m-2 1.8v-1.6-1.6-1.6V43c.2 0 .5 0 .7-.1h1.1c.1 0 .1.1.1.2v1.3c0 .3-.1.5-.1.8l.1-.1.1-.1.1-.1.1-.1c.2-.1.3-.2.6-.2.2 0 .4-.1.6-.1.2 0 .4 0 .6.1.2.1.4.1.5.2 0 0 .1 0 .1.1.1 0 .1 0 .1.1.3.2.6.5.8.7.2.3.4.6.5.9V47.2c0 .4-.1.8-.2 1.2-.1.4-.3.7-.5 1.1-.2.3-.5.6-.8.8-.3.2-.7.3-1.1.3h-.5-.1c-.2-.1-.3-.1-.4-.2-.1-.1-.3-.2-.4-.3v.4s0 .1-.1.1H213.8h-.1-.2H213.2c-.1 0-.2 0-.2-.1-.1 0-.1-.1-.1-.1v-.2-.8zM219.7 45.2v-.1-.1c.1 0 .2-.1.4-.1H221c.1 0 .1.1.1.1v.2s.1 0 .2-.1c.1 0 .1-.1.2-.1s.2-.1.2-.1c.1 0 .1-.1.2-.1s.2-.1.3-.1h.7c.1 0 .3.1.4.1.1.1.3.1.4.2l.3.3s0 .1.1.1v.1c0 .1 0 .1-.1.2l-.1.1-.1.1s-.1.1-.2.1-.1.1-.2.1-.1.1-.1.1c-.1 0-.1.1-.2.1h-.4c-.1 0-.1-.1-.2-.1s-.1-.1-.2-.1H222h-.1c-.2.1-.3.3-.4.4-.1.1-.2.3-.2.4 0 .2-.1.3-.1.5v2.9H220v-.1-.9-.3-.5-.6-.6-.5-.4-.1-.2-.2-.6-.1h-.3M225.2 49.8v-.2-.5-.7-.7-.7-1.2-.2-.3-.3h1.5v.2l.2 4.7v.1s0 .1-.1.1h-1.5l-.1-.1v-.2zm.4-7.1h.6c.1 0 .1.1.1.1.1 0 .1.1.2.1l.2.2c.1.1.1.2.1.3v.5c0 .1 0 .1-.1.2 0 .1-.1.1-.2.2l-.2.2c-.1 0-.1.1-.2.1h-.1c-.2 0-.3 0-.5-.1s-.3-.2-.4-.3v-.1-.7-.1c0-.1.1-.1.1-.1 0-.1.1-.1.2-.2.1-.2.1-.3.2-.3M229.6 47.2v.5c0 .1 0 .1.1.2 0 .1 0 .1.1.2v.1l.1.1.1.1.1.1.1.1h.1l.1.1c.1 0 .1.1.2.1h.2c.3 0 .6-.1.8-.2.2-.1.4-.3.5-.6 0-.1.1-.2.1-.4v-.4-.1c0-.3-.2-.5-.3-.6-.2-.2-.4-.3-.6-.4h-.4c-.4 0-.7.1-.9.3-.3.1-.4.4-.4.8m-1.7-.3c.1-.4.2-.8.4-1.1.2-.3.4-.5.7-.7.3-.2.6-.3 1-.4.4-.1.7-.1 1.1-.1h.3c.4 0 .7.2 1 .3.3.2.5.4.7.7.2.3.3.6.4.9.1.3.1.7.1 1v.5c0 .2 0 .4-.1.5 0 .2-.1.5-.2.6-.1.2-.2.4-.4.6-.1.1-.2.2-.3.2-.1.1-.2.1-.4.2-.1.1-.3.1-.4.2-.1 0-.2.1-.3.1h-1.1c-.2 0-.4-.1-.7-.1h-.1-.1-.1s-.1 0-.1-.1c-.1 0-.1-.1-.1-.1s-.1 0-.1-.1h-.1-.1l-.1-.1-.2-.2-.2-.2-.1-.1c-.1-.1-.2-.3-.3-.4-.1-.2-.2-.3-.2-.5s-.1-.4-.1-.5v-1.1z"/></g></svg>