<svg id="Camada_1" data-name="Camada 1" xmlns="http://www.w3.org/2000/svg" viewBox="0 0 73.13 69.97"><defs><style>.cls-1{fill:#76bc21}.cls-2{fill:#fff}.cls-3{fill:#11814c}</style></defs><title>logo_natue_by_mundo_verde</title><path class="cls-1" d="M72.81 9.39a54.43 54.43 0 0 1-2.14 14.83 38.35 38.35 0 0 1-7 13.61 36.26 36.26 0 0 1-12.84 9.94q-8 3.82-19.27 3.83-14.37 0-22.78-5.5C3.13 42.42.32 36.42.32 28.05q0-8.56 5.36-14.05a36 36 0 0 1 13.76-8.58A78 78 0 0 1 38.1 1.29a193.29 193.29 0 0 1 20-1.07h14.71z"/><path class="cls-2" d="M54.36 26.47a4.2 4.2 0 0 1 .16-1.15 2.91 2.91 0 0 1 .55-1.06 2.79 2.79 0 0 1 1-.77 3.38 3.38 0 0 1 1.49-.3 3.13 3.13 0 0 1 1.77.43A1.55 1.55 0 0 1 60 25a1.51 1.51 0 0 1-.42 1.1 2.78 2.78 0 0 1-1.07.66 5.72 5.72 0 0 1-1.45.32 13.82 13.82 0 0 1-1.55.09h-1.15zM52.63 31a3.3 3.3 0 0 0 .85 1.2 4.11 4.11 0 0 0 1.46.83 6.65 6.65 0 0 0 2.13.31 7.05 7.05 0 0 0 2.37-.42 5.91 5.91 0 0 0 2.09-1.25l-.28-.29-.09-.1-.06-.07a1.38 1.38 0 0 0-1.75-.21 2.82 2.82 0 0 1-.38.21 5 5 0 0 1-.85.3 4.35 4.35 0 0 1-1.08.12 3.09 3.09 0 0 1-1.19-.21 2.28 2.28 0 0 1-1.33-1.32 2.33 2.33 0 0 1-.16-.85v-.48h1.56a13.32 13.32 0 0 0 2.42-.2 6.26 6.26 0 0 0 2-.66 3.69 3.69 0 0 0 1.33-1.2 3.31 3.31 0 0 0 .49-1.83 3.38 3.38 0 0 0-.31-1.47 3 3 0 0 0-.85-1.07 3.67 3.67 0 0 0-1.24-.65 9.92 9.92 0 0 0-2.28-.21c-3.62 0-5.09 2.47-5.09 4.75v3.33a3.85 3.85 0 0 0 .24 1.44M30.24 28.23a4.22 4.22 0 0 1-.17 1.15 3 3 0 0 1-.54 1.06 3 3 0 0 1-1 .77 3.4 3.4 0 0 1-1.5.3 3.26 3.26 0 0 1-1.77-.43 1.77 1.77 0 0 1-.24-2.5 2.94 2.94 0 0 1 1.07-.66 5.81 5.81 0 0 1 1.45-.32 13.86 13.86 0 0 1 1.56-.09h1.14zm.88-5.71a4.2 4.2 0 0 0-1.46-.83 6.47 6.47 0 0 0-2.13-.31 7.15 7.15 0 0 0-2.38.42 6 6 0 0 0-2.09 1.2l.29.3.09.1.07.07a1.39 1.39 0 0 0 1.77.24 2.82 2.82 0 0 1 .38-.21 4.59 4.59 0 0 1 .84-.3 4.35 4.35 0 0 1 1.08-.12 3.26 3.26 0 0 1 1.19.2 2.5 2.5 0 0 1 .84.55 2.34 2.34 0 0 1 .49.77 2.39 2.39 0 0 1 .17.86v.47h-1.6a13.19 13.19 0 0 0-2.41.21 6.26 6.26 0 0 0-2 .66A3.61 3.61 0 0 0 23 28a3.63 3.63 0 0 0-.18 3.29 2.91 2.91 0 0 0 .84 1.06 3.53 3.53 0 0 0 1.25.64 9.21 9.21 0 0 0 2.28.22c3.61 0 5.09-2.47 5.09-4.75v-3.32a3.6 3.6 0 0 0-.28-1.42 3.27 3.27 0 0 0-.84-1.2M19.76 22.4a3.6 3.6 0 0 0-1.31-.77 4.81 4.81 0 0 0-1.56-.25 4.64 4.64 0 0 0-2.3.56 3.4 3.4 0 0 0-1.45 1.54v-.33a1.41 1.41 0 0 0-1.37-1.48H11v9.7a1.43 1.43 0 0 0 1.45 1.56h.69v-5.8a5.54 5.54 0 0 1 .23-1.68 3.15 3.15 0 0 1 .63-1.18 2.51 2.51 0 0 1 1-.68 3.53 3.53 0 0 1 1.23-.21 3.12 3.12 0 0 1 1 .15 2.11 2.11 0 0 1 .82.5 2.63 2.63 0 0 1 .57.91 3.77 3.77 0 0 1 .21 1.34v5.09a1.43 1.43 0 0 0 1.45 1.56H21v-7.25a5.13 5.13 0 0 0-.33-1.93 3.88 3.88 0 0 0-.89-1.35M49.32 21.67h-.69v5.8a5.23 5.23 0 0 1-.24 1.68 3.13 3.13 0 0 1-.66 1.18 2.59 2.59 0 0 1-1 .68 3.55 3.55 0 0 1-1.24.21 3.11 3.11 0 0 1-1-.15 2.24 2.24 0 0 1-.82-.5 2.36 2.36 0 0 1-.57-.91 3.81 3.81 0 0 1-.21-1.34v-5.09a1.43 1.43 0 0 0-1.45-1.56h-.69v7.25a5.13 5.13 0 0 0 .33 1.93A3.74 3.74 0 0 0 42 32.2a3.66 3.66 0 0 0 1.31.77 4.81 4.81 0 0 0 1.56.25 4.64 4.64 0 0 0 2.3-.56 3.4 3.4 0 0 0 1.45-1.54v.33A1.41 1.41 0 0 0 50 32.93h.77v-9.7a1.43 1.43 0 0 0-1.45-1.56M37.54 21.67H36v-1.58a1.42 1.42 0 0 0-1.45-1.58.27.27 0 0 0-.1 0h-.59v10.88c0 .46 0 .92.06 1.37a2.91 2.91 0 0 0 .34 1.24 2.36 2.36 0 0 0 1 .89 4.15 4.15 0 0 0 1.76.35h.52a1.43 1.43 0 0 0 1.56-1.45v-.41h-1.63a1.51 1.51 0 0 1-.83-.22 1.31 1.31 0 0 1-.47-.59 2.41 2.41 0 0 1-.21-.83v-6.2h3.14v-.4a1.43 1.43 0 0 0-1.56-1.45"/><path class="cls-3" d="M69.66 54.41H18.27a3.86 3.86 0 0 0-3.86 3.87v11.47H65.8a3.87 3.87 0 0 0 3.87-3.86v-7.61-3.87"/><path class="cls-2" d="M19.84 60.1a.58.58 0 0 1 .58-.58h.13a.59.59 0 0 1 .52.3l1.39 2.27 1.4-2.27a.56.56 0 0 1 .52-.3h.12a.57.57 0 0 1 .58.58v4.16a.57.57 0 1 1-1.14 0v-2.61l-1 1.55a.53.53 0 0 1-1 0l-1-1.53v2.6a.57.57 0 0 1-1.13 0zM29.52 64.27a.57.57 0 0 1-1.13 0 1.42 1.42 0 0 1-1.18.64 1.31 1.31 0 0 1-1.36-1.48V61.3a.56.56 0 0 1 .57-.56.57.57 0 0 1 .57.56V63c0 .54.25.81.69.81s.71-.27.71-.81v-1.7a.57.57 0 0 1 1.13 0zM30.24 61.3a.57.57 0 0 1 1.14 0v.05a1.41 1.41 0 0 1 1.17-.64 1.31 1.31 0 0 1 1.36 1.48v2.08a.57.57 0 0 1-1.13 0v-1.72c0-.53-.26-.81-.69-.81s-.71.28-.71.81v1.72a.57.57 0 0 1-1.14 0zM38.48 64.27a.57.57 0 0 1-1.13 0v-.06a1.46 1.46 0 0 1-1.25.65 1.89 1.89 0 0 1-1.83-2.07 1.88 1.88 0 0 1 1.83-2.07 1.55 1.55 0 0 1 1.25.59v-1.46a.57.57 0 0 1 1.13 0zm-3.07-1.49a1 1 0 1 0 2 0 1 1 0 1 0-2 0M38.87 62.81a2.17 2.17 0 0 1 4.34 0A2.11 2.11 0 0 1 41 64.88a2.08 2.08 0 0 1-2.16-2.07m3.22 0A1.06 1.06 0 0 0 41 61.69a1 1 0 0 0-1 1.09 1.07 1.07 0 0 0 1.06 1.11 1 1 0 0 0 1-1.09M46.52 64.42l-1.69-4.07a.64.64 0 0 1-.07-.27.57.57 0 0 1 .58-.57.6.6 0 0 1 .58.4l1.31 3.39 1.32-3.42a.61.61 0 0 1 .56-.37.55.55 0 0 1 .56.55.71.71 0 0 1-.06.26l-1.71 4.1a.68.68 0 0 1-.65.45h-.07a.68.68 0 0 1-.66-.45M51.59 64.88a2 2 0 0 1-2.1-2.07 2 2 0 0 1 2-2.08 1.9 1.9 0 0 1 1.93 1.93.52.52 0 0 1-.53.54h-2.27a.94.94 0 0 0 1 .79 1.32 1.32 0 0 0 .81-.27.43.43 0 0 1 .28-.09.45.45 0 0 1 .29.78 2.08 2.08 0 0 1-1.39.49m.73-2.41c-.07-.51-.36-.85-.84-.85a.9.9 0 0 0-.87.85zM53.9 61.3a.56.56 0 0 1 .57-.56.57.57 0 0 1 .57.56v.18c.16-.38.43-.74.77-.74a.55.55 0 0 1 .12 1.08c-.57.14-.89.58-.89 1.38v1.07a.57.57 0 0 1-.57.56.56.56 0 0 1-.57-.56zM60.68 64.27a.57.57 0 0 1-1.13 0v-.06a1.46 1.46 0 0 1-1.25.65 1.89 1.89 0 0 1-1.83-2.07 1.88 1.88 0 0 1 1.83-2.07 1.55 1.55 0 0 1 1.25.59v-1.46a.57.57 0 0 1 1.13 0zm-3.07-1.49a1 1 0 1 0 2 0 1 1 0 1 0-2 0M63.23 64.88a2 2 0 0 1-2.1-2.07 2 2 0 0 1 2-2.08 1.9 1.9 0 0 1 1.93 1.93.53.53 0 0 1-.54.54h-2.26a.93.93 0 0 0 1 .79 1.32 1.32 0 0 0 .81-.27.43.43 0 0 1 .28-.09.45.45 0 0 1 .29.78 2.08 2.08 0 0 1-1.39.49m.75-2.43a.86.86 0 0 0-.84-.85.89.89 0 0 0-.87.85z"/><path class="cls-3" d="M3.46 59.18a.58.58 0 0 1 1.16 0v1.54a1.53 1.53 0 0 1 1.28-.66 1.93 1.93 0 0 1 1.87 2.12 1.92 1.92 0 0 1-1.87 2.14 1.59 1.59 0 0 1-1.28-.62.58.58 0 1 1-1.16 0zm3.15 3a1 1 0 0 0-1-1.13 1 1 0 0 0-1 1.13 1 1 0 0 0 1 1.14 1 1 0 0 0 1-1.13zM8.77 65.38a.5.5 0 0 1-.37-.48.47.47 0 0 1 .46-.48.45.45 0 0 1 .19 0 .77.77 0 0 0 .25 0 .39.39 0 0 0 .41-.24v-.1l-1.4-3.25a.84.84 0 0 1-.07-.26.56.56 0 0 1 .58-.56.57.57 0 0 1 .56.43l.89 2.39.86-2.38a.59.59 0 0 1 .56-.44.54.54 0 0 1 .55.53.69.69 0 0 1-.06.28l-1.43 3.44c-.34.84-.69 1.15-1.39 1.15a1.69 1.69 0 0 1-.59-.03z"/></svg>