<svg id="Layer_1" xmlns="http://www.w3.org/2000/svg" viewBox="0 0 73 70"><style>.st0{fill:#fff}.st1{fill:#76bc21}.st2{fill:#11814c}</style><path class="st0" d="M51.4 35.4c0-.3 0-.6.1-1 .1-.3.2-.6.5-.9.2-.3.5-.5.8-.6.3-.2.8-.2 1.3-.2.6 0 1.1.1 1.5.4.4.2.5.6.5 1.2 0 .4-.1.7-.3.9-.2.2-.5.4-.9.6l-1.2.3c-.4 0-.9.1-1.3.1h-1v-.8zm-1.5 3.8c.2.4.4.7.7 1s.7.5 1.2.7 1.1.3 1.8.3 1.3-.1 2-.3c.7-.2 1.2-.6 1.8-1l-.2-.2s0-.1-.1-.1l-.1-.1c-.6-.6-1.2-.4-1.5-.2-.1.1-.2.1-.3.2-.2.1-.4.2-.7.2-.3.1-.6.1-.9.1-.4 0-.7-.1-1-.2-.3-.1-.5-.3-.7-.5s-.3-.4-.4-.6c-.1-.3-.1-.5-.1-.8v-.4h1.3c.7 0 1.4-.1 2-.2.6-.1 1.2-.3 1.7-.6s.8-.6 1.1-1c.3-.4.4-.9.4-1.5 0-.5-.1-.9-.3-1.2-.2-.4-.4-.6-.7-.9-.3-.2-.6-.4-1-.5s-1.2-.2-1.9-.2c-3 0-4.3 2.1-4.3 4V38c0 .4.1.8.2 1.2M31.2 36.9c0 .3 0 .6-.1 1-.1.3-.2.6-.5.9-.2.3-.5.5-.8.6-.4.1-.8.2-1.3.2-.6 0-1.1-.1-1.5-.4-.4-.2-.5-.6-.5-1.2 0-.4.1-.7.3-.9.2-.2.5-.4.9-.6l1.2-.3c.4 0 .9-.1 1.3-.1h1v.8zm.7-4.8c-.3-.3-.7-.5-1.2-.7s-1.1-.3-1.8-.3-1.3.1-2 .3c-.7.2-1.2.6-1.8 1l.2.2s0 .1.1.1l.1.1c.6.6 1.2.4 1.5.2.1-.1.2-.1.3-.2.2-.1.4-.2.7-.2.3-.1.6-.1.9-.1.4 0 .7.1 1 .2.3.1.5.3.7.5s.3.4.4.6.1.5.1.7v.4h-1.3c-.7 0-1.4.1-2 .2-.6.1-1.2.3-1.7.6s-.8.6-1.1 1c-.3.4-.4.9-.4 1.5 0 .5.1.9.3 1.2.2.4.4.6.7.9.3.2.6.4 1 .5.4.1 1.2.2 1.9.2 3 0 4.3-2.1 4.3-4v-2.8c0-.4-.1-.8-.2-1.2-.1-.3-.4-.6-.7-.9M22.4 32c-.3-.3-.7-.5-1.1-.6-.4-.1-.9-.2-1.3-.2-.7 0-1.4.2-1.9.5-.6.3-1 .8-1.2 1.3v-.4c0-1-.8-1.2-1.1-1.2h-.7v8.1c0 1.2.9 1.3 1.2 1.3h.6v-4.9c0-.5.1-1 .2-1.4.1-.4.3-.7.6-1 .2-.3.5-.4.8-.6.3-.1.7-.2 1-.2.3 0 .5 0 .8.1.3.1.5.2.7.4.2.2.4.4.5.8.1.3.2.7.2 1.1v4.3c0 1.2.9 1.3 1.2 1.3h.5v-6.1c0-.6-.1-1.2-.3-1.6-.1-.3-.4-.7-.7-1M47.2 31.4h-.6v4.9c0 .5-.1 1-.2 1.4-.1.4-.3.7-.6 1-.2.3-.5.4-.8.6-.3.1-.7.2-1 .2s-.5 0-.8-.1c-.3-.1-.5-.2-.7-.4-.2-.2-.4-.4-.5-.8-.1-.3-.2-.7-.2-1.1v-4.3c0-1.2-.9-1.3-1.2-1.3H40v6.1c0 .6.1 1.2.3 1.6.2.5.4.8.7 1.1.3.3.7.5 1.1.6.4.1.9.2 1.3.2.7 0 1.4-.2 1.9-.5.6-.3 1-.8 1.2-1.3v.3c0 1 .8 1.2 1.1 1.2h.8v-8.1c0-1.2-1-1.3-1.2-1.3M37.3 31.4H36v-1.3c0-1.2-.9-1.3-1.2-1.3h-.6V39c0 .4.1.7.3 1s.5.6.8.7c.4.2.8.3 1.5.3h.4c1.2 0 1.3-.9 1.3-1.2v-.3h-1.4c-.3 0-.5-.1-.7-.2-.2-.1-.3-.3-.4-.5-.1-.2-.2-.4-.2-.7v-5.2h2.6v-.3c.2-.3.1-1.2-1.1-1.2"/><g><path class="st1" d="M72.7 9.4c0 4.9-.7 9.8-2.1 14.8-1.4 5-3.8 9.5-7 13.6-3.3 4.1-7.5 7.4-12.8 9.9-5.3 2.6-11.7 3.8-19.3 3.8-9.6 0-17.2-1.8-22.8-5.5C3.1 42.3.3 36.3.3 28c0-5.6 1.7-10.3 5.3-14 3.6-3.7 8.1-6.5 13.8-8.6C25 3.4 31.2 2 38 1.3 44.8.6 51.5.2 58 .2h14.7v9.2z"/><path class="st0" d="M54.3 26.5c0-.4.1-.8.2-1.2.1-.4.3-.7.5-1.1.3-.3.6-.6 1-.8.4-.2.9-.3 1.5-.3.7 0 1.3.1 1.8.4.4.3.7.8.7 1.4 0 .4-.1.8-.4 1.1-.3.3-.6.5-1.1.7-.5.3-1 .4-1.5.4-.5.1-1 .1-1.6.1h-1.1v-.7zM52.6 31c.2.5.5.9.8 1.2.4.3.9.6 1.5.8.6.2 1.3.3 2.1.3s1.6-.1 2.4-.4c.8-.3 1.5-.7 2.1-1.2l-.3-.3-.1-.1-.1-.1c-.7-.7-1.4-.5-1.8-.2-.1.1-.2.1-.4.2-.3.1-.5.2-.8.3-.3.1-.7.1-1.1.1-.5 0-.9-.1-1.2-.2-.3-.1-.6-.3-.8-.5-.2-.2-.4-.5-.5-.8-.1-.3-.2-.6-.2-.9v-.5h1.6c.9 0 1.7-.1 2.4-.2.8-.1 1.4-.4 2-.7.6-.3 1-.7 1.3-1.2.3-.5.5-1.1.5-1.8 0-.6-.1-1-.3-1.5s-.5-.8-.8-1.1c-.4-.3-.8-.5-1.2-.6-.5-.1-1.4-.2-2.3-.2-3.6 0-5.1 2.5-5.1 4.7v3.3c0 .7.1 1.1.3 1.6M30.2 28.2c0 .4-.1.8-.2 1.2-.1.4-.3.7-.5 1.1-.3.3-.6.6-1 .8-.4.2-.9.3-1.5.3-.7 0-1.3-.1-1.8-.4-.4-.3-.7-.8-.7-1.4 0-.4.1-.8.4-1.1.3-.3.6-.5 1.1-.7.4-.2.9-.3 1.4-.3.5-.1 1-.1 1.6-.1h1.1v.6zm.9-5.7c-.4-.3-.9-.6-1.5-.8-.6-.2-1.3-.3-2.1-.3s-1.6.1-2.4.4c-.8.3-1.5.7-2.1 1.2l.3.3.1.1.1.1c.7.7 1.4.5 1.8.2.1-.1.2-.1.4-.2.3-.1.5-.2.8-.3.3-.1.7-.1 1.1-.1.5 0 .9.1 1.2.2.3.1.6.3.8.5.2.2.4.5.5.8.1.3.2.6.2.9v.5h-1.6c-.9 0-1.7.1-2.4.2-.8.1-1.4.4-2 .7-.6.3-1 .7-1.3 1.2-.3.5-.5 1.1-.5 1.8 0 .6.1 1 .3 1.5.2.4.5.8.8 1.1.4.3.8.5 1.2.6.5.1 1.4.2 2.3.2 3.6 0 5.1-2.5 5.1-4.7v-3.3c0-.5-.1-1-.3-1.4-.2-.6-.5-1-.8-1.4M19.7 22.4c-.4-.3-.8-.6-1.3-.8-.5-.2-1-.2-1.6-.2-.9 0-1.6.2-2.3.6-.7.4-1.2.9-1.4 1.5v-.3c0-1.3-1-1.5-1.4-1.5h-.8v9.7c0 1.4 1.1 1.6 1.5 1.6h.7v-5.8c0-.6.1-1.2.2-1.7.2-.5.4-.9.7-1.2.3-.3.6-.5 1-.7.4-.1.8-.2 1.2-.2.3 0 .7.1 1 .2.3.1.6.3.8.5.2.2.4.5.6.9.1.4.2.8.2 1.3v5.1c0 1.4 1.1 1.6 1.5 1.6h.7v-7.2c0-.7-.1-1.4-.3-1.9-.3-.7-.6-1.1-1-1.5M49.3 21.7h-.7v5.8c0 .6-.1 1.2-.2 1.7-.2.5-.4.9-.7 1.2-.3.3-.6.5-1 .7-.4.1-.8.2-1.2.2-.3 0-.7-.1-1-.2-.3-.1-.6-.3-.8-.5-.2-.2-.4-.5-.6-.9-.1-.4-.2-.8-.2-1.3v-5.1c0-1.4-1.1-1.6-1.5-1.6h-.7v7.2c0 .7.1 1.4.3 1.9.2.5.5 1 .9 1.3.4.3.8.6 1.3.8.5.2 1 .2 1.6.2.9 0 1.6-.2 2.3-.6.7-.4 1.2-.9 1.4-1.5v.3c0 1.3 1 1.5 1.4 1.5h.8v-9.7c0-1.3-1.1-1.4-1.4-1.4M37.5 21.7h-1.6v-1.6c0-1.4-1.1-1.6-1.5-1.6h-.7v10.9c0 .5 0 .9.1 1.4 0 .5.2.9.4 1.2.2.4.5.7 1 .9.4.2 1 .3 1.8.3h.5c1.4 0 1.6-1.1 1.6-1.4v-.4h-1.6c-.4 0-.6-.1-.8-.2-.2-.2-.4-.3-.5-.6-.1-.2-.2-.5-.2-.8v-6.2h3v-.4c0-.4-.1-1.5-1.5-1.5"/><g><path class="st2" d="M69.6 54.4H18.2c-2.1 0-3.9 1.7-3.9 3.9v11.5h51.4c2.1 0 3.9-1.7 3.9-3.9v-7.6-3.9"/><path class="st0" d="M19.8 60.1c0-.3.3-.6.6-.6h.1c.2 0 .4.1.5.3l1.4 2.3 1.4-2.3c.1-.2.3-.3.5-.3h.1c.3 0 .6.3.6.6v4.2c0 .3-.3.6-.6.6s-.6-.3-.6-.6v-2.6l-1 1.6c-.1.2-.3.3-.5.3s-.4-.1-.5-.3l-1-1.5v2.6c0 .3-.3.6-.6.6s-.6-.2-.6-.6v-4.3zM29.5 64.3c0 .3-.3.6-.6.6s-.6-.3-.6-.6c-.3.3-.6.6-1.2.6-.9 0-1.4-.6-1.4-1.5v-2.1c0-.3.3-.6.6-.6s.6.3.6.6V63c0 .5.3.8.7.8.4 0 .7-.3.7-.8v-1.7c0-.3.3-.6.6-.6s.6.3.6.6v3zM30.2 61.3c0-.3.3-.6.6-.6s.6.3.6.6c.3-.3.6-.6 1.2-.6.9 0 1.4.6 1.4 1.5v2.1c0 .3-.3.6-.6.6s-.6-.3-.6-.6v-1.7c0-.5-.3-.8-.7-.8-.4 0-.7.3-.7.8v1.7c0 .3-.3.6-.6.6s-.6-.3-.6-.6v-3zM38.4 64.3c0 .3-.3.6-.6.6s-.6-.3-.6-.6v-.1c-.3.4-.7.7-1.2.7-.9 0-1.8-.7-1.8-2.1 0-1.3.9-2.1 1.8-2.1.6 0 1 .3 1.2.6v-1.5c0-.3.3-.6.6-.6s.6.3.6.6v4.5zm-3.1-1.5c0 .7.4 1.1 1 1.1.5 0 1-.4 1-1.1 0-.7-.4-1.1-1-1.1-.5 0-1 .4-1 1.1M38.8 62.8c0-1.2.9-2.1 2.2-2.1 1.2 0 2.2.9 2.2 2.1 0 1.2-.9 2.1-2.2 2.1-1.3 0-2.2-.9-2.2-2.1m3.2 0c0-.6-.4-1.1-1.1-1.1-.7 0-1 .5-1 1.1 0 .6.4 1.1 1.1 1.1.6 0 1-.5 1-1.1M46.5 64.4l-1.7-4.1c0-.1-.1-.2-.1-.3 0-.3.3-.6.6-.6s.5.2.6.4l1.3 3.4 1.3-3.4c.1-.2.3-.4.6-.4s.6.2.6.6c0 .1 0 .2-.1.3l-1.7 4.1c-.1.3-.3.5-.7.5h-.1c-.3 0-.5-.2-.6-.5M51.5 64.9c-1.2 0-2.1-.8-2.1-2.1 0-1.1.8-2.1 2-2.1 1.3 0 1.9 1.1 1.9 1.9 0 .3-.2.5-.5.5h-2.3c.1.5.5.8 1 .8.3 0 .6-.1.8-.3.1-.1.2-.1.3-.1.3 0 .4.2.4.4 0 .1-.1.3-.1.3-.3.5-.8.7-1.4.7m.8-2.4c-.1-.5-.4-.9-.8-.9-.5 0-.8.3-.9.9h1.7zM53.8 61.3c0-.3.3-.6.6-.6s.6.3.6.6v.2c.2-.4.4-.7.8-.7s.6.2.6.6c0 .3-.2.5-.4.5-.7.1-1 .5-1 1.3v1.1c0 .3-.3.6-.6.6s-.6-.3-.6-.6v-3zM60.6 64.3c0 .3-.3.6-.6.6s-.6-.3-.6-.6v-.1c-.3.4-.7.7-1.2.7-.9 0-1.8-.7-1.8-2.1 0-1.3.9-2.1 1.8-2.1.6 0 1 .3 1.2.6v-1.5c0-.3.3-.6.6-.6s.6.3.6.6v4.5zm-3.1-1.5c0 .7.4 1.1 1 1.1.5 0 1-.4 1-1.1 0-.7-.4-1.1-1-1.1-.5 0-1 .4-1 1.1M63.2 64.9c-1.2 0-2.1-.8-2.1-2.1 0-1.1.8-2.1 2-2.1 1.3 0 1.9 1.1 1.9 1.9 0 .3-.2.5-.5.5h-2.3c.1.5.5.8 1 .8.3 0 .6-.1.8-.3.1-.1.2-.1.3-.1.3 0 .4.2.4.4 0 .1-.1.3-.1.3-.4.5-.9.7-1.4.7m.7-2.4c-.1-.5-.4-.9-.8-.9-.5 0-.8.3-.9.9h1.7z"/><g><path class="st2" d="M3.4 59.2c0-.3.3-.6.6-.6s.6.3.6.6v1.5c.3-.4.7-.7 1.3-.7 1 0 1.9.8 1.9 2.1 0 1.4-.9 2.1-1.9 2.1-.6 0-1-.3-1.3-.6 0 .3-.3.6-.6.6s-.6-.2-.6-.5v-4.5zm3.1 3c0-.7-.5-1.1-1-1.1s-1 .5-1 1.1c0 .7.5 1.1 1 1.1.6 0 1-.4 1-1.1zM8.7 65.4c-.2-.1-.4-.2-.4-.5s.2-.5.5-.5h.4c.2 0 .3 0 .4-.2v-.1l-1.4-3.2c0-.1-.1-.2-.1-.3 0-.3.3-.6.6-.6s.5.2.6.4l.9 2.4.9-2.4c.1-.2.3-.4.6-.4s.6.2.6.5c0 .1 0 .2-.1.3l-1.4 3.4c-.3.8-.7 1.1-1.4 1.1-.3.2-.5.2-.7.1z"/></g></g></g></svg>