<svg xmlns="http://www.w3.org/2000/svg" viewBox="0 0 25.4 21.7"><path d="M4.2 18.7h-.8c-.5 0-.8-.4-.9-.8s.1-.9.5-1.1c.7-.3 1.3-.8 1.8-1.4C1.9 13.9 0 11.2 0 8.3 0 3.7 4.6 0 10.3 0s10.3 3.7 10.3 8.3-4.6 8.3-10.3 8.3H10c-1.5 1.4-3.5 2.1-5.8 2.1zM10.3 2C5.7 2 2 4.8 2 8.3c0 2.4 1.8 4.6 4.7 5.7.3.1.5.3.6.6s.1.6 0 .8v.1c-.1.1-.1.2-.2.3-.1.2-.2.3-.3.4.8-.3 1.6-.8 2.1-1.3.2-.2.5-.3.8-.3h.7c4.6 0 8.3-2.8 8.3-6.3S14.9 2 10.3 2z"/><path d="M21.8 21.7c-1.3 0-2.5-.3-3.5-1h-.2c-3.9.7-7.7-1.1-9.1-4.2-.2-.5 0-1.1.5-1.3s1.1 0 1.3.5c1 2.3 3.9 3.6 6.9 3 .2 0 .3-.1.5-.1.3-.1.6 0 .9.2.4.3.8.5 1.3.7-.1-.1-.1-.2-.2-.3-.1-.2-.2-.5-.2-.8.1-.3.2-.5.4-.7 2.1-1.3 3.2-3.4 2.9-5.4-.3-1.6-1.4-3-3.1-3.7-.5-.2-.8-.8-.5-1.3.2-.5.8-.8 1.3-.5 2.4 1 4 2.9 4.4 5.2.4 2.4-.7 5-2.9 6.7.4.3.9.6 1.4.8.4.1.7.5.7 1 0 .4-.3.8-.7.9-.8.2-1.4.3-2.1.3zM6.3 7.2c-.7 0-1.3.5-1.3 1.3s.6 1.3 1.3 1.3 1.3-.6 1.3-1.3S7 7.2 6.3 7.2zM10.3 7.2c-.7 0-1.3.5-1.3 1.3s.6 1.3 1.3 1.3 1.3-.6 1.3-1.3-.6-1.3-1.3-1.3zM14.3 7.2c-.7 0-1.3.6-1.3 1.3s.6 1.3 1.3 1.3 1.3-.6 1.3-1.3-.6-1.3-1.3-1.3z"/></svg>