<svg xmlns="http://www.w3.org/2000/svg" viewBox="0 0 13.1 13"><path d="M10.3 13c-2.5 0-5.1-1.2-7.1-3.1l-.1-.1C1.1 7.7-.1 5.1 0 2.6v-.2l.1-.2.6-.6C1.3 1 2.1.4 3 .1c.1-.1.3-.1.4-.1.3 0 1 .2 1.2.6.3.8.7 2 1 3 .1.3 0 1-.4 1.3l-1 .6s0 .2.1.3c.4.5.8 1.1 1.3 1.6s1 1 1.5 1.3c.1.1.2.1.3.1l.3-.5.3-.5c.3-.4 1-.4 1.1-.4h.2c1.3.3 2.1.6 3.1 1 .4.2.7 1 .5 1.5-.3.9-.8 1.7-1.6 2.4l-.6.6-.1.1h-.3zM1.1 2.8c0 2.2 1.1 4.5 2.8 6.3H4c1.8 1.8 4 2.8 6.2 2.8.1-.1.3-.2.4-.3.6-.6 1-1.2 1.3-2 0 0 0-.1-.1-.1-.8-.4-1.5-.6-2.7-.9H9l-.6.9c-.3.6-1.3.7-2 .2-.5-.4-1.1-.9-1.6-1.4-.6-.6-1-1.1-1.5-1.7-.2-.4-.3-.9-.3-1.3.1-.3.3-.5.5-.7l.9-.6v-.2C4.2 3 3.9 2 3.5 1.2c0-.1-.1-.1-.1-.1-.7.3-1.4.7-1.9 1.3-.2.1-.3.2-.4.4z"/></svg>