<svg id="Camada_1" xmlns="http://www.w3.org/2000/svg" viewBox="0 0 31 26"><style>.st0{fill:#ea595c}</style><path class="st0" d="M13.1 26c-1.9 0-3.4-1.5-3.4-3.4s1.5-3.4 3.4-3.4 3.4 1.5 3.4 3.4S15 26 13.1 26zm0-4.3c-.5 0-.9.4-.9.9s.4.9.9.9.9-.4.9-.9c.1-.5-.4-.9-.9-.9zM23.3 26c-1.9 0-3.4-1.5-3.4-3.4s1.5-3.4 3.4-3.4 3.4 1.5 3.4 3.4-1.5 3.4-3.4 3.4zm0-4.3c-.5 0-.9.4-.9.9s.4.9.9.9.9-.4.9-.9c.1-.5-.4-.9-.9-.9zM30.8 5.2c-.2-.3-.6-.4-1-.5-.4 0-1 .2-1.3 1.1l-.3 1.3-2.5 9H11.2l-4.1-15C6.9.6 6.5.2 5.9.2L1.3 0C.5-.1 0 .5 0 1.2s.5 1.3 1.2 1.3l3.8.1.9 3.4v.2L9 17.7c0 .1.1.3.2.4 0 .1.1.1.1.1 0 .1.1.1.1.2.1 0 .1.1.2.1l.1.1c.1 0 .3.1.4.1h16.4c.5 0 1-.4 1.2-.9L31 6.2c.1-.3 0-.7-.2-1z"/></svg>