<svg xmlns="http://www.w3.org/2000/svg" viewBox="0 0 2711 903.6"><path fill="#9D9D9C" d="M1433.5 583c5.2 12.8 13.1 24.2 23.9 34.1 10.8 9.9 24.6 17.8 41.5 23.6 16.9 5.8 37 8.8 60.4 8.8 22.5 0 45-3.9 67.4-11.8 22.5-7.9 42.2-19.7 59.4-35.4l-8.1-8.4.7.8c-.9-1-1.7-1.8-2.5-2.7l-1.9-2c-20.1-19.4-39.6-13-50.1-6.7-3.4 2.1-7 4.1-10.8 5.9-7.2 3.4-15.2 6.2-24 8.4s-19 3.4-30.7 3.4c-13 0-24.3-1.9-33.7-5.7-9.5-3.8-17.3-9-23.6-15.5-6.3-6.5-11-13.8-14.2-21.9-3.1-8.1-4.7-16.2-4.7-24.3V520h44.5c24.3 0 47.1-1.9 68.5-5.7 21.4-3.8 40-10.1 56-18.9 16-8.7 28.5-20.1 37.8-34.1 9.2-13.9 13.8-31.2 13.8-51.9 0-15.8-2.9-29.6-8.8-41.5-5.8-11.9-13.8-21.9-23.9-30-10.1-8.1-21.9-14.2-35.4-18.2s-40.1-6.1-64.7-6.1c-102.5 0-144.4 70-144.4 134.8V543c-.2 13.9 2.4 27.2 7.6 40zm48.9-127.8c0-10.8 1.6-21.7 4.7-32.7 3.2-11 8.3-21.1 15.5-30 7.2-9 16.6-16.3 28.3-21.9 11.7-5.6 25.9-8.5 42.5-8.5 21.1 0 37.9 4 50.3 12.1 12.4 8.1 18.6 21.4 18.6 39.8 0 12.6-3.9 22.9-11.8 31-7.9 8.1-18 14.4-30.4 18.9-12.3 4.5-26.1 7.5-41.1 9.1-15 1.6-29.8 2.4-44.2 2.4h-32.4v-20.2z"/><g fill="#40948A"><path d="M823 343.1c-10.8-9.9-24.6-17.8-41.5-23.6-16.9-5.8-37-8.8-60.4-8.8-22.5 0-45 3.9-67.4 11.8-22.5 7.9-42.2 19.7-59.4 35.4l8.1 8.4-.7-.8c.8 1 1.7 1.8 2.5 2.7l1.9 2c20.1 19.4 39.6 13 50.1 6.7 3.4-2.1 7-4.1 10.8-5.9 7.2-3.4 15.2-6.2 24-8.4s19-3.4 30.7-3.4c13 0 24.3 1.9 33.7 5.7 9.5 3.8 17.3 9 23.6 15.5 6.3 6.5 11 13.8 14.2 21.9 3.1 8.1 4.7 16.2 4.7 24.3v13.5h-44.5c-24.3 0-47.1 1.9-68.5 5.7-21.4 3.8-40 10.1-56 18.9-16 8.7-28.5 20.1-37.8 34.1-9.2 13.9-13.8 31.2-13.8 51.9 0 15.8 2.9 29.6 8.8 41.5 5.8 11.9 13.8 21.9 23.9 30 10.1 8.1 21.9 14.2 35.4 18.2s40.1 6.1 64.7 6.1c102.5 0 144.4-70 144.4-134.8v-94.4c0-13.9-2.6-27.3-7.8-40.1-4.9-12.8-12.9-24.2-23.7-34.1zM798 505c0 10.8-1.6 21.7-4.7 32.7-3.2 11-8.3 21.1-15.5 30-7.2 9-16.6 16.3-28.3 21.9-11.7 5.6-25.9 8.4-42.5 8.4-21.1 0-37.9-4-50.3-12.1-12.4-8.1-18.6-21.4-18.6-39.8 0-12.6 3.9-22.9 11.8-31 7.9-8.1 18-14.4 30.4-18.9 12.3-4.5 26.1-7.5 41.1-9.1 15-1.6 29.8-2.4 44.2-2.4H798V505zM500.5 339.7c-10.6-9.9-22.9-17.2-37.1-21.9-14.2-4.7-28.9-7.1-44.2-7.1-24.7 0-46.5 5.3-65.4 15.8-18.9 10.6-33.5 26.7-41.1 43.8V361c-1.3-35.5-27.8-41.4-38.9-42.2H252v275.4c.4 40.1 31.8 44.1 41.2 44.3h19.5V473.9c0-18.4 2.2-34.4 6.7-47.9s10.8-24.6 18.9-33.4c8.1-8.8 17.5-15.2 28.3-19.2s22.5-6.1 35.1-6.1c9.5 0 18.6 1.5 27.3 4.4 8.7 2.9 16.5 7.7 23.3 14.2 6.7 6.5 12.1 15.1 16.2 25.6 4 10.6 6.1 23.3 6.1 38.1v144.5c.4 40.1 31.8 44.1 41.2 44.3h19.5V432.8c0-21.1-3.1-39.5-9.4-55-6.4-15.5-14.8-28.2-25.4-38.1zM1339.5 318.9H1320v164.6c0 18.4-2.2 34.4-6.7 47.9s-10.8 24.6-18.9 33.4c-8.1 8.8-17.5 15.2-28.3 19.2s-22.5 6.1-35.1 6.1c-9.5 0-18.6-1.5-27.3-4.4-8.8-2.9-16.5-7.7-23.3-14.2-6.7-6.5-12.2-15.1-16.2-25.7s-6.1-23.3-6.1-38.1V363.2c-.4-40.1-31.8-44.1-41.2-44.3h-19.5v205.7c0 21.1 3.1 39.5 9.4 55 6.3 15.5 14.8 28.2 25.3 38.1 10.6 9.9 22.9 17.2 37.1 21.9 14.2 4.7 28.9 7.1 44.2 7.1 24.7 0 46.6-5.3 65.4-15.8 18.9-10.6 33.5-26.7 41.1-43.8v9.3c1.3 35.5 27.8 41.4 38.9 42.2h21.8V363.2c-.3-40.1-31.7-44.1-41.1-44.3zM1005.1 318.8h-44.7v-44.7c0-40.8-31.7-44.8-41.2-45.1h-19.4v308.9c0 13 .6 26 1.7 38.8 1.1 12.8 4.7 24.4 10.8 34.7 6.1 10.4 15.5 18.8 28.4 25.3 12 6.1 28.7 9.3 49.9 9.7H1005.3c40.1-.4 44.1-31.7 44.3-41.1v-11.4h-46.2c-10.1-.4-18.1-2.4-23.6-6.2-6.1-4.3-10.6-9.9-13.5-16.9-2.9-7-5.3-14.9-5.8-23.6-.5-8.8 0-175.9 0-175.9h89V360c-.3-9.4-4.3-40.8-44.4-41.2z"/></g><g fill="#EE7203"><path d="M1930.5 151c4.9 2.7 8 6.6 9.4 11.7 1.3 5.1.9 10.2-1.3 15.1-.5.5-.9 1.1-1.3 2-.5.9-.8 1.8-1 2.7-.2.9-.8 1.8-1.7 2.7-.9 1.3-2.2 4.2-4 8.7-.9 1.8-1.9 3.6-3 5.4-1.1 1.8-2.1 3.8-3 6-.9 2.2-2 4.6-3.3 7-1.3 2.5-2.7 5-4 7.7-1.3 2.7-2.8 5.5-4.4 8.4-1.6 2.9-3 5.9-4.4 9-1.8 3.1-3.5 6.3-5 9.4-1.6 3.1-3.2 6.5-5 10-.9 1.8-1.8 3.5-2.7 5-.9 1.6-1.8 3.5-2.7 5.7-.9 1.8-1.9 3.6-3 5.4-1.1 1.8-2.1 3.6-3 5.4-1.8 3.6-3.6 7.4-5.4 11.4-1.8 4-3.8 8-6 12.1-2.2 4-4.5 8.2-6.7 12.4-2.2 4.2-4.5 8.6-6.7 13.1s-4.4 8.8-6.4 13.1c-2 4.2-4.1 8.8-6.4 13.7-2.2 4.5-4.6 8.9-7 13.4-2.5 4.5-4.8 9.2-7 14.1-.9 2.2-2 4.6-3.3 7-1.3 2.5-2.5 5-3.3 7.7-1.3 2.2-2.5 4.5-3.3 6.7-1.8 3.6-3.1 6-4 7.4l-14.1 30.1c-2.2 4.9-4.5 9.9-6.7 15.1-2.2 5.1-4.5 10.2-6.7 15.1-.9 2.7-2 5.3-3.3 7.7-1.3 2.5-2.5 5-3.3 7.7-.9 2.7-2 5.3-3.3 7.7-1.3 2.5-2.5 5-3.3 7.7-4 10.3-7.9 20.7-11.7 31.2-3.8 10.5-7.5 20.9-11.1 31.2-1.3 4.9-2.7 10-4 15.4s-2.5 10.5-3.3 15.4c-.4 2.2-.8 4.7-1 7.4-.2 2.7-.3 5.1-.3 7.4-.4 2.2-.6 4.6-.3 7 .2 2.5.6 4.8 1 7 .5 4 1.8 7.4 4 10 .4.9.9 1.5 1.3 1.7.4.2.9.6 1.3 1 1.8.9 3.3 1.3 4.7 1.3 2.2.4 4.4.6 6.4.3 2-.2 4.1-.6 6.4-1l6-2c.9-.4 2-.9 3.3-1.3 1.3-.4 2.4-.9 3.3-1.3 4-1.8 7.8-4.2 11.4-7.4 4-1.8 7.8-4.2 11.4-7.4 3.6-2.7 6.9-5.4 10-8 3.1-2.7 6.5-5.6 10-8.7 6.2-5.4 11.9-10.8 17.1-16.4 5.1-5.6 10.2-10.8 15.1-15.7 4.5-4.9 8.6-9.7 12.4-14.4 3.8-4.7 7.3-9 10.4-13.1 3.1-3.6 5.7-6.9 7.7-10 2-3.1 3.9-5.8 5.7-8 .9-.9 1.6-1.7 2-2.3.4-.7.9-1.4 1.3-2.3 0-.4.1-.7.3-.7.2 0 .3-.2.3-.7l.7-.7c2.2-3.1 5.4-3.6 9.4-1.3 3.1 2.2 3.6 5.4 1.3 9.4l-.7 1.3c-.9.9-1.6 1.8-2 2.7-.5.9-1.1 1.8-2 2.7-1.3 2.2-3.1 4.9-5.4 8-2.2 3.1-5.1 6.7-8.7 10.7-3.1 4-6.5 8.4-10 13.1-3.6 4.7-7.8 9.5-12.7 14.4-9.4 10.7-20.5 21.9-33.5 33.5-3.6 3.1-7 6.1-10.4 9-3.3 2.9-6.8 5.7-10.4 8.4l-12.1 8c-2.2 1.3-4.4 2.7-6.4 4-2 1.3-4.1 2.7-6.4 4-.9.5-1.6.7-2 .7-.5 0-.9.2-1.3.7l-4 2c-.9.9-2 1.5-3.3 1.7-1.3.2-2.7.8-4 1.7l-8 2c-1.8.4-3.3.8-4.7 1-1.3.2-2.9.1-4.7-.3-4 0-7.6-.7-10.7-2-3.6-1.3-6.7-3.3-9.4-6s-4.7-5.6-6-8.7c-1.8-3.1-2.9-6.2-3.3-9.4-1.8-5.4-2.7-11.4-2.7-18.1-.4-5.8-.4-11.6 0-17.4 0-5.4.7-11.2 2-17.4.5-2.7.8-5.5 1-8.4.2-2.9.8-5.7 1.7-8.4 2.2-11.6 4.7-23 7.4-34.2 2.7-11.2 5.8-22.3 9.4-33.5.9-2.7 1.8-5.4 2.7-8 .9-2.7 1.8-5.4 2.7-8 .9-1.8 1.8-4.5 2.7-8 .9-1.3 1.4-2.7 1.7-4 .2-1.3.8-2.9 1.7-4.7 1.8-5.4 3.6-10.7 5.4-16.1 1.8-5.4 3.8-10.5 6-15.4 2.2-5.4 4.4-10.7 6.4-16.1s4.1-10.5 6.4-15.4c.9-2.2 1.9-4.7 3-7.4s2.3-5.1 3.7-7.4c.9-2.7 1.9-5.2 3-7.7 1.1-2.4 2.1-5 3-7.7 2.2-4.9 4.5-9.7 6.7-14.4 2.2-4.7 4.5-9.5 6.7-14.4.9-2.2 1.9-4.5 3-6.7s2.1-4.5 3-6.7c.9-2.2 2-4.5 3.3-6.7 1.3-2.2 2.4-4.5 3.3-6.7.9-2.2 1.9-4.5 3-6.7s2.1-4.5 3-6.7c.9-2.2 1.9-4.4 3-6.4s2.1-4.1 3-6.4c2.2-4 4.4-8 6.4-12.1s3.9-7.8 5.7-11.4c.9-2.2 1.9-4.2 3-6 1.1-1.8 2.1-3.6 3-5.4.9-2.2 1.8-4.1 2.7-5.7.9-1.6 1.8-3.2 2.7-5 2.2-3.6 4.1-6.9 5.7-10 1.6-3.1 3.2-6.2 5-9.4 3.6-6.2 6.7-11.9 9.4-17.1 2.7-5.1 5.4-9.9 8-14.4 1.8-4.5 3.8-8.5 6-12.1.9-1.8 1.8-3.3 2.7-4.7.9-1.3 1.8-2.4 2.7-3.3.9-.9 1.4-1.8 1.7-2.7.2-.9.6-1.8 1-2.7.4-.9.9-1.6 1.3-2 2.7-4.9 6.7-8 12.1-9.4 4.8-1.5 10-.9 14.9 1.8z"/><path d="M2050.4 514.1c3.6 2.7 4 5.8 1.3 9.4 0 .4-.2.9-.7 1.3-.5.4-.8.9-1 1.3-.2.4-.8 1.1-1.7 2-2.2 3.6-5.6 8.3-10 14.1-2.2 3.1-4.7 6.4-7.4 9.7s-5.8 7-9.4 11.1c-3.6 4-7.1 8.2-10.7 12.4-3.6 4.2-7.6 8.8-12.1 13.7-4.9 4.9-9.7 9.6-14.4 14.1-4.7 4.5-9.9 9.2-15.7 14.1l-18.1 14.1c-1.8.9-3.3 2-4.7 3.3-.9 0-1.8.4-2.7 1.3-.9.9-1.8 1.3-2.7 1.3-3.1 2.2-6.7 4.5-10.7 6.7-1.8.9-3.6 1.9-5.4 3-1.8 1.1-3.8 2.1-6 3-4.9 1.8-9.4 2.9-13.4 3.3-2.7.9-5.4.9-8 0-1.8 0-4.5-.5-8-1.3-3.6-1.3-6.2-2.9-8-4.7-2.7-2.2-4.7-4.5-6-6.7-1.8-2.2-3.2-4.6-4.4-7-1.1-2.4-2.1-4.8-3-7-1.3-5.4-2-10.3-2-14.7-.9-4.9-1.2-9.5-1-13.7.2-4.2.6-8.8 1-13.7 1.3-17.9 4-35.1 8-51.6.9-4 1.9-8 3-12.1 1.1-4 2.3-8 3.7-12.1.5-2.2.9-4.2 1.3-6 .5-1.8 1.1-3.8 2-6 .5-1.8.9-3.6 1.3-5.4.5-1.8 1.1-3.8 2-6 1.3-3.6 2.6-7.3 3.7-11.1s2.3-7.5 3.7-11.1c1.3-3.6 2.7-7.1 4-10.7 1.3-3.6 2.7-7.1 4-10.7 1.3-3.6 2.6-6.9 3.7-10 1.1-3.1 2.3-6.2 3.7-9.4 1.3-3.6 2.7-6.8 4-9.7 1.3-2.9 2.7-5.9 4-9 2.2-5.8 4.6-11.3 7-16.4 2.4-5.1 4.8-10.2 7-15.1s4.2-9.3 6-13.1c1.8-3.8 3.6-7.5 5.4-11.1.9-1.8 1.7-3.3 2.3-4.7s1.4-2.7 2.3-4c.9-1.3 1.6-2.4 2-3.3.4-.9.9-1.8 1.3-2.7.9-1.8 1.8-3.1 2.7-4 .4-.4.7-.9.7-1.3 2.2-4.9 6-8.1 11.4-9.7 5.4-1.6 10.5-1 15.4 1.7 4.9 2.2 8.1 5.8 9.7 10.7 1.6 4.9 1.4 9.8-.3 14.7 0 .4-.2.9-.7 1.3-.5.4-.8 1-1 1.7-.2.7-.6 1.5-1 2.3 0 .4-.5 1.6-1.3 3.3 0 .5-.5 1.6-1.3 3.3-1.8 3.6-3.1 6.5-4 8.7-.9 1.8-1.7 3.6-2.3 5.4-.7 1.8-1.5 3.8-2.3 6-.5.5-.7.9-.7 1.3 0 .5-.2.9-.7 1.3-.5.9-.7 1.5-.7 1.7 0 .2-.2.8-.7 1.7-.9.9-1.5 2-1.7 3.3-.2 1.3-.8 2.5-1.7 3.3-2.2 4.9-4.5 9.8-6.7 14.7-2.2 4.9-4.5 10.3-6.7 16.1-1.3 3.1-2.7 6-4 8.7s-2.7 5.8-4 9.4c-.9 1.3-1.6 2.8-2 4.4-.5 1.6-1.1 3-2 4.4-.5.9-.8 1.8-1 2.7-.2.9-.6 1.8-1 2.7-.5.9-.9 1.7-1.3 2.3-.5.7-.9 1.5-1.3 2.3-1.3 3.1-2.7 6.4-4 9.7s-2.9 6.8-4.7 10.4l-4 10c-.9 1.8-1.7 3.6-2.3 5.4-.7 1.8-1.5 3.6-2.3 5.4-.9 1.8-1.6 3.6-2 5.4-.4 1.8-1.1 3.6-2 5.4-.9 1.8-1.7 3.6-2.3 5.4-.7 1.8-1.5 3.6-2.3 5.4-1.3 3.6-2.7 7.3-4 11.1-1.3 3.8-2.7 7.7-4 11.7-.9 1.8-1.6 3.6-2 5.4-.5 1.8-1.1 3.8-2 6-.5.9-1.1 2.7-2 5.4l-2 6c-.9 3.6-1.9 7.4-3 11.4s-2.1 7.8-3 11.4c-.9 4-1.6 7.9-2 11.7-.4 3.8-.9 7.5-1.3 11.1v5.4c0 1.8.2 3.3.7 4.7 0 4 .7 6.9 2 8.7.9 1.3 2.2 2.9 4 4.7 1.8 1.3 4.5 2 8 2 3.1 0 6.5-.7 10-2 2.2-.4 5.6-1.6 10-3.3 1.8-.9 3.5-1.7 5-2.3 1.6-.7 3.2-1.4 5-2.3.9-.9 1.7-1.4 2.3-1.7.7-.2 1.4-.8 2.3-1.7.9-.4 2.2-1.6 4-3.3 3.1-2.2 6.1-4.4 9-6.4 2.9-2 5.7-4.1 8.4-6.4 5.4-4.9 10.4-9.6 15.1-14.1 4.7-4.5 9.3-8.9 13.7-13.4 4.5-4.5 8.5-8.8 12.1-13.1 3.6-4.2 7.1-8.4 10.7-12.4 6.7-7.1 12.1-13.8 16.1-20.1 2.2-3.1 4.2-5.8 6-8 1.8-2.2 3.1-4 4-5.4.9-1.8 1.8-3.1 2.7-4 .4-.4.7-.9.7-1.3 2.2-3.3 5.4-3.7 9.4-1.5zm-63.7-208.3c-6.3 0-10.6-2.1-13.1-6.4-2.5-4.2-2.3-9.5.3-15.7 3.1-6.2 7.8-11.6 14.1-16.1 6.2-4.5 12.5-6.7 18.8-6.7 6.2 0 10.5 2.2 12.7 6.7 2.2 4.5 2 9.8-.7 16.1-2.7 6.3-7.1 11.5-13.4 15.7-6.2 4.3-12.4 6.4-18.7 6.4z"/><path d="M2213.8 179.8c4.9 2.7 8.1 6.5 9.7 11.4 1.6 4.9 1.2 9.8-1 14.7-.9 2.2-1.9 4.4-3 6.4s-2.1 4.1-3 6.4l-5.4 12.1c-.9 2.2-1.8 4.2-2.7 6-.9 1.8-1.8 3.8-2.7 6l-5.4 12.7-22.1 49.6-22.1 50.2-22.1 49.6-22.1 49.6-22.8 49.6-22.1 50.2-22.8 49.6-14.1 30.8c1.8-.9 3.5-1.6 5-2 1.6-.4 3.5-1.1 5.7-2 3.6-2.2 7.4-4.2 11.4-6 4-1.8 7.8-3.8 11.4-6 3.6-2.2 7.3-4.4 11.1-6.4s7.5-4.1 11.1-6.4c3.6-2.2 7.1-4.6 10.7-7 3.6-2.4 7.1-5 10.7-7.7 6.7-4.9 13.3-10.3 19.8-16.1 6.5-5.8 12.6-11.8 18.4-18.1 6.2-6.2 12.1-12.6 17.4-19.1 5.4-6.5 10.5-13.5 15.4-21.1 2.7-3.6 5.6-4 8.7-1.3 3.6 2.2 4.2 5.4 2 9.4-9.8 14.7-21 28.6-33.5 41.5-6.3 6.3-12.7 12.4-19.4 18.4s-13.6 11.7-20.8 17.1c-3.6 2.7-7.3 5.4-11.1 8-3.8 2.7-7.5 5.1-11.1 7.4-7.1 4.5-14.7 8.9-22.8 13.4l-24.1 12.1c-2.2.9-4.4 1.8-6.4 2.7-2 .9-4.1 1.8-6.4 2.7l-6 2c6.3 16.1 10.9 31.9 14.1 47.6.9 4.5 1.6 8.9 2 13.4.4 4.5.9 9.1 1.3 14.1.4 4.9.7 9.7.7 14.4s-.5 9.5-1.3 14.4c-.5 8.9-2.9 18.3-7.4 28.1-.9 2.2-2 4.4-3.3 6.4s-2.7 4.1-4 6.4c-1.8 2.2-3.5 4.2-5 6-1.6 1.8-3.5 3.6-5.7 5.4-.9.9-1.9 1.7-3 2.3-1.1.7-2.1 1.4-3 2.3-1.3.9-2.6 1.6-3.7 2-1.1.4-2.3.9-3.7 1.3-2.2.9-4.7 1.8-7.4 2.7-2.7.9-5.4 1.3-8 1.3-4.9.4-10.5-.5-16.7-2.7-5.8-1.3-10.7-4.5-14.7-9.4-4.5-5.4-7.4-10.7-8.7-16.1-1.3-6.3-1.8-11.8-1.3-16.7 0-1.8.5-4.5 1.3-8v-2c.5-.4.7-1.1.7-2V760l.7-.7.7-1.3.7-3.3c.5-.9.7-1.6.7-2 0-.5.2-.9.7-1.3l2-6.7c3.1-8.9 6.1-17.6 9-26.1 2.9-8.5 5.9-17 9-25.5 3.6-8.9 6.8-17.5 9.7-25.8 2.9-8.3 6.1-16.9 9.7-25.8 3.1-8.5 6.3-17 9.4-25.5 3.1-8.5 6.5-17 10-25.5 3.6-8.9 6.9-17.5 10-25.8 3.1-8.3 6.5-16.6 10-25.1l10-25.5c1.8-4.5 3.5-8.7 5-12.7 1.6-4 3.2-8.3 5-12.7l5.4-12.7 4.7-12.7 10.7-24.8 10.7-25.5 10.7-25.5c3.6-8.5 7.1-16.9 10.7-25.1 3.6-8.3 7.1-16.6 10.7-25.1 1.8-4 3.6-8 5.4-12.1 1.8-4 3.6-8.3 5.4-12.7l6-12.7 5.4-12.1c3.6-8.5 7.4-16.9 11.4-25.1 4-8.3 7.8-16.4 11.4-24.5.9-2.2 1.9-4.4 3-6.4s2.1-4.1 3-6.4l6-12.1 3.3-6.7 2.7-6c1.3-2.2 2.6-4.2 3.7-6 1.1-1.8 2.1-3.8 3-6 2.7-4.9 6.7-8.1 12.1-9.7 5.6-1.5 10.7-1.2 15.6 1zm-182.2 546.7c0-8.5-1.1-17.2-3.3-26.1-1.3-6.7-2.9-13.2-4.7-19.4-1.8-6.3-3.8-12.5-6-18.8-3.1 6.7-6.1 13.4-9 20.1-2.9 6.7-6.1 13.6-9.7 20.8-3.6 8.5-7.1 16.7-10.7 24.8-3.6 8-7.1 16.3-10.7 24.8l-2.7 6c-.4.9-.7 1.4-.7 1.7 0 .2-.2.8-.7 1.7l-1.3 2.7-.7 2v.7l-.7.7v1.3l-.7 1.3c-.4.9-.7 1.8-.7 2.7 0 .9-.2 1.8-.7 2.7-.9 3.6-.9 6.9 0 10 .9 4 2 6.9 3.3 8.7 2.2 2.2 4.7 4 7.4 5.4 3.1 1.8 6.5 2.7 10 2.7 7.6 0 14.5-2.5 20.8-7.4 1.8-.9 3.3-2.1 4.7-3.7 1.3-1.6 2.7-3.2 4-5 .9-1.3 1.9-2.9 3-4.7 1.1-1.8 2.1-3.6 3-5.4 3.1-7.1 5.4-15.4 6.7-24.8 1-8.1 1-16.6.1-25.5z"/><path d="M2456.3 511.4c3.1 2.2 3.6 5.4 1.3 9.4l-2 2c0 .9-.2 1.5-.7 1.7-.5.2-.9.8-1.3 1.7-.5.9-.9 1.6-1.3 2-.5.4-.9 1.1-1.3 2-1.3 1.8-2.7 3.6-4 5.4-1.3 1.8-2.9 3.8-4.7 6-2.2 2.2-4.4 4.6-6.4 7-2 2.5-4.1 5-6.4 7.7-4.9 5.4-10.4 11.2-16.4 17.4-6 6.3-12.8 12.5-20.4 18.8-1.8 1.8-3.6 3.5-5.4 5-1.8 1.6-3.8 3.2-6 5-2.2 1.8-4.5 3.5-6.7 5-2.2 1.6-4.5 3.2-6.7 5-9.8 7.1-20.1 13.2-30.8 18.1-5.8 3.1-11.7 5.8-17.8 8-6 2.2-12.2 4.5-18.4 6.7-6.7 2.2-13.6 3.6-20.8 4-.9.5-1.7.7-2.3.7s-1.5.2-2.3.7h-5.4c-.9 0-1.8.1-2.7.3-.9.2-1.8.3-2.7.3-2.7 0-4.7.2-6 .7h-11.1c-3.8 0-7.5-.2-11.1-.7l-12.1-2c-1.8-.4-3.6-.9-5.4-1.3-1.8-.4-3.8-1.1-6-2-7.1-1.8-14.7-5.4-22.8-10.7-6.7-4.9-13.2-10.7-19.4-17.4-5.8-6.7-10.5-14.5-14.1-23.4-1.8-4.5-3.2-8.8-4.4-13.1-1.1-4.2-1.9-8.8-2.3-13.7-1.3-9.4-1.3-18.5 0-27.5.5-2.2.8-4.5 1-6.7.2-2.2.8-4.5 1.7-6.7.5-2.2.9-4.5 1.3-6.7.5-2.2 1.1-4.5 2-6.7.9-2.2 1.7-4.4 2.3-6.4s1.5-4.1 2.3-6.4l6-12.1c.9-1.8 1.9-3.6 3-5.4 1.1-1.8 2.3-3.8 3.7-6 .4-.9.9-1.8 1.3-2.7.4-.9 1.1-1.8 2-2.7l2-2.7 1.3-2.7 2-3.3 2-2 2-2.7 2-2.7c1.3-1.8 2.6-3.5 3.7-5 1.1-1.6 2.3-3.2 3.7-5 1.3-1.3 2.7-2.8 4-4.4 1.3-1.6 2.7-3.2 4-5 1.3-1.8 2.7-3.3 4-4.7s2.7-2.9 4-4.7c1.3-1.8 2.7-3.3 4-4.7s2.9-2.9 4.7-4.7c1.3-1.8 2.7-3.3 4-4.7s2.7-2.9 4-4.7c3.1-3.1 6.1-6 9-8.7 2.9-2.7 5.9-5.6 9-8.7 12.9-12.1 25.7-22.5 38.2-31.5 6.7-4.9 13.5-9.6 20.4-14.1 6.9-4.5 14-8.7 21.1-12.7 3.6-1.8 7.3-3.6 11.1-5.4 3.8-1.8 7.7-3.3 11.7-4.7l12.1-4c2.2-.4 4.4-.9 6.4-1.3s4.1-.7 6.4-.7h6.7c3.1 0 5.6.2 7.4.7 3.6.9 6 2 7.4 3.3 2.7 1.3 4.9 3.1 6.7 5.4.4.4 1.1 1.6 2 3.3.4.4 1.1 1.6 2 3.3.4.9.8 2 1 3.3.2 1.3.6 2.5 1 3.3.4 2.2.6 4.5.3 6.7-.2 2.2-.6 4.5-1 6.7 0 .9-.1 1.9-.3 3-.2 1.1-.3 2.1-.3 3-.9 1.8-1.3 3.6-1.3 5.4-.5 2.2-.9 4.1-1.3 5.7-.5 1.6-1.1 3.2-2 5-2.7 7.6-5.4 14.3-8 20.1-1.8 3.6-3.6 6.9-5.4 10-1.8 3.1-3.8 6-6 8.7-2.2 3.1-4.5 6-6.7 8.7-2.2 2.7-4.5 5.1-6.7 7.4-4.9 4.9-9.7 9.6-14.4 14.1-4.7 4.5-9.5 8.5-14.4 12.1-19.7 14.7-39.1 26.4-58.3 34.8-8.9 4-17.6 7.4-26.1 10-8.5 2.7-16.3 4.9-23.4 6.7-7.1 1.8-13.5 3-19.1 3.7-5.6.7-10.2 1.5-13.7 2.3l-2 4c-.9 1.8-1.6 3.3-2 4.7-.4.9-.8 1.7-1 2.3-.2.7-.6 1.5-1 2.3-1.8 4.5-2.9 7.6-3.3 9.4-.5 1.8-.9 3.5-1.3 5-.5 1.6-.9 3.2-1.3 5-1.3 6.7-2 13.2-2 19.4-.9 13 1.8 24.8 8 35.5 3.1 5.8 7 10.8 11.7 15.1 4.7 4.2 9.9 7.9 15.7 11.1 2.2 1.8 5.1 3.1 8.7 4 1.8.9 3.3 1.6 4.7 2 1.3.4 2.9.9 4.7 1.3l10 2c2.2.4 5.4.7 9.4.7 2.2.4 5.6.7 10 .7 4.5-.9 7.6-1.3 9.4-1.3 3.6-.9 6.8-1.6 9.7-2 2.9-.4 5.9-1.1 9-2l18.1-6c2.7-1.3 5.4-2.6 8-3.7 2.7-1.1 5.4-2.3 8-3.7 5.4-2.7 10.4-5.5 15.1-8.4 4.7-2.9 9.3-5.9 13.7-9 2.2-1.8 4.4-3.5 6.4-5 2-1.6 4.1-3 6.4-4.4 2.2-1.8 4.2-3.5 6-5 1.8-1.6 3.6-3.2 5.4-5 14.7-12.9 26.6-24.8 35.5-35.5 2.2-2.2 4.4-4.6 6.4-7 2-2.4 3.9-4.8 5.7-7 1.8-2.2 3.3-4.2 4.7-6 1.3-1.8 2.7-3.3 4-4.7.4-.9.9-1.6 1.3-2 .4-.4.9-1.1 1.3-2 .4-.9 1.1-1.8 2-2.7.4-.4.7-.8.7-1 0-.2.2-.6.7-1 0-.4.2-.7.7-.7 2.5-2.6 5.6-3.1 9.6-.9zm-245.8-18.1c-.5.9-.9 1.7-1.3 2.3-.5.7-.9 1.5-1.3 2.3v.7c5.8-.4 13.2-1.8 22.1-4 6.7-1.8 14-3.9 21.8-6.4 7.8-2.4 16.2-5.7 25.1-9.7 8.9-4 18.1-8.7 27.5-14.1s18.5-11.8 27.5-19.4c4.9-3.6 9.6-7.4 14.1-11.4s8.9-8.5 13.4-13.4c4.9-4.9 8.9-9.8 12.1-14.7 2.2-2.2 4.1-4.8 5.7-7.7 1.6-2.9 3.2-5.7 5-8.4.9-1.8 1.6-3.3 2-4.7.4-1.3 1.1-2.9 2-4.7.9-1.8 1.6-3.3 2-4.7.4-1.3.9-2.9 1.3-4.7.9-1.8 1.4-3.5 1.7-5 .2-1.6.8-3.2 1.7-5 0-.9.1-1.7.3-2.3.2-.7.3-1.4.3-2.3.4-.9.7-2.4.7-4.7 0-4.5-.2-7.6-.7-9.4-.5-2.2-1.6-4.2-3.3-6-.5-.4-.8-.7-1-.7-.2 0-.6-.2-1-.7-.9 0-1.5-.1-1.7-.3-.2-.2-.8-.3-1.7-.3-1.8-.4-4.7-.2-8.7.7-3.1.4-6.1 1.2-9 2.3-2.9 1.1-6.1 2.6-9.7 4.4-1.8.9-3.3 1.8-4.7 2.7-1.3.9-2.9 1.8-4.7 2.7-1.8.9-3.3 1.9-4.7 3-1.3 1.1-2.9 2.1-4.7 3-6.3 4.5-12.2 9.2-17.8 14.1-5.6 4.9-11.3 9.8-17.1 14.7-5.8 5.4-11.4 10.8-16.7 16.4-5.4 5.6-10.5 11.3-15.4 17.1-2.7 3.1-5.3 6.1-7.7 9-2.5 2.9-5 5.9-7.7 9-1.3 1.3-2.6 2.8-3.7 4.4-1.1 1.6-2.3 3.2-3.7 5-1.3 1.3-2.6 2.8-3.7 4.4-1.1 1.6-2.3 3-3.7 4.4-2.2 3.6-4.6 6.8-7 9.7-2.5 2.9-4.8 5.9-7 9-1.3 1.8-2.6 3.5-3.7 5-1.1 1.6-2.1 3-3 4.4l-2 2.7-.7 1.3-.7.7-2 2.7-1.3 2c-.9.9-1.3 1.8-1.3 2.7l-2.2 1.9z"/></g></svg>