<svg id="Camada_1" xmlns="http://www.w3.org/2000/svg" viewBox="0 0 1750 624"><style>.st0{fill:#878787}.st1{fill:#f5a36d}</style><path class="st0" d="M842.4 251.8c0-7.3 1.1-14.6 3.2-22s5.6-14.2 10.5-20.2c4.8-6.1 11.2-11 19-14.8 7.9-3.8 17.4-5.7 28.6-5.7 14.2 0 25.5 2.7 33.8 8.2 8.3 5.5 12.5 14.4 12.5 26.8 0 8.5-2.6 15.4-8 20.9-5.3 5.4-12.1 9.7-20.4 12.7-8.3 3-17.5 5.1-27.7 6.1-10.1 1.1-20 1.6-29.7 1.6h-21.8v-13.6zm-32.9 86c3.5 8.6 8.8 16.3 16.1 22.9 7.3 6.7 16.5 11.9 27.9 15.9 11.3 3.9 24.9 5.9 40.6 5.9 15.1 0 30.3-2.6 45.4-7.9 15.1-5.3 28.4-13.2 39.9-23.8l-5.4-5.6.5.5c-.6-.7-1.1-1.2-1.7-1.8l-1.3-1.3c-13.5-13.1-26.6-8.7-33.7-4.5-2.3 1.4-4.7 2.7-7.3 3.9-4.8 2.3-10.2 4.2-16.1 5.7-5.9 1.5-12.8 2.3-20.6 2.3-8.8 0-16.3-1.3-22.7-3.8-6.4-2.6-11.7-6-15.9-10.4-4.2-4.4-7.4-9.3-9.5-14.7-2.1-5.4-3.2-10.9-3.2-16.3v-9.1h30c16.3 0 31.7-1.3 46.1-3.9 14.4-2.6 26.9-6.8 37.7-12.7 10.7-5.9 19.2-13.5 25.4-22.9 6.2-9.4 9.3-21 9.3-34.9 0-10.6-2-19.9-5.9-27.9s-9.3-14.7-16.1-20.2c-6.8-5.4-14.7-9.5-23.8-12.3-9.1-2.7-27-4.1-43.5-4.1-68.9 0-97.1 47.1-97.1 90.6V311c-.3 9.2 1.4 18.1 4.9 26.8M382 285.3c0 7.3-1.1 14.6-3.2 22s-5.6 14.2-10.4 20.2c-4.8 6-11.2 11-19 14.7-7.9 3.8-17.4 5.7-28.6 5.7-14.2 0-25.5-2.7-33.8-8.2-8.3-5.4-12.5-14.4-12.5-26.8 0-8.5 2.6-15.4 8-20.9 5.3-5.4 12.1-9.7 20.4-12.7 8.3-3 17.5-5.1 27.7-6.1 10.1-1.1 20-1.6 29.7-1.6H382v13.7zm16.8-108.9c-7.3-6.7-16.5-11.9-27.9-15.9-11.3-3.9-24.9-5.9-40.6-5.9-15.1 0-30.3 2.6-45.4 7.9-15.1 5.3-28.4 13.2-39.9 23.8l5.4 5.6-.5-.5c.6.7 1.1 1.2 1.7 1.8l1.3 1.3c13.5 13.1 26.7 8.7 33.7 4.5 2.3-1.4 4.7-2.7 7.3-4 4.8-2.3 10.2-4.2 16.1-5.7 5.9-1.5 12.8-2.3 20.6-2.3 8.8 0 16.3 1.3 22.7 3.8 6.4 2.6 11.7 6 15.9 10.4 4.2 4.4 7.4 9.3 9.5 14.7 2.1 5.4 3.2 10.9 3.2 16.3v9.1h-30c-16.3 0-31.7 1.3-46.1 3.9-14.4 2.6-26.9 6.8-37.7 12.7-10.7 5.9-19.2 13.5-25.4 22.9-6.2 9.4-9.3 21-9.3 34.9 0 10.6 2 19.9 5.9 27.9 3.9 8 9.3 14.7 16.1 20.2 6.8 5.5 14.7 9.5 23.8 12.3 9.1 2.7 27 4.1 43.5 4.1 68.9 0 97.1-47.1 97.1-90.7V225.9c0-9.4-1.7-18.4-5.2-27-3.1-8.2-8.5-15.9-15.8-22.5M181.9 174.1c-7.1-6.7-15.4-11.6-25-14.7-9.5-3.2-19.4-4.8-29.7-4.8-16.6 0-31.3 3.6-44 10.7s-22.5 18-27.7 29.5v-6.3c-.9-23.9-18.7-27.8-26.2-28.4H14.7v185.2c.3 27 21.4 29.6 27.7 29.8h13.1V264.4c0-12.4 1.5-23.1 4.5-32.2 3-9.1 7.3-16.6 12.7-22.5 5.4-5.9 11.8-10.2 19.1-12.9 7.2-2.7 15.1-4.1 23.6-4.1 6.4 0 12.5 1 18.4 2.9 5.9 2 11.1 5.2 15.6 9.5 4.5 4.4 8.2 10.1 10.9 17.3 2.7 7.1 4.1 15.6 4.1 25.6v97.2c.3 27 21.4 29.6 27.7 29.8h13.1V236.7c0-14.2-2.1-26.5-6.3-37-4.2-10.4-9.9-18.9-17-25.6M746.2 160.1h-13.1v110.7c0 12.4-1.5 23.1-4.5 32.2-3 9.1-7.3 16.6-12.7 22.5-5.5 5.9-11.8 10.2-19.1 12.9-7.3 2.7-15.1 4.1-23.6 4.1-6.4 0-12.5-1-18.4-2.9-5.9-2-11.1-5.2-15.6-9.5-4.5-4.4-8.2-10.1-10.9-17.3-2.7-7.1-4.1-15.6-4.1-25.6V190c-.3-27-21.4-29.6-27.7-29.8h-13.1v138.4c0 14.2 2.1 26.6 6.3 37 4.3 10.4 9.9 19 17 25.6 7.1 6.7 15.4 11.6 25 14.7 9.5 3.2 19.4 4.8 29.7 4.8 16.6 0 31.3-3.6 44-10.7s22.5-18 27.7-29.5v6.3c.9 23.9 18.7 27.8 26.2 28.4H774V189.9c-.3-27-21.4-29.6-27.8-29.8M521.3 160.1h-30.1v-30c0-27.5-21.4-30.1-27.7-30.3H450.4v207.8c0 8.8.4 17.5 1.1 26.1.8 8.6 3.2 16.4 7.3 23.4s10.4 12.6 19.1 17c8.1 4.1 19.3 6.2 33.6 6.5H521.4c27-.3 29.6-21.3 29.8-27.7v-7.7h-31.1c-6.8-.2-12.2-1.6-15.9-4.2-4.1-2.9-7.1-6.7-9.1-11.3-2-4.7-3.6-10-3.9-15.9-.3-5.9 0-118.3 0-118.3h59.9v-7.7c-.1-6.4-2.8-27.5-29.8-27.7"/><g><path class="st1" d="M1548 252.8c-4.8-2.7-10.7-4-17.8-4-3.5 0-7.1.4-10.8 1.3-3.7.9-7.3 2.2-10.8 3.9-3.5 1.7-6.6 3.9-9.3 6.6-2.8 2.7-4.8 5.8-6.2 9.2v1.3c.7-.2 2.2-.4 4.5-.8 2.3-.3 3.8-.5 4.5-.5h29.9c1.2 0 3.3 0 6.2-.1 2.9-.1 6.1-.2 9.3-.3 3.3-.1 6.4-.2 9.3-.3 2.9-.1 5-.2 6.2-.4v-1c0-1.4-.4-2.4-1.3-3.1-4.3-5.2-8.9-9.1-13.7-11.8z"/><path class="st1" d="M1393.2 52.2l-.6-.6-.6.6c-217-176.8-647.1 255.7 0 560.7.2-.1.4-.3.6-.4.2.1.4.3.6.4 647-305 217-737.5 0-560.7zm-130.8 254.2c0 2.4 0 6.6-.1 12.6s-.2 12.3-.3 19.1c-.1 6.8-.2 13.1-.4 19.1-.2 6-.3 10.2-.3 12.6-.3 1.6-1 2.7-1.8 3.4-.9.7-1.9 1.2-3 1.4s-2.3.4-3.6.5c-1.3.1-2.6.1-3.8.1-.3 0-1.2.1-2.5.3-1.3.2-2.7.3-4.2.5s-2.9.3-4.2.4c-1.3.1-2.1.1-2.5.1h-18.9l-2.1-2.3-1.3-12.2c0-2.1 0-5.3.1-9.7.1-4.4.1-9.3.1-14.8v-17.3-17.3c0-5.5 0-10.4-.1-14.8s-.1-7.7-.1-9.7c0-1.7-.1-5.5-.3-11.2-.2-5.7-.4-12.4-.8-20-.3-7.6-.7-15.7-1-24.3-.3-8.6-.7-16.7-1-24.3-.3-7.6-.7-14.2-.9-19.9-.3-5.6-.4-9.4-.4-11.3v-5.7c0-.3.2-1 .5-2.1.2-.5.3-.9.5-1.3l6.8-1h35.6c.7 0 1.4.6 2.1 1.9.7 1.3 1 2.1 1 2.5.2.7.3 1.9.4 3.5.1 1.6.2 3.5.4 5.5s.3 3.8.4 5.5c.1 1.6.1 2.8.1 3.5v17.7c0 1.9.1 5.2.3 9.7.2 4.6.4 9.4.7 14.5.3 5.1.5 9.9.8 14.3.3 4.4.4 7.5.4 9.2 0 .2 0 .6.1 1.4.1.8.2 1.6.4 2.5.2.9.3 1.7.5 2.6.2.9.3 1.4.3 1.6.9 8.3 1.4 16.7 1.7 25.3.3 8.6.4 17.1.4 25.6v2.3zm9.6-121v-17.7c0-.3.4-1.3 1.3-3 .9-1.6 1.6-2.8 2.1-3.5 1.4-1.9 3.2-3.9 5.6-6 2.3-2.1 4.5-3.5 6.6-4.2.5 0 1.7 0 3.6-.1 1.9-.1 3-.1 3.4-.1.5 0 1.2 0 1.9.1.8.1 1.6.1 2.5.1h3.1c.9 0 2.2.5 4.2 1.4 1.9 1 3.1 1.6 3.6 1.9a28 28 0 0 1 5.2 3.8c1.4 1.3 3 2.9 4.9 4.8 1.9 2.4 3.1 4.9 3.5 7.4.4 2.5.7 5.2.7 8.2v6.8c0 1.6-.7 3.3-2.1 5.3-1.4 2-3 3.9-4.9 5.7-1.9 1.8-3.9 3.4-6.1 4.7-2.2 1.3-4.1 2-5.8 2.2h-6c-4.7 0-9.4-.9-14.2-2.9-4.8-1.9-8.4-5-10.8-9.3-.3-.5-.8-1.4-1.4-2.7-.6-1.2-.9-2.2-.9-2.9zm57.9 183.6c0 1.4-.3 2.6-.8 3.8-.5 1.1-1.4 2-2.6 2.7h-14.6c-2.4 0-5.4-.1-9-.3-3.6-.2-7.1-.3-10.5-.4-3.5-.1-7.7-.2-12.7-.4l-2.1-2.3-1.3-12.2c0-.2 0-2.1-.1-5.8-.1-3.7-.2-8.5-.3-14.3-.1-5.8-.2-12.3-.4-19.6-.2-7.3-.3-14.6-.5-21.9-.2-7.4-.3-14.4-.5-21-.2-6.7-.3-12.4-.3-17.3v-17.7c0-1.7 0-3.9.1-6.4.1-2.5.2-5 .4-7.4.2-2.8.3-5.6.5-8.6l2.3-1h42.3c.2 0 .5.3 1 .8s.8 1 .8 1.3c.3.5.6 1.8.8 3.8.2 2 .3 3.4.5 4.3l6.8 138.9v1zm83.9-157c1.4.1 2.9.2 4.4.4 1.6.2 3 .3 4.4.4 1.4.1 2.3.1 2.9.1.7.3 1.9.6 3.6.8 1.7.2 2.8.3 3.1.5.7 0 1 .3 1 1v41.3l-.5.5-.5.5c-.3.2-.8.4-1.3.8-.5.3-.9.5-1 .5-.5 0-1.4.1-2.7.4-1.3.3-2.6.5-4 .8-1.4.3-2.7.5-3.9.6-1.2.2-2.1.3-2.6.3l-1.8 1.3v111.9c0 .5-.6 1.4-1.8 2.6l-2.1 2.1c-.5 0-1.5 0-3 .1s-3.1.2-4.8.4c-1.7.2-3.3.3-4.8.4-1.5.1-2.5.1-3 .1h-6.7c-1.9 0-4.2 0-6.9-.1s-5.3-.2-7.9-.4c-3.1-.2-6.2-.3-9.3-.5l-1.3-2.3c0-.7 0-1.9.1-3.5s.1-3.4.1-5.3 0-3.7-.1-5.3c-.1-1.6-.1-2.8-.1-3.5 0-1-.1-3.5-.4-7.4-.3-3.9-.5-8.1-.8-12.6-.3-4.5-.5-8.7-.6-12.7-.2-4-.3-6.5-.3-7.5 0-2.1-.1-5.8-.3-11-.2-5.3-.3-10.8-.5-16.6-.2-5.8-.3-11.3-.4-16.6-.1-5.3-.1-9-.1-11 0-.3-.1-.9-.4-1.8-.3-.9-.5-1.4-.6-1.6-.2-.2-.3-.3-.3-.4 0-.1-.1-.2-.3-.4-.2-.2-.3-.3-.5-.3h-16.6c-.2 0-.4-.2-.6-.5-.3-.3-.5-.6-.7-.8-.2-.5-.4-1.5-.7-2.9-.3-1.4-.4-2.3-.4-2.9v-33.2l1-1c3.8.3 7.6.3 11.4-.1 3.8-.4 7.4-1.2 10.9-2.2 0-.9 0-2.3-.1-4.4-.1-2.1-.1-4.3-.1-6.8 0-2.4 0-4.7.1-6.8.1-2.1.1-3.5.1-4.4 0-.2.1-.9.4-2.1.3-1.2.6-2.5.9-3.9.3-1.4.7-2.8 1-4.2.3-1.4.7-2.4 1-3.1 3.3-10.2 8.5-17 15.7-20.4 7.2-3.4 15.8-5.1 25.8-5.1h3.9c.2 0 .8.1 1.8.3 1 .2 2.2.4 3.5.6 1.3.3 2.6.5 3.9.8 1.3.3 2.3.5 3 .6 1.2.2 3.3.7 6.2 1.6 2.9.9 6 1.9 9.1 3.2s5.8 2.7 8.2 4.2c2.3 1.5 3.5 2.9 3.5 4.3 0 .2 0 .3-.1.3s-.1.1-.1.3v.5c-.2.3-.5.9-.9 1.7-.4.8-.9 1.7-1.4 2.7-.5 1-1 2-1.4 2.9-.4.9-.6 1.4-.6 1.6-.2.3-.5 1.2-1 2.6-.5 1.4-1.1 2.9-1.7 4.5-.6 1.6-1.2 3.2-1.8 4.7l-1.2 3c-.5 2.1-1.7 3.1-3.6 3.1-2.1 0-4.2-.2-6.4-.6-2.2-.4-4.4-.6-6.6-.6-4.2 0-7.2.9-9.2 2.6-2 1.7-3 4.7-3 8.8v4.2c.5-.2 1.5-.2 2.8-.1zm193.8 81.3c-.2 2.5-.7 4.8-1.6 6.9-.9 2.1-2.2 3.8-4 5.1-1.8 1.3-4.5 2.1-7.9 2.5-.9 0-2.3.1-4.2.3-1.9.2-3.9.3-6 .4-2.1.1-4.1.2-6 .3-1.9.1-3.2.1-3.9.1-2.3 0-5.8 0-10.5.1-4.8.1-10.1.1-16.1.1h-37.6c-6 0-11.3 0-16.1-.1-4.8-.1-8.3-.1-10.5-.1-.7.3-1 .8-1 1.3v1.1c1.7 7.8 4.8 14.3 9.2 19.5 4.4 5.2 10.5 8.7 18.3 10.4h2.2c1.1 0 2.3 0 3.5.1 1.2.1 2.3.1 3.4.1h2.3c6.1 0 11.8-.5 17.3-1.6 5.5-1 10.8-3.1 16-6.2.3-.2 1.2-.8 2.6-1.8 1.4-1 2.9-2.1 4.5-3.2s3.2-2.2 4.7-3.1c1.5-.9 2.4-1.6 2.7-1.9.9-.7 1.5-1.1 1.8-1.2.3-.1 1-.1 1.8-.1 1 0 1.7 0 2.1.1.3.1 1 .5 1.8 1.2.3.3 1.1.9 2.2 1.7 1.1.8 2.3 1.6 3.6 2.6 1.3 1 2.6 1.9 3.9 2.7 1.3.9 2.2 1.6 2.7 2.1 1.9 1.4 4.1 3 6.5 4.8 2.4 1.8 3.6 3.9 3.6 6.4 0 1.4-.1 2.6-.4 3.6-.3 1-1 2-2.2 2.9-.7.7-1.9 1.9-3.6 3.8-1.7 1.8-3.6 3.7-5.6 5.7-2 2-3.9 3.9-5.8 5.7-1.9 1.8-3.2 3.1-3.9 3.8-1.9 1.9-4.2 3.6-7 5.2s-5.6 2.8-8.6 3.6c-.9.3-1.9.7-3.2 1-1.3.3-2.6.7-4 1-1.6.5-3.1.9-4.7 1.3h-39c-.3 0-1.3-.2-3-.5s-2.8-.6-3.5-.8c-2.4-.5-5.1-1.2-8-1.9-2.9-.8-5.5-1.6-7.8-2.5-2.3-.9-4.4-2-6.4-3.4s-3.9-2.8-5.8-4.2c-6.8-5.5-12.6-10.8-17.5-15.7-4.9-4.9-9-10.1-12.2-15.6-3.2-5.5-5.5-11.5-7-18.2-1.5-6.7-2.2-14.6-2.2-23.8 0-6.1.6-11.5 1.9-16.2 1.3-4.8 2.9-10.2 4.8-16.2.2-.5.4-1.4.8-2.6.3-1.2.8-2.5 1.3-3.9s1-2.8 1.4-4.2c.4-1.4.7-2.3.9-2.9 1.2-3.1 3.2-6.3 6-9.5s5.2-6 7.3-8.4c5.4-5.5 11.2-10 17.4-13.4 6.2-3.4 13.1-6.3 20.5-8.7 4.3-1.4 8.5-2.1 12.6-2.2 4.1-.1 8.4-.1 12.9-.1h2.9c1.4 0 2.9 0 4.4.1 1.6.1 3.1.1 4.5.1h3c5.5.9 11.1 2.5 16.8 4.9 5.6 2.4 11 5.4 16.1 8.8 5.1 3.5 9.8 7.4 14 11.9 4.2 4.5 7.7 9.3 10.5 14.3 6.9 12.1 10.4 24.9 10.4 38.4 0 3-.1 5.7-.3 8.2z"/></g></svg>