<svg width="20" height="20" viewBox="0 0 24 24" xmlns="http://www.w3.org/2000/svg"><path d="M22.853 19.618c-1.496-1.496-2.992-2.992-4.488-4.483-.072-.072-.16-.12-.243-.182.016-.023.027-.045.044-.067 0-.01 0-.017.005-.028.035-.055.068-.11.1-.166 1.126-1.917 1.536-3.984 1.21-6.178-.782-5.23-5.797-8.82-10.972-7.785-3.684.742-6.19 2.97-7.236 6.587-1.047 3.618-.122 6.827 2.6 9.43 2.924 2.8 7.34 3.314 10.875 1.347.2-.11.305-.1.466.06 1.507 1.525 3.025 3.032 4.538 4.55.35.35.754.6 1.247.665.937.126 1.868-.394 2.31-1.292.427-.853.26-1.745-.454-2.46zm-12.622-3.27c-3.54 0-6.404-2.858-6.437-6.426-.04-3.52 2.898-6.456 6.444-6.456 3.59 0 6.438 2.904 6.433 6.572-.006 3.435-2.942 6.31-6.44 6.31zm.289-11.131C8.048 5.095 6.298 6.67 5.738 8.204c1.418-1.17 3.014-1.707 4.815-1.574 1.812.133 3.32.92 4.554 2.29-.376-1.74-2.005-3.575-4.587-3.703z" fill="#4D4D4D"/></svg>