<svg width="195" height="161" viewBox="0 0 195 161" xmlns="http://www.w3.org/2000/svg" xmlns:xlink="http://www.w3.org/1999/xlink"><svg width="45" height="45" viewBox="0 0 346 347" y="116"><title>Untitled 8</title><g fill="none"><path d="M162.9 0h20.3c1.3.2 2.6.5 3.9.7 6.3.9 12.8 1.4 19 2.6 30.7 6 57.9 19.3 81.3 40.1 30.1 26.8 48.9 60.1 55.9 99.9 1.2 6.5 1.8 13.1 2.7 19.7v19.6c-.2 1.2-.5 2.4-.6 3.6-.8 6.2-1.2 12.6-2.4 18.7-5.9 30.7-19 58.1-39.6 81.6-26.9 30.7-60.6 49.8-100.8 56.9-6.4 1.1-12.9 1.8-19.3 2.7H163c-1.2-.2-2.4-.6-3.6-.6-14.4-1-28.5-4-42.2-8.7-33-11.5-60.2-31.2-81.4-58.9-17.2-22.5-28.4-47.6-33-75.6-1.1-6.5-1.8-13.1-2.7-19.7V163c.2-1.1.5-2.2.6-3.3.9-6.3 1.3-12.8 2.6-19 8.3-42.7 29.8-77.5 64-104.3 22.5-17.7 48-28.9 76.3-33.6 6.3-1.2 12.8-1.9 19.3-2.8z" fill="#549689"/><path d="M284 256.1c39-49.5 40.3-129.8-14.3-183.1-54.1-52.8-141.7-52.1-195 1.6-53.5 53.9-50.9 133.8-12.2 182.1 9.9-7.5 21.6-11.5 32.9-16.2 15.1-6.3 30.2-12.9 45.3-19.3 2-.9 2.7-2.1 2.6-4.2-.1-4.9-.1-9.7.2-14.6.2-3.5-.3-6.3-2.8-9-1.8-1.9-3.1-4.4-4-6.9-2-5.8-3.7-11.8-5.6-18-4.6-.1-7.1-3.8-9.2-7.8-2.8-5.2-2.1-10.6-1-16.1.8-3.9 1.9-7.5 6.7-8.1-.5-4.4-.9-8.6-1.5-12.8-2.3-16.3 2.8-29.8 16-39.6 16.9-12.5 35.5-14 54.3-5.3 17.1 7.9 26.6 21.6 25.1 41.3-.4 5.4-1.1 10.9-1.6 16.5 3.7.2 5.4 2.7 6 5.8.8 4.2 1.5 8.6 1.3 12.9-.3 6.5-5.4 12-11.6 13.4-.2.8-.3 1.7-.5 2.6-1.7 9-4.2 17.7-10.5 24.8-.6.7-.8 1.9-.8 2.9 0 6.3.1 12.6.3 18.9 0 1 1 2.5 1.9 2.9 9.7 4.5 19.4 8.8 29.1 13.1 16.4 7.1 33.9 11.9 48.9 22.2z" fill="#fff"/></g></svg><svg width="51" height="51" viewBox="0 0 51 51" x="66"><path fill="#1E1E1C" d="M50.6 21.1c-1-5.9-3.8-10.8-8.2-14.7-3.4-3.1-7.4-5-12-5.9-.9-.2-1.9-.3-2.8-.4-.2 0-.4-.1-.6-.1h-3c-.9.1-1.9.2-2.8.4-4.2.7-7.9 2.4-11.3 5-5 4-8.2 9.1-9.4 15.4-.2.9-.3 1.9-.4 2.8 0 .1-.1.2-.1.4v2.9c.1 1 .2 1.9.4 2.9.7 4.1 2.3 7.8 4.9 11.1 3.1 4.1 7.1 7 12 8.7 2 .7 4.1 1.1 6.2 1.3.2 0 .4.1.5.1h3c1-.1 1.9-.2 2.9-.4 5.9-1.1 10.9-3.9 14.9-8.4 3-3.5 5-7.5 5.8-12 .2-.9.2-1.8.4-2.8 0-.2.1-.4.1-.5V24c-.2-1-.3-1.9-.5-2.9zm-8.7 16.7c-2.2-1.5-4.8-2.2-7.2-3.3-1.4-.6-2.9-1.3-4.3-1.9-.1-.1-.3-.3-.3-.4 0-.9 0-1.9-.1-2.8 0-.1 0-.3.1-.4.9-1 1.3-2.3 1.6-3.7 0-.1.1-.3.1-.4.9-.2 1.7-1 1.7-2 0-.6-.1-1.3-.2-1.9-.1-.5-.3-.8-.9-.9.1-.8.2-1.6.2-2.4.2-2.9-1.2-4.9-3.7-6.1-2.8-1.3-5.5-1.1-8 .8-1.9 1.4-2.7 3.4-2.4 5.8.1.6.1 1.2.2 1.9-.7.1-.9.6-1 1.2-.2.8-.3 1.6.2 2.4.3.6.7 1.1 1.4 1.2.3.9.5 1.8.8 2.7.1.4.3.7.6 1 .4.4.4.8.4 1.3v2.2c0 .3-.1.5-.4.6-2.2.9-4.4 1.9-6.7 2.8-1.7.7-3.4 1.3-4.9 2.4-5.6-7.2-6-19 1.9-26.9 7.9-7.9 20.8-8 28.7-.2 8.1 7.8 7.9 19.7 2.2 27z"/></svg><svg width="23" height="50" viewBox="0 0 33 70" y="66"><title>Untitled 9</title><path d="M2.8 69.9L.7 67.8l27.2-27.2c1.4-1.4 2.1-3.2 2.1-5.2 0-1.9-.8-3.8-2.1-5.2L.7 3 2.8.9 30 28.1c1.9 1.9 3 4.5 3 7.3s-1.1 5.3-3 7.3L2.8 69.9z" fill="#fff"/></svg><svg width="23" height="50" viewBox="0 0 33 70" x="23" y="66"><title>Untitled 9</title><path d="M2.8 69.9L.7 67.8l27.2-27.2c1.4-1.4 2.1-3.2 2.1-5.2 0-1.9-.8-3.8-2.1-5.2L.7 3 2.8.9 30 28.1c1.9 1.9 3 4.5 3 7.3s-1.1 5.3-3 7.3L2.8 69.9z"/></svg><svg width="48" height="48" viewBox="0 0 51 51" x="46" y="66"><title>Untitled 5</title><g fill="#EE7203" fill-rule="evenodd"><path d="M16.8 36.6c-.3 0-.5.1-.6.3-.2.2-.3.4-.3.7 0 .3.1.5.3.7.2.2.4.3.6.3.2 0 .5-.1.6-.3.2-.2.3-.4.3-.7 0-.3-.1-.5-.3-.7-.1-.2-.3-.3-.6-.3zm16.6 1.8c.3 0 .5-.1.6-.3.2-.2.3-.4.3-.7 0-.3-.1-.5-.3-.7-.2-.2-.4-.3-.6-.3-.3 0-.5.1-.7.3-.2.2-.3.4-.3.7 0 .3.1.5.3.7.2.2.4.3.7.3z"/><path d="M25.5-.1C11.4-.1 0 11.3 0 25.4s11.4 25.5 25.5 25.5S51 39.5 51 25.4 39.6-.1 25.5-.1zM39.8 20H38l-1.8 11H23l-3.9 5 .3.6h11.4c.1-.4.4-.7.6-1 .5-.5 1.2-.8 2-.8s1.5.3 1.9.8c.5.5.8 1.2.8 2s-.3 1.5-.8 2-1.2.8-1.9.8c-.8 0-1.5-.3-2-.8-.3-.3-.5-.6-.6-1H19.4c-.1.4-.4.7-.6 1-.5.5-1.2.8-1.9.8-.8 0-1.5-.3-1.9-.8-.5-.5-.8-1.2-.8-1.9 0-.8.3-1.5.8-2s1.2-.8 1.9-.8c.3 0 .6.1.9.2l3-3.8h-2.9l-1.8-12.9-3.7-3.7c-1 0-1.8-.8-1.8-1.8s.8-1.8 1.8-1.8 1.8.8 1.8 1.8l3.7 3.7L40 18.4V20h-.2z"/></g></svg><svg width="48" height="48" viewBox="0 0 51 51" x="117"><title>Untitled 5</title><g fill="none" fill-rule="evenodd"><path d="M16.8 36.6c-.3 0-.5.1-.6.3-.2.2-.3.4-.3.7 0 .3.1.5.3.7.2.2.4.3.6.3.2 0 .5-.1.6-.3.2-.2.3-.4.3-.7 0-.3-.1-.5-.3-.7-.1-.2-.3-.3-.6-.3zm16.6 1.8c.3 0 .5-.1.6-.3.2-.2.3-.4.3-.7 0-.3-.1-.5-.3-.7-.2-.2-.4-.3-.6-.3-.3 0-.5.1-.7.3-.2.2-.3.4-.3.7 0 .3.1.5.3.7.2.2.4.3.7.3z" fill="#b0afb5"/><path d="M25.5-.1C11.4-.1 0 11.3 0 25.4s11.4 25.5 25.5 25.5S51 39.5 51 25.4 39.6-.1 25.5-.1zM39.8 20H38l-1.8 11H23l-3.9 5 .3.6h11.4c.1-.4.4-.7.6-1 .5-.5 1.2-.8 2-.8s1.5.3 1.9.8c.5.5.8 1.2.8 2s-.3 1.5-.8 2-1.2.8-1.9.8c-.8 0-1.5-.3-2-.8-.3-.3-.5-.6-.6-1H19.4c-.1.4-.4.7-.6 1-.5.5-1.2.8-1.9.8-.8 0-1.5-.3-1.9-.8-.5-.5-.8-1.2-.8-1.9 0-.8.3-1.5.8-2s1.2-.8 1.9-.8c.3 0 .6.1.9.2l3-3.8h-2.9l-1.8-12.9-3.7-3.7c-1 0-1.8-.8-1.8-1.8s.8-1.8 1.8-1.8 1.8.8 1.8 1.8l3.7 3.7L40 18.4V20h-.2z" fill="#FBBC31"/></g></svg><svg width="48" height="48" viewBox="0 0 51 51" x="117" y="48"><title>Untitled 5</title><g fill="#b0afb5" fill-rule="evenodd"><path d="M16.8 36.6c-.3 0-.5.1-.6.3-.2.2-.3.4-.3.7 0 .3.1.5.3.7.2.2.4.3.6.3.2 0 .5-.1.6-.3.2-.2.3-.4.3-.7 0-.3-.1-.5-.3-.7-.1-.2-.3-.3-.6-.3zm16.6 1.8c.3 0 .5-.1.6-.3.2-.2.3-.4.3-.7 0-.3-.1-.5-.3-.7-.2-.2-.4-.3-.6-.3-.3 0-.5.1-.7.3-.2.2-.3.4-.3.7 0 .3.1.5.3.7.2.2.4.3.7.3z"/><path d="M25.5-.1C11.4-.1 0 11.3 0 25.4s11.4 25.5 25.5 25.5S51 39.5 51 25.4 39.6-.1 25.5-.1zM39.8 20H38l-1.8 11H23l-3.9 5 .3.6h11.4c.1-.4.4-.7.6-1 .5-.5 1.2-.8 2-.8s1.5.3 1.9.8c.5.5.8 1.2.8 2s-.3 1.5-.8 2-1.2.8-1.9.8c-.8 0-1.5-.3-2-.8-.3-.3-.5-.6-.6-1H19.4c-.1.4-.4.7-.6 1-.5.5-1.2.8-1.9.8-.8 0-1.5-.3-1.9-.8-.5-.5-.8-1.2-.8-1.9 0-.8.3-1.5.8-2s1.2-.8 1.9-.8c.3 0 .6.1.9.2l3-3.8h-2.9l-1.8-12.9-3.7-3.7c-1 0-1.8-.8-1.8-1.8s.8-1.8 1.8-1.8 1.8.8 1.8 1.8l3.7 3.7L40 18.4V20h-.2z"/></g></svg><svg width="30" height="30" viewBox="0 0 40 40" x="107" y="116"><title>Untitled 7</title><path d="M19.6.4C8.8.4 0 9.2 0 20s8.8 19.6 19.6 19.6S39.2 30.8 39.2 20 30.4.4 19.6.4zm7.3 25.1h-4.6c-.2 0-.3 0-.5.2-1.9 2.1-3.8 4.3-5.7 6.4l-.3.3c-.3.3-.6.4-1 .3-.4-.1-.6-.5-.6-1v-6.2h-1.9c-.7 0-1.4-.5-1.7-1.2 0-.1-.1-.2-.1-.2V12.4c0-.1.1-.2.1-.3.3-.8.9-1.2 1.7-1.2H27c.9 0 1.7.9 1.7 1.8v10.9c.1 1-.8 1.9-1.8 1.9z" fill="#BDBCBC"/></svg><svg width="16" height="16" viewBox="0 0 14 14" x="165" y="88"><title>Slice 1</title><path d="M11.9 6.34H2v2.3h9.9v-2.3z"/></svg><svg width="16" height="16" viewBox="0 0 14 14" x="165" y="72"><title>Slice 1</title><path d="M2 6.356h3.798V2.558h2.268v3.798h3.798v2.268H8.066v3.798H5.798V8.624H2V6.356z"/></svg><svg width="30" height="30" viewBox="0 0 40 40" x="77" y="116"><title>Untitled 6</title><path d="M13.2 16.5c-.4 0-.8.1-1.1.4l-1.4 1.4c-.1.2-.3.4-.3.5v1.6h5.5v-4c-.9.1-1.8.1-2.7.1zm.4 8.6c-.7 0-1.3.6-1.3 1.3 0 .7.6 1.2 1.2 1.2.7 0 1.3-.5 1.3-1.2.1-.8-.5-1.3-1.2-1.3zM20 .4C9.2.4.4 9.2.4 20S9.2 39.6 20 39.6 39.6 30.8 39.6 20 30.8.4 20 .4zm9.9 26c-.2.1-.5.1-.8.2h-.5c-.1 1.2-.7 2.2-1.7 2.9-.7.5-1.6.7-2.4.6-1.6-.1-3.2-1.3-3.5-3.5h-3.5c-.1 1.1-.6 2-1.5 2.7-.7.5-1.5.8-2.3.8-1.5 0-3.6-1.1-3.8-3.5H8.3c-.8 0-1.3-.5-1.4-1-.1-.7.2-1.2 1-1.5v-4.9c0-.8.3-1.5.9-2.1l2.3-2.3c.6-.6 1.2-.8 2-.8H16v-.7c0-.6 0-1.1.1-1.7.1-.9 1-1.6 1.9-1.6h11.3c1 0 1.9.8 1.9 1.9v12.6c-.1.8-.5 1.5-1.3 1.9zm-5.1-1.3c-.7 0-1.3.6-1.3 1.3 0 .7.5 1.3 1.3 1.3.7 0 1.3-.6 1.3-1.3-.1-.8-.7-1.3-1.3-1.3z" fill="#BDBCBC"/></svg><svg width="33" height="66" viewBox="0 0 33 66" x="33"><title>Untitled 4</title><path d="M33.102 63.31L5.658 36.032s-4.39-3.19 0-7.657c4.39-4.468 27.444-26.93 27.444-26.93l-1.824-1.64-28.695 28.57s-3.35 3.926 0 7.657c3.352 3.73 28.695 28.764 28.695 28.764l1.824-1.486z" fill="#4E988B"/></svg><svg width="33" height="66" viewBox="0 0 33 66"><title>Untitled 4</title><path d="M.898 1.69l27.444 27.278s4.39 3.19 0 7.657C23.952 41.093.898 63.555.898 63.555l1.824 1.64 28.695-28.57s3.35-3.926 0-7.657C28.065 25.238 2.722.204 2.722.204L.898 1.69z" fill="#4E988B"/></svg><svg width="24" height="24" viewBox="0 0 24 24" x="165" y="30"><path fill="#FCCC00" d="M12.1 0l-3 9.1H0l7.3 5.8L4.6 24l7.5-5.6 7.4 5.6-2.8-9.1L24 9.2h-9.2z"/></svg><svg width="30" height="30" viewBox="0 0 448 448" x="165"><title>Slice 1</title><path d="M223.8.2C100.4.2-.3 101 .1 224.7c.4 122.5 99 220.6 219 223.1 125 2.6 226.4-97.3 228.7-219.5C450.2 102 347.7-.1 223.8.2zm141.3 332.4c-1.4 3.3-3.6 6.4-6 9-4.3 4.8-9.5 9-13.6 13.9-8.1 9.6-18 13.9-25.5 12.9-70.9-3.4-127.5-27.7-173.3-75.6-37.6-39.3-59-86.5-65.2-140.5-1-8.7-1.4-17.6-1.3-26.4 0-7 2.5-13.3 7.6-18.4 5.7-5.6 11.3-11.3 17-17 11.7-11.6 28.2-14.2 42.7-6 9.6 5.4 16.6 13.3 19.5 24.2 3.2 11.7 6.5 23.4 9.5 35.2 3.3 13.3.2 25-9.1 35.1-2 2.2-4 4.6-6.4 6.3-5.9 4.2-5.9 9-3.5 15.4 17 45.3 48.2 75.8 94 91.3 3.8 1.3 6.5 1.1 9.2-2.2 2.7-3.3 6-6.2 9.1-9.2 9.4-9 20.8-12 33.2-9.2 12.8 2.9 25.4 6.6 38 10.4 21.2 6.5 32.7 30.7 24.1 50.8z" fill="#BDBCBC"/></svg><svg width="18" height="18" viewBox="0 0 448 448" x="165" y="54"><title>Slice 1</title><path d="M223.8.2C100.4.2-.3 101 .1 224.7c.4 122.5 99 220.6 219 223.1 125 2.6 226.4-97.3 228.7-219.5C450.2 102 347.7-.1 223.8.2zm141.3 332.4c-1.4 3.3-3.6 6.4-6 9-4.3 4.8-9.5 9-13.6 13.9-8.1 9.6-18 13.9-25.5 12.9-70.9-3.4-127.5-27.7-173.3-75.6-37.6-39.3-59-86.5-65.2-140.5-1-8.7-1.4-17.6-1.3-26.4 0-7 2.5-13.3 7.6-18.4 5.7-5.6 11.3-11.3 17-17 11.7-11.6 28.2-14.2 42.7-6 9.6 5.4 16.6 13.3 19.5 24.2 3.2 11.7 6.5 23.4 9.5 35.2 3.3 13.3.2 25-9.1 35.1-2 2.2-4 4.6-6.4 6.3-5.9 4.2-5.9 9-3.5 15.4 17 45.3 48.2 75.8 94 91.3 3.8 1.3 6.5 1.1 9.2-2.2 2.7-3.3 6-6.2 9.1-9.2 9.4-9 20.8-12 33.2-9.2 12.8 2.9 25.4 6.6 38 10.4 21.2 6.5 32.7 30.7 24.1 50.8z" fill="#4D4D4D"/></svg><svg width="32" height="32" viewBox="0 0 32 32" x="45" y="116"><path fill="#444" d="M18 22.082v-1.649c2.203-1.241 4-4.337 4-7.432 0-4.971 0-9-6-9s-6 4.029-6 9c0 3.096 1.797 6.191 4 7.432v1.649C7.216 22.637 2 25.97 2 30h28c0-4.03-5.216-7.364-12-7.918z"/></svg></svg>