<svg width="242" height="222" viewBox="0 0 242 222" xmlns="http://www.w3.org/2000/svg" xmlns:xlink="http://www.w3.org/1999/xlink"><svg width="38" height="38" viewBox="0 0 38 38" x="160" y="82"><title>Page 1 Copy 2</title><defs><ellipse id="b" cx="18.857" cy="18" rx="18.103" ry="18"/><path d="M.148 25.226s.69-.346 1.132-.53c1.01-.419 2.15-.86 3.422-1.325 1.272-.464 2.204-.851 2.796-1.16a4.125 4.125 0 0 0 1.74-1.708 4.778 4.778 0 0 0 .619-2.336c0-.55-.32-1.198-.961-1.947-.65-.769-1.177-1.814-1.58-3.137s-.604-2.848-.604-4.575c0-1.298.18-2.454.538-3.467.36-1.014.85-1.825 1.471-2.434a6.355 6.355 0 0 1 2.119-1.385A6.815 6.815 0 0 1 13.38.75c.903 0 1.746.157 2.527.472a6.475 6.475 0 0 1 2.111 1.385c.627.609 1.12 1.42 1.478 2.434.36 1.013.54 2.169.54 3.467 0 1.727-.2 3.252-.598 4.575-.398 1.323-.922 2.368-1.572 3.137-.65.759-.976 1.408-.976 1.947 0 .799.209 1.575.626 2.329.418.754 1 1.325 1.747 1.714.593.31 1.525.697 2.796 1.161a78.4 78.4 0 0 1 3.408 1.325c.446.188 1.142.541 1.142.541" id="a"/><mask id="d" x="-1" y="-1" width="28.461" height="26.487"><path fill="#fff" d="M-.852-.25h28.461v26.487H-.852z"/><use xlink:href="#a"/></mask></defs><g transform="translate(0 1)" fill="none" fill-rule="evenodd"><mask id="c" fill="#fff"><use xlink:href="#b"/></mask><use stroke="#FFF" xlink:href="#b"/><use mask="url(#d)" xlink:href="#a" transform="translate(5.404 7.5)" stroke="#FFF" stroke-width="2"/></g></svg><svg width="160" height="134" viewBox="0 0 116 98"><title>arrow</title><path d="M1.072 40.906h77.724L38.75.86h27.157l48.901 48.901-47.086 47.086H42.128l36.94-36.94H1.072v-19z" fill="#fff"/></svg><svg width="10" height="7" viewBox="0 0 10 7" x="214" y="194.2"><title>Rectangle 4</title><path d="M8.657 1.828L4.828 5.657 1 1.828" stroke="#72C44B" stroke-width="1.8" fill="none" fill-rule="evenodd" stroke-linecap="round" stroke-linejoin="round"/></svg><svg width="7" height="13" viewBox="0 0 7 13" x="234" y="25"><title>icon/arrow-menu-on</title><path d="M6.343 1L.686 6.657l5.657 5.657" stroke="#FFF" stroke-width="1.3" fill="none" fill-rule="evenodd" stroke-linecap="round" stroke-linejoin="round"/></svg><svg width="7" height="13" viewBox="0 0 7 13" x="203" y="54"><title>Rectangle 5</title><path d="M.657 1l5.657 5.657-5.657 5.657" stroke="#444" stroke-width="1.3" fill="none" fill-rule="evenodd" stroke-linecap="round" stroke-linejoin="round"/></svg><svg width="7" height="13" viewBox="0 0 7 13" x="234" y="38"><title>Rectangle 5</title><path d="M.657 1l5.657 5.657-5.657 5.657" stroke="#72C44B" stroke-width="1.3" fill="none" fill-rule="evenodd" stroke-linecap="round" stroke-linejoin="round"/></svg><svg width="23" height="25" viewBox="0 0 23 25" x="214" y="77"><title>Page 1</title><path d="M19.271 16.903l-1.527.038a.165.165 0 0 1-.134-.16v-5.316c0-.08.058-.144.134-.16l1.527.038c1.401.09 2.326 1.393 2.326 2.78 0 1.387-1.111 2.67-2.326 2.78zm-3.397 5.934a.166.166 0 0 1-.166.166h-1.383a.166.166 0 0 1-.166-.166v-.89c0-.092.075-.167.166-.167h1.383c.091 0 .166.075.166.166v.89zM4.322 11.299h1.496c.091 0 .166.075.166.166v5.316a.166.166 0 0 1-.166.166H4.322c-1.32-.236-2.325-1.437-2.325-2.824 0-1.387 1.005-2.588 2.325-2.824zm18.272 2.824a3.82 3.82 0 0 0-1.688-3.168.493.493 0 0 0 .026-.154C20.932 4.847 17.346 1 11.797 1 6.247 1 2.66 4.847 2.66 10.8c0 .055.01.105.027.155a3.818 3.818 0 0 0 2.133 6.989h.498v-.017c.055.008.11.017.166.017h.333c.64 0 1.162-.522 1.162-1.163v-5.316c0-.641-.521-1.163-1.162-1.163H4.82c-.403 0-.792.064-1.157.18.12-5.242 3.212-8.485 8.133-8.485 4.921 0 8.013 3.243 8.133 8.485a3.797 3.797 0 0 0-1.157-.18h-.996c-.642 0-1.163.522-1.163 1.163v5.316c0 .641.521 1.163 1.163 1.163h.332c.057 0 .111-.009.166-.017v.017h.498a3.79 3.79 0 0 0 1.163-.183v1.346a2.827 2.827 0 0 1-2.824 2.824h-.242a1.163 1.163 0 0 0-1.161-1.147h-1.384c-.641 0-1.163.521-1.163 1.163v.89c0 .641.522 1.163 1.163 1.163h1.383c.61 0 1.106-.474 1.154-1.073h.25a3.825 3.825 0 0 0 3.82-3.82v-1.662a.494.494 0 0 0-.027-.153 3.818 3.818 0 0 0 1.689-3.17z" stroke="#72C44B" stroke-width=".1" fill="#444" fill-rule="evenodd"/></svg><svg width="43" height="28" viewBox="0 0 232 171" x="160" y="54"><title>Untitled 11</title><path d="M-1.7 172.033h19.5V-.705H-1.7v172.738zm107.1 0h19.9V-.705h-20.1c.3 57.58.2 115.159.2 172.738zm82.4 0h10.6V-.705h-10.6v172.738zM228-.705v172.738h5.4V-.705H228zM76.7 172.033h10.5V-.705H76.7v172.738zm-40 0H47V-.705H36.7v172.738zm107.6 0h10.2V-.705h-10.2v172.738zm-119.9 0h6.3V-.705h-6.4c.2 57.58.2 115.159.1 172.738zm107.6 0h6V-.705h-6.1c.1 57.58.1 115.159.1 172.738zm-41.5 0h5.8c.1-57.58.1-115.158.1-172.738h-5.9v172.738zm118.9 0h6.3V-.705h-6.4c.2 57.58.1 115.159.1 172.738zm-150.7 0h5.4V-.705h-5.4v172.738zm107.4 0h5.5V-.705h-5.5v172.738zM72-.705h-4.8c-.1 57.58-.1 115.159 0 172.738H72c.1-28.313.1-56.699.1-85.012 0-29.266.1-58.46-.1-87.726zm146.5 0c-.1 28.753-.1 57.58-.1 86.333 0 28.826-.1 57.579.1 86.332h4.6c.1-57.58.1-115.159 0-172.738h-4.6v.073zm-39 0h-4.7c-.1 57.58-.1 115.159 0 172.738h4.7c.1-28.02.1-55.965.1-83.985-.1-29.56 0-59.193-.1-88.753z" fill-rule="evenodd"/></svg><svg width="36" height="36" viewBox="0 0 28 28" x="36" y="134"><title>Untitled 3</title><path d="M9.324 20.15c-.165 0-.275.054-.33.164a.499.499 0 0 0-.165.384c0 .165.054.275.164.384.11.11.22.165.33.165.11 0 .274-.055.33-.165.11-.11.164-.22.164-.384a.497.497 0 0 0-.165-.384c-.055-.11-.165-.165-.33-.165zm9.113.987c.165 0 .275-.055.33-.164.11-.11.164-.22.164-.385a.5.5 0 0 0-.163-.384c-.11-.11-.22-.165-.33-.165a.498.498 0 0 0-.384.164.499.499 0 0 0-.165.384.5.5 0 0 0 .165.385c.11.11.22.164.384.164zM14.1 0C6.36 0 .1 6.26.1 14s6.26 14 14 14 14-6.26 14-14-6.26-14-14-14zm7.85 11.035h-.987l-.988 6.04h-7.248l-2.14 2.745.164.33h6.26c.055-.22.22-.385.33-.55.274-.275.658-.44 1.097-.44.44 0 .824.165 1.043.44.275.275.44.66.44 1.098 0 .44-.165.824-.44 1.098-.274.275-.658.44-1.043.44a1.53 1.53 0 0 1-1.098-.44 1.141 1.141 0 0 1-.33-.55h-6.26c-.054.22-.22.385-.328.55-.275.275-.66.44-1.044.44-.44 0-.823-.165-1.043-.44a1.504 1.504 0 0 1-.44-1.043c0-.44.166-.824.44-1.098.275-.275.66-.44 1.043-.44.165 0 .33.056.495.11l1.647-2.086H9.927l-.988-7.083-2.032-2.032a.984.984 0 0 1-.988-.988c0-.55.44-.988.988-.988.55 0 .988.438.988.987l2.03 2.032 12.135.987v.878h-.11z" fill="#ec7e00"/></svg><svg width="36" height="36" viewBox="0 0 28 28" x="108" y="134"><title>Untitled 3</title><path d="M9.324 20.15c-.165 0-.275.054-.33.164a.499.499 0 0 0-.165.384c0 .165.054.275.164.384.11.11.22.165.33.165.11 0 .274-.055.33-.165.11-.11.164-.22.164-.384a.497.497 0 0 0-.165-.384c-.055-.11-.165-.165-.33-.165zm9.113.987c.165 0 .275-.055.33-.164.11-.11.164-.22.164-.385a.5.5 0 0 0-.163-.384c-.11-.11-.22-.165-.33-.165a.498.498 0 0 0-.384.164.499.499 0 0 0-.165.384.5.5 0 0 0 .165.385c.11.11.22.164.384.164zM14.1 0C6.36 0 .1 6.26.1 14s6.26 14 14 14 14-6.26 14-14-6.26-14-14-14zm7.85 11.035h-.987l-.988 6.04h-7.248l-2.14 2.745.164.33h6.26c.055-.22.22-.385.33-.55.274-.275.658-.44 1.097-.44.44 0 .824.165 1.043.44.275.275.44.66.44 1.098 0 .44-.165.824-.44 1.098-.274.275-.658.44-1.043.44a1.53 1.53 0 0 1-1.098-.44 1.141 1.141 0 0 1-.33-.55h-6.26c-.054.22-.22.385-.328.55-.275.275-.66.44-1.044.44-.44 0-.823-.165-1.043-.44a1.504 1.504 0 0 1-.44-1.043c0-.44.166-.824.44-1.098.275-.275.66-.44 1.043-.44.165 0 .33.056.495.11l1.647-2.086H9.927l-.988-7.083-2.032-2.032a.984.984 0 0 1-.988-.988c0-.55.44-.988.988-.988.55 0 .988.438.988.987l2.03 2.032 12.135.987v.878h-.11z" fill="#fbbc30"/></svg><svg width="36" height="36" viewBox="0 0 28 28" y="134"><title>Untitled 3</title><path d="M9.324 20.15c-.165 0-.275.054-.33.164a.499.499 0 0 0-.165.384c0 .165.054.275.164.384.11.11.22.165.33.165.11 0 .274-.055.33-.165.11-.11.164-.22.164-.384a.497.497 0 0 0-.165-.384c-.055-.11-.165-.165-.33-.165zm9.113.987c.165 0 .275-.055.33-.164.11-.11.164-.22.164-.385a.5.5 0 0 0-.163-.384c-.11-.11-.22-.165-.33-.165a.498.498 0 0 0-.384.164.499.499 0 0 0-.165.384.5.5 0 0 0 .165.385c.11.11.22.164.384.164zM14.1 0C6.36 0 .1 6.26.1 14s6.26 14 14 14 14-6.26 14-14-6.26-14-14-14zm7.85 11.035h-.987l-.988 6.04h-7.248l-2.14 2.745.164.33h6.26c.055-.22.22-.385.33-.55.274-.275.658-.44 1.097-.44.44 0 .824.165 1.043.44.275.275.44.66.44 1.098 0 .44-.165.824-.44 1.098-.274.275-.658.44-1.043.44a1.53 1.53 0 0 1-1.098-.44 1.141 1.141 0 0 1-.33-.55h-6.26c-.054.22-.22.385-.328.55-.275.275-.66.44-1.044.44-.44 0-.823-.165-1.043-.44a1.504 1.504 0 0 1-.44-1.043c0-.44.166-.824.44-1.098.275-.275.66-.44 1.043-.44.165 0 .33.056.495.11l1.647-2.086H9.927l-.988-7.083-2.032-2.032a.984.984 0 0 1-.988-.988c0-.55.44-.988.988-.988.55 0 .988.438.988.987l2.03 2.032 12.135.987v.878h-.11z" fill="#b0afb5"/></svg><svg width="36" height="36" viewBox="0 0 40 40" x="72" y="134"><title>Untitled 2</title><path d="M17.6 30.5l-8.8-8.8 2-2 6.8 6.8L35.8 8.3c-3.6-4.8-9.3-8-15.7-8C9.3.3.5 9.1.5 19.9s8.8 19.6 19.6 19.6 19.6-8.8 19.6-19.6c0-3.3-.8-6.4-2.3-9.2L17.6 30.5z" fill="#439284"/></svg><svg viewBox="293 383 26 26" width="26" height="26" x="214" y="51"><path fill="#8D3C7E" d="M304.5 402.5l-5.4-5.4 1.2-1.2 4.2 4.2 11.1-11.1c-2.2-2.9-5.7-4.9-9.6-4.9-6.6 0-12 5.4-12 12s5.4 12 12 12 12-5.4 12-12c0-2-.5-3.9-1.4-5.6l-12.1 12z"/></svg><svg width="34" height="34" viewBox="0 0 34 34" x="144" y="134"><title>Untitled 7</title><path d="M15.54 26.187a1.364 1.364 0 0 1-.938.383c-.352 0-.693-.128-.96-.394-2.45-2.452-6.192-6.182-6.544-6.502a1.357 1.357 0 0 1-.16-1.886 1.38 1.38 0 0 1 1.92-.192c.063.053.244.202 5.765 5.723L30.898 7.704C27.818 3.345 22.745.5 17 .5 7.61.5 0 8.11 0 17.5s7.61 17 17 17 17-7.63 17-17.02c0-2.645-.608-5.15-1.684-7.388L15.54 26.187z" fill="#fff"/></svg><svg width="34" height="30" viewBox="0 0 34 30" x="178" y="134"><title>Shape</title><path d="M1 1.372c0 .206.167.372.372.372h4.163l4 18.874a.374.374 0 0 0 .396.477h18.606a.372.372 0 1 0 0-.745H10.233l-.79-3.72h20.583a.372.372 0 0 0 .36-.292l2.605-11.163a.372.372 0 0 0-.36-.454H6.918l-.72-3.43A.372.372 0 0 0 5.837 1H1.372A.372.372 0 0 0 1 1.372zm6.082 4.093h25.083l-2.43 10.42H9.28L7.082 5.465zm6.942 17.862a2.983 2.983 0 0 0-2.977 2.977 2.983 2.983 0 0 0 2.977 2.977 2.983 2.983 0 0 0 2.977-2.977 2.983 2.983 0 0 0-2.977-2.977zm10.42 0a2.983 2.983 0 0 0-2.977 2.977 2.983 2.983 0 0 0 2.977 2.977 2.983 2.983 0 0 0 2.977-2.977 2.983 2.983 0 0 0-2.977-2.977zm-10.42.745c1.238 0 2.233.995 2.233 2.232a2.227 2.227 0 0 1-2.233 2.233 2.227 2.227 0 0 1-2.232-2.233c0-1.237.995-2.232 2.232-2.232zm10.42 0c1.237 0 2.233.995 2.233 2.232a2.227 2.227 0 0 1-2.233 2.233 2.227 2.227 0 0 1-2.233-2.233c0-1.237.995-2.232 2.233-2.232z" stroke="#72C44B" stroke-width=".4" fill="#72C44B" fill-rule="evenodd"/></svg><svg width="32" height="32" viewBox="0 0 256 257" x="34" y="170"><title>Untitled 12</title><path d="M170 0c4.4 2.2 9.5 3.7 12.9 6.9 4 3.7 8 8.6 9.4 13.7 6.7 25.1 12.6 50.3 18.8 75.6.1.5 0 1 0 2.3h-5.8c-38.5 0-77-.1-115.5 0-24.2.1-43.5 13.6-49.2 35.4-2.2 8.2-1.7 17.1-2.3 25.7-.1 1.9 0 3.9 0 6.4-9-3.7-14.8-9.6-17-18-7-27.1-13.8-54.2-19.9-81.5-3.3-14.8 7.4-29.2 23.5-33.2 30.4-7.5 60.8-14.9 91.2-22.3 13.6-3.3 27.1-6.6 40.7-10 .8-.2 1.4-.7 2.1-1H170zm-28.1 50.8c2.9 11.6 5.5 22.3 8.2 33.3 11.4-2.8 22.2-5.5 33.3-8.2-2.8-11.5-5.5-22.2-8.2-33.2-11.4 2.7-22.2 5.4-33.3 8.1zM82 256c-3.3-1.5-6.8-2.6-9.8-4.5-9-5.6-13.9-13.9-14-24.4-.2-26.6-.3-53.3 0-79.9.2-16.5 13.2-29 30-29 33.6-.1 67.2 0 100.9 0h34c16.2 0 26.1 7.3 31.2 22.7.1.4.6.8.8 1.2v90c-1.2 2.9-2.3 5.8-3.7 8.6-4.3 8.4-11.8 12.6-20.3 15.4-49.8-.1-99.4-.1-149.1-.1zm-8.1-68.8c0 13.1-.1 25.7 0 38.3.1 9.1 5.5 14.6 14.7 14.6 45.3.1 90.6.1 135.9 0 9.2 0 14.6-5.4 14.7-14.6.1-11.7 0-23.3 0-35 0-1.1-.3-2.2-.4-3.4-55 .1-109.5.1-164.9.1zm.2-29.9h165.1v-5.1c0-13.8-4.4-18.2-18.2-18.2H88.5c-7.6 0-13.5 4.5-14.4 11.2-.4 3.9 0 7.9 0 12.1z"/></svg><svg width="54" height="54" viewBox="0 0 256 257" x="160"><title>Untitled 12</title><path d="M170 0c4.4 2.2 9.5 3.7 12.9 6.9 4 3.7 8 8.6 9.4 13.7 6.7 25.1 12.6 50.3 18.8 75.6.1.5 0 1 0 2.3h-5.8c-38.5 0-77-.1-115.5 0-24.2.1-43.5 13.6-49.2 35.4-2.2 8.2-1.7 17.1-2.3 25.7-.1 1.9 0 3.9 0 6.4-9-3.7-14.8-9.6-17-18-7-27.1-13.8-54.2-19.9-81.5-3.3-14.8 7.4-29.2 23.5-33.2 30.4-7.5 60.8-14.9 91.2-22.3 13.6-3.3 27.1-6.6 40.7-10 .8-.2 1.4-.7 2.1-1H170zm-28.1 50.8c2.9 11.6 5.5 22.3 8.2 33.3 11.4-2.8 22.2-5.5 33.3-8.2-2.8-11.5-5.5-22.2-8.2-33.2-11.4 2.7-22.2 5.4-33.3 8.1zM82 256c-3.3-1.5-6.8-2.6-9.8-4.5-9-5.6-13.9-13.9-14-24.4-.2-26.6-.3-53.3 0-79.9.2-16.5 13.2-29 30-29 33.6-.1 67.2 0 100.9 0h34c16.2 0 26.1 7.3 31.2 22.7.1.4.6.8.8 1.2v90c-1.2 2.9-2.3 5.8-3.7 8.6-4.3 8.4-11.8 12.6-20.3 15.4-49.8-.1-99.4-.1-149.1-.1zm-8.1-68.8c0 13.1-.1 25.7 0 38.3.1 9.1 5.5 14.6 14.7 14.6 45.3.1 90.6.1 135.9 0 9.2 0 14.6-5.4 14.7-14.6.1-11.7 0-23.3 0-35 0-1.1-.3-2.2-.4-3.4-55 .1-109.5.1-164.9.1zm.2-29.9h165.1v-5.1c0-13.8-4.4-18.2-18.2-18.2H88.5c-7.6 0-13.5 4.5-14.4 11.2-.4 3.9 0 7.9 0 12.1z"/></svg><svg width="18" height="18" viewBox="0 0 28 28" x="188" y="170"><title>Untitled 5</title><path d="M13.714 18.425l-6.989 6.957c-.744.765-1.323 1.257-1.74 1.476a2.983 2.983 0 0 1-1.41.328c-.94 0-1.74-.333-2.395-1-.657-.668-.985-1.482-.985-2.445 0-.481.11-.935.328-1.362.22-.426.7-1.011 1.444-1.755l6.99-6.956L2.13 6.843C1.387 6.099.906 5.519.688 5.103a2.983 2.983 0 0 1-.329-1.41c0-.941.328-1.74.985-2.396C2 .641 2.82.313 3.804.313c.482 0 .93.11 1.346.328.416.219.995.7 1.74 1.444l6.824 6.825 6.923-6.924c.744-.765 1.324-1.257 1.74-1.476a2.983 2.983 0 0 1 1.41-.328c.941 0 1.74.333 2.396 1 .656.668.984 1.482.984 2.445 0 .481-.11.935-.328 1.362-.219.426-.7 1.011-1.444 1.755l-6.923 6.924 6.792 6.792c.744.744 1.225 1.323 1.444 1.739.219.415.328.886.328 1.41 0 .941-.328 1.74-.984 2.396-.657.656-1.477.984-2.461.984-.482 0-.93-.109-1.346-.328-.415-.218-.995-.7-1.739-1.443l-6.792-6.793z" fill="#5b5b5e" fill-rule="evenodd"/></svg><svg width="18" height="18" viewBox="0 0 28 28" y="204"><title>Untitled 5</title><path d="M13.714 18.425l-6.989 6.957c-.744.765-1.323 1.257-1.74 1.476a2.983 2.983 0 0 1-1.41.328c-.94 0-1.74-.333-2.395-1-.657-.668-.985-1.482-.985-2.445 0-.481.11-.935.328-1.362.22-.426.7-1.011 1.444-1.755l6.99-6.956L2.13 6.843C1.387 6.099.906 5.519.688 5.103a2.983 2.983 0 0 1-.329-1.41c0-.941.328-1.74.985-2.396C2 .641 2.82.313 3.804.313c.482 0 .93.11 1.346.328.416.219.995.7 1.74 1.444l6.824 6.825 6.923-6.924c.744-.765 1.324-1.257 1.74-1.476a2.983 2.983 0 0 1 1.41-.328c.941 0 1.74.333 2.396 1 .656.668.984 1.482.984 2.445 0 .481-.11.935-.328 1.362-.219.426-.7 1.011-1.444 1.755l-6.923 6.924 6.792 6.792c.744.744 1.225 1.323 1.444 1.739.219.415.328.886.328 1.41 0 .941-.328 1.74-.984 2.396-.657.656-1.477.984-2.461.984-.482 0-.93-.109-1.346-.328-.415-.218-.995-.7-1.739-1.443l-6.792-6.793z" fill="#4e988b" fill-rule="evenodd"/></svg><svg width="18" height="18" viewBox="0 0 28 28" x="18" y="204"><title>Untitled 5</title><path d="M13.714 18.425l-6.989 6.957c-.744.765-1.323 1.257-1.74 1.476a2.983 2.983 0 0 1-1.41.328c-.94 0-1.74-.333-2.395-1-.657-.668-.985-1.482-.985-2.445 0-.481.11-.935.328-1.362.22-.426.7-1.011 1.444-1.755l6.99-6.956L2.13 6.843C1.387 6.099.906 5.519.688 5.103a2.983 2.983 0 0 1-.329-1.41c0-.941.328-1.74.985-2.396C2 .641 2.82.313 3.804.313c.482 0 .93.11 1.346.328.416.219.995.7 1.74 1.444l6.824 6.825 6.923-6.924c.744-.765 1.324-1.257 1.74-1.476a2.983 2.983 0 0 1 1.41-.328c.941 0 1.74.333 2.396 1 .656.668.984 1.482.984 2.445 0 .481-.11.935-.328 1.362-.219.426-.7 1.011-1.444 1.755l-6.923 6.924 6.792 6.792c.744.744 1.225 1.323 1.444 1.739.219.415.328.886.328 1.41 0 .941-.328 1.74-.984 2.396-.657.656-1.477.984-2.461.984-.482 0-.93-.109-1.346-.328-.415-.218-.995-.7-1.739-1.443l-6.792-6.793z" fill="#ec7e00" fill-rule="evenodd"/></svg><svg width="34" height="34" viewBox="0 0 34 34" y="170"><title>Untitled 6</title><path d="M17 .7C7.608.7 0 8.308 0 17.7s7.608 17 17 17 17-7.608 17-17-7.608-17-17-17zm8.862 23.69a1.53 1.53 0 0 1-1.085 2.618c-.386 0-.784-.145-1.086-.446l-6.34-6.342-6.342 6.342a1.542 1.542 0 0 1-2.17 0 1.528 1.528 0 0 1 0-2.17l6.34-6.342-6.34-6.342a1.528 1.528 0 0 1 0-2.17 1.528 1.528 0 0 1 2.17 0l6.342 6.34 6.34-6.34a1.53 1.53 0 0 1 2.172 0c.603.602.603 1.58 0 2.17L19.52 18.05l6.342 6.34z" fill="#fff"/></svg><svg width="16" height="16" viewBox="0 0 16 16" x="198" y="82"><title>Page 1</title><path d="M.384 15.612c.524.524 1.036.512 1.537-.034l6.077-6.01 6.078 6.01c.5.546 1.013.558 1.536.034.524-.523.512-1.036-.034-1.536l-6.01-6.078 6.01-6.077c.546-.501.558-1.013.034-1.537-.523-.523-1.036-.512-1.536.034l-6.078 6.01L1.921.418C1.42-.128.908-.139.384.384-.139.908-.128 1.42.418 1.921l6.01 6.077-6.01 6.078c-.546.5-.557 1.013-.034 1.536z" fill="#72C44B" fill-rule="evenodd"/></svg><svg width="28" height="25" viewBox="0 0 28 25" x="214"><title>Page 1</title><defs><path d="M17.592 2.91c1.87 0 3.407.616 4.607 1.849C23.4 5.99 24 7.682 24 9.829c0 2.188-.724 4.276-2.171 6.265-1.413 1.949-3.178 3.699-5.297 5.25a21.992 21.992 0 0 1-2.383 1.58c-.742.418-1.271.687-1.589.806l-.424.18c-.988-.28-2.454-1.134-4.396-2.566-2.118-1.551-3.883-3.301-5.296-5.25C.997 14.105.273 12.017.273 9.83c0-2.148.6-3.839 1.8-5.071 1.201-1.233 2.737-1.85 4.608-1.85 1.095 0 2.145.278 3.151.835a5.649 5.649 0 0 1 2.304 2.327 5.649 5.649 0 0 1 2.304-2.327c1.007-.557 2.057-.835 3.152-.835z" id="e"/><mask id="f" x="-1.3" y="-1.3" width="26.327" height="23.6"><path fill="#fff" d="M-1.027 1.609H25.3v23.6H-1.027z"/><use xlink:href="#e"/></mask></defs><use mask="url(#f)" xlink:href="#e" transform="translate(2 -1)" stroke="#7C7C7C" stroke-width="2.6" fill="none" fill-rule="evenodd"/></svg><svg width="30" height="24" viewBox="0 0 35 29" x="96" y="170"><title>Untitled 10</title><path d="M29.9 27.2c0 .4-.1.7-.4 1-.3.3-.6.4-1 .4h-8.3v-8.3h-5.6v8.3H6.3c-.4 0-.7-.1-1-.4-.3-.3-.4-.6-.4-1V16.6L17.4 6.3l12.5 10.3v10.6zm4.9-12l-1.3 1.6c-.1.1-.3.2-.5.2h-.1c-.2 0-.3-.1-.5-.2l-15-12.5-15 12.5c-.2.1-.3.2-.5.2s-.3-.1-.5-.2L.1 15.2c-.1-.1-.2-.3-.2-.5s.1-.4.2-.5l15.6-13c.5-.4 1-.6 1.7-.6.6 0 1.2.2 1.7.6l5.3 4.4V1.4c0-.2.1-.4.2-.5.1-.1.3-.2.5-.2h4.2c.2 0 .4.1.5.2.1.1.2.3.2.5v8.9l4.8 4c.1.1.2.3.2.5 0 .1-.1.3-.2.4z" fill="#fff"/></svg><svg width="15" height="14" viewBox="0 0 15 14" x="160" y="120"><title>Page 1</title><defs><path id="g" d="M7.5 2l7.5 8h-3v6H3v-6H0z"/><mask id="h" x="0" y="0" width="15" height="14" fill="#fff"><use xlink:href="#g"/></mask></defs><use mask="url(#h)" xlink:href="#g" transform="translate(0 -2)" stroke="#72C44B" stroke-width="2" fill="none" fill-rule="evenodd"/></svg><svg viewBox="0 0 23.5 23.6" width="23.5" height="23.6" x="214" y="102"><path fill="#76B72A" d="M15.7 12.8H7.8c-.6 0-1-.4-1-1s.4-1 1-1h7.9c.6 0 1 .4 1 1 0 .5-.4 1-1 1z"/><path fill="#76B72A" d="M11.8 23.6c-3.1 0-6.1-1.2-8.3-3.4C1.2 17.9 0 14.9 0 11.8s1.2-6.1 3.5-8.3C5.7 1.2 8.6 0 11.8 0c3.1 0 6.1 1.2 8.3 3.4 4.6 4.6 4.6 12.1 0 16.7-2.2 2.2-5.2 3.5-8.3 3.5zm0-21.6C9.2 2 6.7 3 4.9 4.9 3 6.7 2 9.2 2 11.8s1 5.1 2.9 6.9c1.8 1.8 4.3 2.9 6.9 2.9 2.6 0 5.1-1 6.9-2.9 3.8-3.8 3.8-10 0-13.8C16.8 3 14.4 2 11.8 2z"/></svg><svg viewBox="0 0 23.5 23.6" width="23.5" height="23.6" x="214" y="125.6"><path fill="#76B72A" d="M11.8 16.7c-.6 0-1-.4-1-1V7.8c0-.6.4-1 1-1s1 .4 1 1v7.9c0 .6-.5 1-1 1z"/><path fill="#76B72A" d="M15.7 12.8H7.8c-.6 0-1-.4-1-1s.4-1 1-1h7.9c.6 0 1 .4 1 1 0 .5-.4 1-1 1z"/><path fill="#76B72A" d="M11.8 23.6c-3.1 0-6.1-1.2-8.3-3.4C-1.1 15.5-1.1 8 3.4 3.4 5.7 1.2 8.6 0 11.8 0c3.1 0 6.1 1.2 8.3 3.4 4.6 4.6 4.6 12.1 0 16.7-2.2 2.2-5.2 3.5-8.3 3.5zm0-21.6C9.2 2 6.7 3 4.9 4.9 1 8.7 1 14.9 4.9 18.7c1.8 1.8 4.3 2.9 6.9 2.9 2.6 0 5.1-1 6.9-2.9 3.8-3.8 3.8-10 0-13.8C16.8 3 14.4 2 11.8 2z"/></svg><svg width="22" height="22" viewBox="0 0 19 20" x="214" y="149.2"><title>Magnifier</title><defs><path d="M18.508 16.579l-4.539-4.549-.168-.135a7.474 7.474 0 0 0 1.215-4.094A7.515 7.515 0 0 0 7.503.28C3.354.28-.012 3.647-.012 7.801s3.365 7.52 7.515 7.52a7.491 7.491 0 0 0 4.093-1.217l.133.166 4.543 4.547a1.581 1.581 0 1 0 2.236-2.238zM7.503 12.946a5.148 5.148 0 0 1-5.141-5.145 5.149 5.149 0 0 1 5.141-5.146c2.834 0 5.142 2.307 5.142 5.146s-2.308 5.145-5.142 5.145z" id="i"/></defs><use fill="#429284" xlink:href="#i"/></svg><svg width="20" height="21" viewBox="0 0 20 21" x="148" y="170"><title>@</title><path d="M4.8 19.548a8.827 8.827 0 0 1-3.552-3.612C.416 14.384 0 12.584 0 10.536c0-2.096.444-3.94 1.332-5.532C2.22 3.412 3.436 2.18 4.98 1.308 6.524.436 8.256 0 10.176 0c2.064 0 3.828.432 5.292 1.296 1.464.864 2.564 1.972 3.3 3.324.736 1.352 1.104 2.764 1.104 4.236 0 1.632-.244 2.952-.732 3.96s-1.096 1.732-1.824 2.172c-.728.44-1.492.66-2.292.66-.88 0-1.552-.188-2.016-.564-.464-.376-.712-.916-.744-1.62h-.048c-.4.672-.92 1.204-1.56 1.596-.64.392-1.36.588-2.16.588-1.024 0-1.864-.364-2.52-1.092-.656-.728-.984-1.756-.984-3.084 0-1.088.212-2.12.636-3.096.424-.976 1.024-1.76 1.8-2.352.776-.592 1.676-.888 2.7-.888.8 0 1.492.196 2.076.588.584.392.948.884 1.092 1.476h.024l.288-1.752h1.296l-1.176 6.792a5.415 5.415 0 0 0-.072.84c0 .544.132.928.396 1.152.264.224.668.336 1.212.336.496 0 1-.188 1.512-.564.512-.376.94-.988 1.284-1.836.344-.848.516-1.952.516-3.312 0-1.248-.308-2.456-.924-3.624-.616-1.168-1.56-2.128-2.832-2.88C13.548 1.6 12 1.224 10.176 1.224c-1.68 0-3.196.38-4.548 1.14-1.352.76-2.416 1.844-3.192 3.252-.776 1.408-1.164 3.048-1.164 4.92 0 1.84.356 3.44 1.068 4.8a7.52 7.52 0 0 0 3.084 3.156c1.344.744 2.936 1.116 4.776 1.116 1.392 0 2.612-.212 3.66-.636 1.048-.424 1.852-1.012 2.412-1.764H18c-.688 1.136-1.712 2.024-3.072 2.664-1.36.64-2.936.96-4.728.96-2.064 0-3.864-.428-5.4-1.284zm6.18-5.748c.632-.512 1.112-1.18 1.44-2.004a6.913 6.913 0 0 0 .492-2.58c0-.96-.24-1.696-.72-2.208-.48-.512-1.128-.768-1.944-.768-.816 0-1.528.248-2.136.744-.608.496-1.072 1.14-1.392 1.932a6.508 6.508 0 0 0-.48 2.46c0 1.024.244 1.812.732 2.364.488.552 1.084.828 1.788.828.848 0 1.588-.256 2.22-.768z" fill="#444" fill-rule="evenodd"/></svg><svg width="13" height="1" viewBox="0 0 13 1" x="214" y="193.2"><title>Combined Shape Copy</title><path d="M0 0h13v1H0z" fill="#72C44B" fill-rule="evenodd"/></svg><svg width="30" height="26" viewBox="0 0 30 26" x="66" y="170"><title>Page 1</title><defs><path d="M0 23.817c0-.15.008-.345.025-.59.016-.243.107-.636.273-1.178.165-.542.397-.961.694-1.259.29-.29.865-.608 1.725-.955a74.32 74.32 0 0 1 2.915-1.098c1.083-.384 1.877-.705 2.381-.961a3.47 3.47 0 0 0 1.483-1.414c.351-.62.527-1.266.527-1.935 0-.455-.273-.993-.819-1.613-.554-.637-1.003-1.503-1.346-2.599-.343-1.096-.514-2.359-.514-3.79 0-1.074.153-2.032.458-2.871.306-.84.724-1.511 1.253-2.016A5.43 5.43 0 0 1 10.86.391 5.952 5.952 0 0 1 13.025 0c.769 0 1.486.13 2.152.39a5.555 5.555 0 0 1 1.799 1.148c.533.505.953 1.177 1.259 2.016.306.84.459 1.797.459 2.872 0 1.43-.17 2.693-.509 3.79-.339 1.095-.786 1.961-1.34 2.598-.554.628-.83 1.166-.83 1.613 0 .661.177 1.304.533 1.928a3.498 3.498 0 0 0 1.488 1.42c.505.257 1.299.578 2.382.962 1.083.385 2.05.75 2.903 1.098.851.347 1.422.666 1.711.955.298.298.53.699.695 1.203.165.505.256.935.273 1.29v.534" id="j"/><mask id="k" x="-1.3" y="-1.3" width="28.6" height="26.417"><path fill="#fff" d="M-1.3-1.3h28.6v26.417H-1.3z"/><use xlink:href="#j"/></mask></defs><use mask="url(#k)" xlink:href="#j" transform="translate(2 2)" stroke-width="2.6" stroke="#7C7C7C" fill="none" fill-rule="evenodd"/></svg><svg width="13" height="13" viewBox="0 0 13 13" x="189" y="120"><title>Combined Shape</title><path d="M7 6V0H6v6H0v1h6v6h1V7h6V6H7z" fill="#72C44B" fill-rule="evenodd"/></svg><svg width="20" height="20" viewBox="0 0 24 24" x="168" y="170"><path d="M22.853 19.618c-1.496-1.496-2.992-2.992-4.488-4.483-.072-.072-.16-.12-.243-.182.016-.023.027-.045.044-.067 0-.01 0-.017.005-.028.035-.055.068-.11.1-.166 1.126-1.917 1.536-3.984 1.21-6.178-.782-5.23-5.797-8.82-10.972-7.785-3.684.742-6.19 2.97-7.236 6.587-1.047 3.618-.122 6.827 2.6 9.43 2.924 2.8 7.34 3.314 10.875 1.347.2-.11.305-.1.466.06 1.507 1.525 3.025 3.032 4.538 4.55.35.35.754.6 1.247.665.937.126 1.868-.394 2.31-1.292.427-.853.26-1.745-.454-2.46zm-12.622-3.27c-3.54 0-6.404-2.858-6.437-6.426-.04-3.52 2.898-6.456 6.444-6.456 3.59 0 6.438 2.904 6.433 6.572-.006 3.435-2.942 6.31-6.44 6.31zm.289-11.131C8.048 5.095 6.298 6.67 5.738 8.204c1.418-1.17 3.014-1.707 4.815-1.574 1.812.133 3.32.92 4.554 2.29-.376-1.74-2.005-3.575-4.587-3.703z" fill="#4D4D4D"/></svg><svg width="22" height="22" viewBox="0 0 22 22" x="126" y="170"><title>Page 1</title><defs><path d="M1185.805 58.906l-5.157-5.078a8.309 8.309 0 0 0 1.602-2.52c.39-.95.586-1.959.586-3.027 0-1.146-.221-2.22-.664-3.222a8.407 8.407 0 0 0-1.807-2.627 8.58 8.58 0 0 0-2.676-1.778 8.247 8.247 0 0 0-3.271-.654c-1.159 0-2.25.218-3.272.654a8.58 8.58 0 0 0-2.675 1.778 8.406 8.406 0 0 0-1.807 2.627 7.888 7.888 0 0 0-.664 3.222c0 1.146.221 2.22.664 3.223a8.406 8.406 0 0 0 1.807 2.627 8.58 8.58 0 0 0 2.675 1.777 8.247 8.247 0 0 0 3.272.654 8.306 8.306 0 0 0 2.852-.488 8.479 8.479 0 0 0 2.44-1.367l5.177 5.098c.13.13.283.195.459.195a.628.628 0 0 0 .459-.195.567.567 0 0 0 .195-.44.628.628 0 0 0-.195-.459zm-11.387-3.613a6.92 6.92 0 0 1-2.773-.557 7.358 7.358 0 0 1-2.256-1.504 7.117 7.117 0 0 1-1.534-2.226 6.654 6.654 0 0 1-.566-2.725c0-.963.189-1.871.566-2.724a7.117 7.117 0 0 1 1.534-2.227 7.358 7.358 0 0 1 2.256-1.504 6.92 6.92 0 0 1 2.773-.556c.977 0 1.898.185 2.764.556a7.326 7.326 0 0 1 2.265 1.504 6.984 6.984 0 0 1 1.524 2.227c.37.853.556 1.76.556 2.724 0 .964-.185 1.872-.556 2.725a6.984 6.984 0 0 1-1.524 2.226 7.326 7.326 0 0 1-2.265 1.504 6.941 6.941 0 0 1-2.764.557z" id="l"/><mask id="m" x="-.1" y="-.1" width="20.2" height="20.2"><path fill="#fff" d="M1165.9 39.9h20.2v20.2h-20.2z"/><use xlink:href="#l"/></mask></defs><g transform="translate(-1165 -39)" fill="none" fill-rule="evenodd"><use fill="#72C44B" xlink:href="#l"/><use stroke="#72C44B" mask="url(#m)" stroke-width=".2" xlink:href="#l"/></g></svg><svg width="14" height="14" viewBox="0 0 14 14" x="175" y="120"><title>Page 1</title><path d="M7 10.253l-4.044 2.451L4.028 8.11.474 5.014l4.688-.398L7 .296l1.838 4.32 4.688.398-3.554 3.095 1.072 4.595z" stroke="#FECD00" fill="none" fill-rule="evenodd"/></svg><svg width="14" height="15" viewBox="0 0 14 15" x="198" y="98"><title>Page 1</title><path d="M7 11.556l-4.37 2.648 1.159-4.966-3.84-3.344 5.065-.43L7 .796l1.986 4.668 5.066.43-3.84 3.344 1.158 4.966z" fill="#FECD00" fill-rule="evenodd"/></svg><svg width="22" height="22" viewBox="0 0 448 448" x="214" y="171.2"><title>Slice 1</title><path d="M223.8.2C100.4.2-.3 101 .1 224.7c.4 122.5 99 220.6 219 223.1 125 2.6 226.4-97.3 228.7-219.5C450.2 102 347.7-.1 223.8.2zm141.3 332.4c-1.4 3.3-3.6 6.4-6 9-4.3 4.8-9.5 9-13.6 13.9-8.1 9.6-18 13.9-25.5 12.9-70.9-3.4-127.5-27.7-173.3-75.6-37.6-39.3-59-86.5-65.2-140.5-1-8.7-1.4-17.6-1.3-26.4 0-7 2.5-13.3 7.6-18.4 5.7-5.6 11.3-11.3 17-17 11.7-11.6 28.2-14.2 42.7-6 9.6 5.4 16.6 13.3 19.5 24.2 3.2 11.7 6.5 23.4 9.5 35.2 3.3 13.3.2 25-9.1 35.1-2 2.2-4 4.6-6.4 6.3-5.9 4.2-5.9 9-3.5 15.4 17 45.3 48.2 75.8 94 91.3 3.8 1.3 6.5 1.1 9.2-2.2 2.7-3.3 6-6.2 9.1-9.2 9.4-9 20.8-12 33.2-9.2 12.8 2.9 25.4 6.6 38 10.4 21.2 6.5 32.7 30.7 24.1 50.8z" fill="#fff"/></svg><svg width="20" height="26" viewBox="0 0 319 438" x="214" y="25"><path d="M24.4 105.3c-.1 1.8-.3 3.2-.3 4.7 0 95.5-.1 190.9 0 286.4 0 22.7 18.3 41.1 41 41.2 62.8.1 125.6.1 188.4 0 9.8 0 18.6-3.3 26.2-9.7 11-9.3 15-21.5 15-35.5 0-94 0-187.9.1-281.9 0-1.6-.1-3.2-.2-5.1-90.1-.1-179.8-.1-270.2-.1zm71.1 272.4c0 2.3 0 4.7-.3 7-.8 7.3-6.6 12.5-13.8 12.5-7.3 0-13.1-5.1-13.9-12.4-.2-1.8-.1-3.7-.1-5.5V159.8c0-6.4 2-11.5 7.8-14.5 8.7-4.5 19.1 1.2 20.1 10.9.2 1.8.2 3.7.2 5.5v216zM173.9 165v214.4c0 2.5-.1 5-.7 7.4-1.8 6.7-7.8 10.8-14.6 10.3-6.7-.6-12-5.7-12.7-12.6-.2-1.8-.1-3.7-.1-5.5V161.5c0-2.3 0-4.7.5-7 1.5-6.7 8.1-11.4 14.9-10.8 6.8.6 12.3 6.1 12.8 13.2.1 2.8-.1 5.5-.1 8.1zm78.4 213.1c0 2.2 0 4.3-.3 6.5-.8 7.3-6.6 12.6-13.7 12.6-7.2 0-13.1-5.1-14.1-12.3-.2-1.6-.1-3.3-.1-5v-109c0-37-.1-74 .2-111 0-3.9 1.6-8.3 3.8-11.4 3.4-4.6 8.8-5.9 14.4-4 5.5 1.9 8.9 5.7 9.6 11.6.2 1.8.2 3.7.2 5.5v216.5zM269.4 40c-73.3-.2-146.6-.1-219.9 0-11 0-21 3.6-29.6 10.4C7.2 60.5.5 73.7.1 90.2h318c.2-.9.5-1.4.5-1.8-.8-26.3-22.9-48.4-49.2-48.4zM188.7.4c-19.5-.5-39-.5-58.4 0C117.5.7 107.8 11.9 108 25h102.4c1.3-12.2-9-24.3-21.7-24.6z" fill="#4D4D4D"/></svg></svg>