<svg width="112" height="88" viewBox="0 0 112 88" xmlns="http://www.w3.org/2000/svg" xmlns:xlink="http://www.w3.org/1999/xlink"><svg width="16" height="16" viewBox="0 0 65 65" x="96"><path d="M41.457 35.4l1.48-11.48H31.569v-7.33c0-3.324.927-5.589 5.692-5.589l6.074-.003V.731c-1.049-.14-4.654-.453-8.856-.453-8.766 0-14.763 5.351-14.763 15.176v8.465H9.802V35.4h9.914v29.455h11.853V35.4h9.888z" fill="#fff"/></svg><svg viewBox="7 7 16 16" width="16" height="16" x="72" y="48"><path fill="#706F6F" d="M18.2 14.4v-1.9c0-.4.3-.7.8-.7h1.4c.2 0 .3-.1.3-.3V9.8c0-.1 0-.3-.2-.3-.8 0-1.6-.1-2.4 0-1.3.1-2.3 1.1-2.4 2.5-.1.7-.1 1.4-.1 2.1 0 .3-.1.3-.3.3h-1.5c-.2 0-.3.1-.3.3v2c0 .2.1.3.3.3h1.6c.2 0 .3.1.3.2v5.9H8.2c-.7 0-1-.3-1-1V8c-.2-.7.1-1 .7-1h14.2c.6 0 .9.3.9.9v14.2c0 .5-.3.9-.9.9h-3.7c-.2 0-.3-.1-.3-.3V17c0-.2.1-.3.3-.3H20c.2 0 .3-.1.3-.3.1-.7.1-1.3.3-1.9.1-.3-.1-.3-.3-.3h-1.8c-.2.2-.3.2-.3.2z"/></svg><svg width="24" height="24" viewBox="0 0 65 65" y="24"><path d="M41.457 35.4l1.48-11.48H31.569v-7.33c0-3.324.927-5.589 5.692-5.589l6.074-.003V.731c-1.049-.14-4.654-.453-8.856-.453-8.766 0-14.763 5.351-14.763 15.176v8.465H9.802V35.4h9.914v29.455h11.853V35.4h9.888z" fill="#fff"/></svg><svg viewBox="0 0 24 24" width="24" height="24" x="24" y="24"><path fill="#706F6F" d="M16.7 11V8.1c0-.6.5-1 1.2-1H20c.3 0 .4-.1.4-.4V4.1c0-.2 0-.4-.3-.4-1.2 0-2.4-.1-3.6 0-2 .2-3.4 1.7-3.6 3.7-.1 1.1-.1 2.1-.1 3.2 0 .4-.1.5-.5.5H10c-.3 0-.4.1-.4.4v3c0 .3.1.4.4.4h2.4c.3 0 .4.1.4.3v8.9H1.6c-1 0-1.5-.5-1.5-1.5V1.5C0 .5.5 0 1.4 0h21.2c.9 0 1.4.5 1.4 1.4v21.2c0 .8-.5 1.4-1.4 1.4H17c-.3 0-.4-.1-.4-.4v-8.5c0-.3.1-.4.4-.4h2.4c.3 0 .4-.1.4-.4.1-1 .2-1.9.4-2.9.1-.4-.1-.5-.4-.5h-2.7c-.2.1-.3.1-.4.1z"/></svg><svg width="16" height="16" viewBox="0 0 66 67" x="80" y="72"><path d="M37.899 41.4a20.3 20.3 0 0 0-2.298-2.594 33.94 33.94 0 0 0-2.515-2.18 57.346 57.346 0 0 1-2.298-1.887c-.694-.602-1.257-1.231-1.689-1.886-.432-.655-.648-1.323-.648-2.004 0-.943.302-1.828.904-2.652a15.481 15.481 0 0 1 2.199-2.396 42.579 42.579 0 0 0 2.594-2.535c.863-.917 1.598-2.128 2.2-3.635.602-1.506.902-3.229.902-5.167 0-2.305-.51-4.519-1.532-6.64-1.021-2.122-2.462-3.772-4.321-4.951h5.304l5.304-3.104h-17.17c-2.435 0-4.885.262-7.346.787-3.641.812-6.705 2.665-9.194 5.56-2.488 2.895-3.732 6.175-3.732 9.842 0 3.877 1.396 7.099 4.185 9.666 2.79 2.566 6.136 3.851 10.039 3.851.785 0 1.702-.066 2.75-.197-.053.21-.144.491-.275.845l-.313.845a5.319 5.319 0 0 0-.275 1.691c0 1.729.838 3.681 2.515 5.854-1.99.053-3.955.229-5.894.53-1.938.301-3.968.773-6.09 1.415-2.121.643-4.021 1.572-5.697 2.789-1.676 1.219-2.934 2.666-3.771 4.343-.97 1.938-1.454 3.706-1.454 5.304 0 1.755.394 3.346 1.18 4.773.785 1.428 1.793 2.594 3.024 3.497 1.231.904 2.652 1.663 4.263 2.279 1.611.614 3.208 1.055 4.793 1.317s3.15.392 4.695.392c7.02 0 12.521-1.716 16.502-5.147 3.668-3.195 5.501-6.89 5.501-11.08 0-1.493-.216-2.888-.648-4.185-.432-1.297-.998-2.41-1.694-3.34zM22.753 27.119c-1.335 0-2.605-.341-3.811-1.022s-2.227-1.565-3.064-2.652a19.118 19.118 0 0 1-2.2-3.674 20.07 20.07 0 0 1-1.395-4.086 17.92 17.92 0 0 1-.452-3.89c0-2.514.668-4.675 2.004-6.482 1.336-1.808 3.222-2.711 5.658-2.711 1.729 0 3.294.537 4.694 1.611 1.401 1.074 2.502 2.436 3.301 4.086a25.829 25.829 0 0 1 1.847 5.127c.433 1.769.648 3.438.648 5.01 0 2.62-.57 4.723-1.709 6.307-1.139 1.583-2.979 2.376-5.521 2.376zm10.864 29.506a7.74 7.74 0 0 1-2.927 2.887 14.874 14.874 0 0 1-3.948 1.533 19.343 19.343 0 0 1-4.421.491c-1.676 0-3.34-.196-4.989-.589a19.924 19.924 0 0 1-4.734-1.787 9.84 9.84 0 0 1-3.654-3.302c-.931-1.401-1.396-2.992-1.396-4.774 0-1.57.354-2.973 1.062-4.203.708-1.231 1.611-2.214 2.711-2.947 1.101-.733 2.384-1.336 3.851-1.807 1.467-.472 2.881-.8 4.243-.982a30.922 30.922 0 0 1 4.165-.274c.864 0 1.521.026 1.965.077.157.105.557.38 1.198.825l1.297.904c.222.157.628.459 1.218.903.59.446 1.009.78 1.257 1.002.248.223.609.557 1.081 1.002.471.446.818.831 1.041 1.159l.825 1.197c.327.473.556.925.688 1.356.131.434.256.904.372 1.414.118.512.177 1.043.177 1.593-.001 1.65-.361 3.091-1.082 4.322zM55.602 9.829V-.229h-5.031V9.829H40.513v5.029h10.058v10.059h5.031V14.858h10.057V9.829H55.602z" fill="#fff"/></svg><svg viewBox="7 7 16 16" width="16" height="16" x="48" y="72"><g fill="#706F6F"><path d="M20.2 11.9V9.4c0-.1 0-.2-.2-.2h-1c-.1 0-.2.1-.2.2v2.4c0 .1-.1.2-.2.2H16v1.4h2.8v2.5c0 .1.1.2.2.2h1.1c.1 0 .2-.1.2-.2v-2.6H23v-1.4h-2.8z"/><path d="M14.5 16.2c-.5-.3-.9-.7-1.2-1.1-.2-.3-.2-.8.1-1.1l.7-.7c.8-.7 1.3-1.6 1.1-2.7-.1-.7-.3-1.3-.8-1.7-.1-.1-.3-.3-.5-.4h1c.2 0 .4-.1.6-.2.2-.2.5-.3.7-.5h-4.4c-1.3.1-2.3.5-3.1 1.4-.9 1-1 2.3-.4 3.5.6 1.1 1.5 1.5 2.7 1.7h.7c-.4.8-.3 1.5.3 2v.1h-.7c-.9 0-1.9.2-2.7.7-.7.4-1.3 1-1.6 1.8-.2.5-.2 1 .1 1.5.3.7.9 1 1.5 1.3.7.3 1.4.4 2.1.5 1.3.1 2.4 0 3.5-.7.7-.4 1.2-.9 1.4-1.7.5-1.6.1-2.9-1.1-3.7zm-3.4-2.6c-.7-.4-1.1-1-1.4-1.7-.1-.4-.1-.8-.2-1 0-.8.1-1.5.5-2 .5-.5 1-.6 1.7-.4.7.2 1.2.7 1.5 1.3.4.7.5 1.5.4 2.3-.1.5-.3 1-.7 1.3-.5.5-1.1.5-1.8.2zm2.2 7.6l-1.5.3c-.9 0-1.7-.2-2.4-.8-.6-.6-.9-1.5-.5-2.3.3-.5.7-.9 1.2-1.1.9-.5 1.9-.5 2.8-.3.2.1.3.2.5.3.3.3.7.5 1 .7.3.3.5.7.5 1.1-.1 1-.6 1.7-1.6 2.1z"/></g></svg><svg width="24" height="24" viewBox="0 0 66 67" y="48"><path d="M37.899 41.4a20.3 20.3 0 0 0-2.298-2.594 33.94 33.94 0 0 0-2.515-2.18 57.346 57.346 0 0 1-2.298-1.887c-.694-.602-1.257-1.231-1.689-1.886-.432-.655-.648-1.323-.648-2.004 0-.943.302-1.828.904-2.652a15.481 15.481 0 0 1 2.199-2.396 42.579 42.579 0 0 0 2.594-2.535c.863-.917 1.598-2.128 2.2-3.635.602-1.506.902-3.229.902-5.167 0-2.305-.51-4.519-1.532-6.64-1.021-2.122-2.462-3.772-4.321-4.951h5.304l5.304-3.104h-17.17c-2.435 0-4.885.262-7.346.787-3.641.812-6.705 2.665-9.194 5.56-2.488 2.895-3.732 6.175-3.732 9.842 0 3.877 1.396 7.099 4.185 9.666 2.79 2.566 6.136 3.851 10.039 3.851.785 0 1.702-.066 2.75-.197-.053.21-.144.491-.275.845l-.313.845a5.319 5.319 0 0 0-.275 1.691c0 1.729.838 3.681 2.515 5.854-1.99.053-3.955.229-5.894.53-1.938.301-3.968.773-6.09 1.415-2.121.643-4.021 1.572-5.697 2.789-1.676 1.219-2.934 2.666-3.771 4.343-.97 1.938-1.454 3.706-1.454 5.304 0 1.755.394 3.346 1.18 4.773.785 1.428 1.793 2.594 3.024 3.497 1.231.904 2.652 1.663 4.263 2.279 1.611.614 3.208 1.055 4.793 1.317s3.15.392 4.695.392c7.02 0 12.521-1.716 16.502-5.147 3.668-3.195 5.501-6.89 5.501-11.08 0-1.493-.216-2.888-.648-4.185-.432-1.297-.998-2.41-1.694-3.34zM22.753 27.119c-1.335 0-2.605-.341-3.811-1.022s-2.227-1.565-3.064-2.652a19.118 19.118 0 0 1-2.2-3.674 20.07 20.07 0 0 1-1.395-4.086 17.92 17.92 0 0 1-.452-3.89c0-2.514.668-4.675 2.004-6.482 1.336-1.808 3.222-2.711 5.658-2.711 1.729 0 3.294.537 4.694 1.611 1.401 1.074 2.502 2.436 3.301 4.086a25.829 25.829 0 0 1 1.847 5.127c.433 1.769.648 3.438.648 5.01 0 2.62-.57 4.723-1.709 6.307-1.139 1.583-2.979 2.376-5.521 2.376zm10.864 29.506a7.74 7.74 0 0 1-2.927 2.887 14.874 14.874 0 0 1-3.948 1.533 19.343 19.343 0 0 1-4.421.491c-1.676 0-3.34-.196-4.989-.589a19.924 19.924 0 0 1-4.734-1.787 9.84 9.84 0 0 1-3.654-3.302c-.931-1.401-1.396-2.992-1.396-4.774 0-1.57.354-2.973 1.062-4.203.708-1.231 1.611-2.214 2.711-2.947 1.101-.733 2.384-1.336 3.851-1.807 1.467-.472 2.881-.8 4.243-.982a30.922 30.922 0 0 1 4.165-.274c.864 0 1.521.026 1.965.077.157.105.557.38 1.198.825l1.297.904c.222.157.628.459 1.218.903.59.446 1.009.78 1.257 1.002.248.223.609.557 1.081 1.002.471.446.818.831 1.041 1.159l.825 1.197c.327.473.556.925.688 1.356.131.434.256.904.372 1.414.118.512.177 1.043.177 1.593-.001 1.65-.361 3.091-1.082 4.322zM55.602 9.829V-.229h-5.031V9.829H40.513v5.029h10.058v10.059h5.031V14.858h10.057V9.829H55.602z" fill="#fff"/></svg><svg viewBox="0 0 24 21.5" width="24" height="21.5" x="24" y="48"><g fill="#706F6F"><path d="M19.8 6.1V2.3c0-.2 0-.3-.3-.3H18c-.2 0-.3.1-.3.3v3.6c0 .2-.1.3-.3.3h-3.9v2.1h4.2v3.8c0 .2.1.3.3.3h1.6c.2 0 .3-.1.3-.3V8.2H24V6.1h-4.2z"/><path d="M11.3 12.6c-.7-.5-1.3-1-1.8-1.7-.3-.5-.3-1.2.1-1.6l1.1-1.1c1.2-1.1 1.9-2.4 1.7-4-.1-1-.5-1.9-1.2-2.6-.2-.2-.5-.4-.8-.6h1.5c.3 0 .6-.1.9-.3.3-.3.7-.5 1.1-.8H7.3C5.4 0 3.9.7 2.6 2 1.2 3.5 1.1 5.5 2 7.2c.9 1.6 2.2 2.3 4 2.5h1.1c-.6 1.2-.4 2.2.5 3v.1h-1c-1.4 0-2.8.3-4 1-1.1.6-2 1.5-2.4 2.7-.3.8-.3 1.5.1 2.3.5 1 1.3 1.5 2.3 1.9 1 .4 2.1.6 3.2.7 1.9.1 3.6 0 5.3-1 1-.6 1.8-1.4 2.1-2.6.5-2-.1-3.9-1.9-5.2zM6.2 8.7c-1-.6-1.7-1.5-2.1-2.5-.1-.6-.2-1.2-.3-1.5 0-1.2.1-2.2.8-3 .7-.7 1.5-.9 2.5-.6 1.1.3 1.8 1.1 2.3 2 .6 1 .8 2.2.6 3.4-.1.8-.4 1.5-1 2-.9.7-1.8.7-2.8.2zm3.2 11.4c-.8.2-1.5.3-2.3.4-1.3 0-2.6-.3-3.6-1.2-.9-.9-1.4-2.3-.7-3.5.4-.7 1-1.3 1.8-1.6 1.4-.7 2.8-.8 4.2-.4.3.1.5.3.7.4.5.4 1 .7 1.5 1.1.5.4.7 1 .7 1.7 0 1.5-.8 2.6-2.3 3.1z"/></g></svg><svg viewBox="7 7 16 16" width="16" height="16" x="32" y="72"><g fill="#706F6F"><path d="M15.3 18.7c2 0 3.5-1.6 3.5-3.6s-1.6-3.6-3.5-3.6c-2 0-3.6 1.6-3.6 3.6s1.6 3.6 3.6 3.6z"/><path d="M19.7 16.1c-.3 1.1-.9 1.9-1.7 2.6-1.5 1.1-3.6 1.1-5.1.1-.8-.5-1.3-1.3-1.7-2.1-.5-1.3-.4-2.5.1-3.7H7v.4c0 2.2.1 4.4 0 6.6-.1 1.8 1.5 3 2.9 3h10.8c.7 0 1.4-.3 1.8-1 .3-.5.5-1.1.5-1.7V13h-3.7c.4 1 .6 2.1.4 3.1zM22.9 9c-.2-1.2-1.1-2-2.1-2h-11C8.5 7 7.2 8.1 7.1 9.3c-.1.9 0 1.7 0 2.7H12c.1 0 .3-.1.3-.1 1.8-1.6 4.2-1.6 6 0 .1.1.2.1.3.2h4.3v-.9c.1-.8.1-1.5 0-2.2zM21 10.5c0 .3-.2.5-.5.5h-2.1c-.3 0-.5-.2-.5-.5v-2c.1-.4.2-.5.6-.5h2.1c.2 0 .4.1.4.5v2z"/></g></svg><svg width="24" height="24" viewBox="0 0 51 51"><path d="M6.834-.248h36.891c3.506 0 6.371 2.866 6.371 6.371v36.892c0 3.504-2.865 6.368-6.371 6.368H6.834c-3.506 0-6.373-2.864-6.373-6.368V6.123c0-3.505 2.867-6.371 6.373-6.371zm29.785 5.512a2.242 2.242 0 0 0-2.234 2.238v5.346a2.24 2.24 0 0 0 2.234 2.236h5.609a2.24 2.24 0 0 0 2.234-2.236V7.502a2.244 2.244 0 0 0-2.234-2.238h-5.609zm7.865 15.476h-4.367a14.52 14.52 0 0 1 .639 4.262c0 8.253-6.91 14.947-15.432 14.947-8.519 0-15.428-6.694-15.428-14.947 0-1.483.226-2.909.638-4.262H5.978v20.968c0 1.086.887 1.97 1.971 1.97h34.564a1.973 1.973 0 0 0 1.971-1.97V20.74zm-19.16-5.938c-5.503 0-9.967 4.323-9.967 9.661 0 5.332 4.464 9.658 9.967 9.658 5.506 0 9.971-4.326 9.971-9.658 0-5.338-4.465-9.661-9.971-9.661z" fill="#fff"/></svg><svg viewBox="0 0 24 24" width="24" height="24" x="72" y="24"><g fill="#706F6F"><path d="M12.5 17.5c3 0 5.3-2.4 5.3-5.4 0-3-2.4-5.4-5.3-5.4-3 0-5.4 2.4-5.4 5.4 0 3 2.4 5.4 5.4 5.4z"/><path d="M19 13.7c-.4 1.6-1.3 2.9-2.6 3.9-2.3 1.6-5.4 1.7-7.6.1-1.2-.8-2-1.9-2.5-3.2-.8-1.9-.6-3.7.2-5.5H0v.6c0 3.3.1 6.6 0 9.9-.1 2.7 2.3 4.5 4.4 4.5h16.2c1.1 0 2.1-.5 2.7-1.5.5-.8.7-1.6.7-2.5V9h-5.6c.7 1.5 1 3.1.6 4.7zM23.9 3c-.3-1.8-1.6-3-3.2-3H4.2C2.3 0 .3 1.6.1 3.4c-.2 1.3 0 2.6 0 4h7.4c.2 0 .4-.1.5-.2 2.7-2.4 6.3-2.4 9 0 .1.1.3.2.5.3H24V6.2c0-1.1 0-2.2-.1-3.2zM21 5.3c0 .4-.3.7-.7.7h-3.1c-.4 0-.7-.3-.7-.8v-3c0-.5.2-.7.7-.7h3.1c.4 0 .7.2.7.7v3.1z"/></g></svg><svg width="16" height="16" viewBox="0 0 190 190" x="48" y="48"><title>Untitled</title><path d="M47.1 37.8c32.1-.1 64.2-.1 96.3 0 5 0 9.9.8 14.9 1h.4l-62.5 62.3-62.7-62.6c4.4-.3 9-.7 13.6-.7zm130 94.2c-.4 2.2-1 4.4-1.7 6.5-3.6 11.5-9.2 15.9-21.2 16.4-9.7.5-19.5 1-29.2 1.2-9.7.2-19.3 0-29 0v.3c-17.6-.4-35.1-.7-52.7-1.1-4.6-.1-9.2-.5-13.7-1.1-5.8-.7-10.1-4.3-12.3-9.4-2.5-5.9-4.6-12.1-5.5-18.4-3.1-21-2.8-42 .5-62.9.8-5.4 3.1-10.6 5.2-15.7.3-.7.6-1.3 1-1.9L96 123.2l75.9-75.7c0 .1.1.2.1.3 2.6 5.8 4.9 12 5.7 18.3 3.2 22 3.3 44-.6 65.9z" fill="#fff"/></svg><svg width="16" height="16" viewBox="0 0 70 70" y="72"><path d="M69.284 14.08a28.372 28.372 0 0 1-8.164 2.238 14.24 14.24 0 0 0 6.25-7.864 28.413 28.413 0 0 1-9.023 3.451 14.2 14.2 0 0 0-10.379-4.49c-7.85 0-14.215 6.366-14.215 14.215 0 1.116.126 2.198.368 3.238-11.812-.59-22.286-6.249-29.299-14.853a14.176 14.176 0 0 0-1.924 7.149c0 4.93 2.508 9.284 6.32 11.831a14.168 14.168 0 0 1-6.436-1.778v.179c0 6.886 4.9 12.632 11.4 13.939a14.115 14.115 0 0 1-6.419.242c1.809 5.648 7.058 9.756 13.277 9.874a28.51 28.51 0 0 1-17.654 6.085 29.4 29.4 0 0 1-3.389-.199 40.267 40.267 0 0 0 21.793 6.384c26.144 0 40.441-21.656 40.441-40.442 0-.615-.017-1.228-.039-1.842a28.946 28.946 0 0 0 7.092-7.357z" fill="#fff"/></svg><svg viewBox="7 7 16 16" width="16" height="16" x="16" y="72"><path fill="#706F6F" d="M22.5 8.8c-.1.1-.3.1-.4.2-.5.3-1.1.5-1.7.6 0 0-.1 0-.1-.1-.4-.4-.8-.7-1.3-.8-.2-.1-.4-.2-.7-.2h-.6c-.1 0-.3.1-.5.1-1.3.3-2.1 1.1-2.5 2.4-.1.5-.1 1-.1 1.5v.1c-1.3-.1-2.5-.4-3.7-1C10 11 9 10.1 8.2 9.1c-.5.7-.6 1.5-.4 2.4.2.9.7 1.5 1.3 2-.3 0-.5-.1-.7-.1-.3-.1-.5-.2-.7-.3-.1 1.1.7 2.8 2.6 3.3-.5.1-.9.1-1.5.1.2.7.6 1.2 1.1 1.6.5.4 1.2.6 1.9.7-1.4 1.1-3 1.5-4.8 1.3 0 0 .1 0 .1.1.9.6 1.9 1 2.9 1.2.5.1 1.1.2 1.6.2h1.1c.8-.1 1.5-.2 2.3-.5 1.3-.4 2.3-1.1 3.3-1.9 1.4-1.3 2.3-2.9 2.8-4.8l.3-1.8V12c0-.1 0-.1.1-.1.6-.5 1.1-1 1.5-1.6l.1-.1c-.6.3-1.2.5-1.9.5.6-.6 1.1-1.2 1.3-1.9z"/></svg><svg width="24" height="24" viewBox="0 0 70 70" x="72"><path d="M69.284 14.08a28.372 28.372 0 0 1-8.164 2.238 14.24 14.24 0 0 0 6.25-7.864 28.413 28.413 0 0 1-9.023 3.451 14.2 14.2 0 0 0-10.379-4.49c-7.85 0-14.215 6.366-14.215 14.215 0 1.116.126 2.198.368 3.238-11.812-.59-22.286-6.249-29.299-14.853a14.176 14.176 0 0 0-1.924 7.149c0 4.93 2.508 9.284 6.32 11.831a14.168 14.168 0 0 1-6.436-1.778v.179c0 6.886 4.9 12.632 11.4 13.939a14.115 14.115 0 0 1-6.419.242c1.809 5.648 7.058 9.756 13.277 9.874a28.51 28.51 0 0 1-17.654 6.085 29.4 29.4 0 0 1-3.389-.199 40.267 40.267 0 0 0 21.793 6.384c26.144 0 40.441-21.656 40.441-40.442 0-.615-.017-1.228-.039-1.842a28.946 28.946 0 0 0 7.092-7.357z" fill="#fff"/></svg><svg viewBox="0 0 24 19.5" width="24" height="19.5" x="48" y="24"><path fill="#706F6F" d="M23.3.4l-.6.3c-.8.4-1.6.7-2.5.9 0 0-.1 0-.1-.1-.6-.6-1.2-1-2-1.2-.3-.2-.6-.3-1-.3h-.9c-.2 0-.4.1-.7.1-1.9.5-3.2 1.7-3.7 3.6-.2.7-.2 1.5-.1 2.2V6c-2-.1-3.8-.6-5.6-1.5C4.4 3.7 2.9 2.4 1.7.9 1 2 .8 3.2 1.1 4.5c.3 1.3 1 2.2 2 3-.4 0-.7-.1-1.1-.2-.4-.1-.7-.3-1-.4-.1 1.7 1.1 4.2 3.9 4.9-.7.2-1.4.2-2.2.1.3 1 .9 1.8 1.7 2.4.8.6 1.8.9 2.8 1-2.1 1.6-4.5 2.3-7.2 2 0 0 .1 0 .1.1 1.4.9 2.8 1.5 4.4 1.8.8.2 1.6.3 2.4.3h1.7c1.2-.1 2.3-.3 3.5-.7 1.9-.6 3.5-1.6 4.9-2.9 2.1-2 3.5-4.4 4.2-7.3.2-.9.3-1.8.4-2.7V5c0-.1 0-.1.1-.1.9-.7 1.7-1.5 2.3-2.4l.1-.1c-.9.4-1.8.7-2.8.8.9-.8 1.6-1.7 2-2.8z"/></svg><svg viewBox="7 7 16 16" width="16" height="16" x="64" y="72"><path fill="#706F6F" d="M22.3 10.3c-.3-.5-.7-.8-1.3-.9-.5 0-.9-.1-1.4-.1h-9.1c-.4 0-.9.1-1.3.1-.7.1-1.2.3-1.4.9-.3.5-.5 1-.5 1.5-.3 1.9-.3 3.9-.1 6 .1.6.3 1.2.5 1.7s.6.8 1.1.9c.4.1.9.1 1.3.1 1.7.1 3.3.1 5 .1h2.7c.9 0 1.8-.1 2.7-.1 1.1-.1 1.7-.5 2-1.5.1-.2.1-.4.1-.6.4-2.1.3-4.1.1-6.2.1-.7-.2-1.3-.4-1.9zm-8.9 7.5V12c1.5 1 3 1.9 4.5 2.9-1.5 1-2.9 2-4.5 2.9z"/></svg><svg width="24" height="24" viewBox="0 0 72 72" x="48"><path d="M56.761 52.707h-3.927l.019-2.28c0-1.014.832-1.843 1.85-1.843h.25c1.02 0 1.854.829 1.854 1.843l-.046 2.28zM42.035 47.82c-.996 0-1.812.669-1.812 1.488v11.091c0 .818.815 1.485 1.812 1.485.999 0 1.815-.667 1.815-1.485v-11.09c.001-.82-.816-1.489-1.815-1.489zm23.914-6.203v21.098c0 5.061-4.389 9.202-9.752 9.202H16.09c-5.367 0-9.754-4.142-9.754-9.202V41.617c0-5.062 4.387-9.203 9.754-9.203h40.107c5.364 0 9.752 4.142 9.752 9.203zM18.765 65.006l-.003-22.225 4.973.001V39.49l-13.255-.02v3.237l4.137.012v22.287h4.148zm14.903-18.914h-4.145v11.867c0 1.717.104 2.575-.007 2.878-.337.921-1.852 1.898-2.442.1-.101-.314-.012-1.265-.014-2.896l-.017-11.949h-4.122l.013 11.762c.003 1.803-.04 3.146.014 3.759.102 1.079.065 2.336 1.066 3.054 1.865 1.344 5.439-.2 6.333-2.12l-.007 2.45 3.33.003V46.092h-.002zm13.261 13.591l-.009-9.878c-.004-3.766-2.819-6.02-6.643-2.974l.017-7.344-4.141.007-.021 25.347 3.405-.05.31-1.578c4.352 3.992 7.089 1.257 7.082-3.53zm12.972-1.31l-3.108.016-.008.421v1.734c0 .929-.767 1.685-1.698 1.685h-.608c-.934 0-1.7-.756-1.7-1.685v-4.561h7.117v-2.679c0-1.957-.051-3.914-.212-5.033-.509-3.54-5.479-4.103-7.988-2.29a4.679 4.679 0 0 0-1.74 2.341c-.353 1.019-.528 2.41-.528 4.177v5.89c0 9.789 11.892 8.405 10.473-.016zM43.958 26.397c.214.521.546.941.997 1.26.444.312 1.015.471 1.696.471.598 0 1.127-.162 1.588-.495.459-.331.847-.826 1.163-1.487l-.079 1.627h4.621V8.123h-3.638v15.292a1.516 1.516 0 0 1-3.03 0V8.123H43.48v13.253c0 1.688.031 2.814.081 3.384.053.567.184 1.111.397 1.637zM29.956 15.3c0-1.886.157-3.359.471-4.421.314-1.058.879-1.908 1.698-2.55.816-.645 1.861-.967 3.133-.967 1.068 0 1.984.209 2.749.621.769.414 1.361.95 1.773 1.612.419.665.703 1.348.855 2.046.155.708.23 1.776.23 3.218v4.969c0 1.822-.072 3.164-.215 4.015a6.38 6.38 0 0 1-.91 2.388c-.461.734-1.057 1.283-1.778 1.634-.729.354-1.564.527-2.507.527-1.054 0-1.94-.146-2.671-.449-.734-.302-1.302-.758-1.705-1.362-.407-.605-.694-1.343-.868-2.204-.174-.859-.257-2.151-.257-3.874l.002-5.203zm3.619 7.805c0 1.113.829 2.021 1.837 2.021 1.01 0 1.834-.908 1.834-2.021v-10.46c0-1.111-.824-2.02-1.834-2.02-1.008 0-1.837.909-1.837 2.02v10.46zm-12.788 5.283h4.359l.005-15.071L30.302.407h-4.768l-2.739 9.589L20.019.38H15.3l5.479 12.943.008 15.065z" fill="#fff"/></svg><svg viewBox="0 0 24 16.7" width="24" height="16.7" x="24"><path fill="#706F6F" d="M22.9 1.4c-.4-.8-1.1-1.2-2-1.3-.7 0-1.4-.1-2.1-.1H5.2c-.6 0-1.3.1-2 .1-.9.1-1.7.4-2 1.3-.4.8-.7 1.5-.8 2.3-.5 2.9-.5 5.9-.1 8.9.1.9.4 1.8.8 2.6.3.7.9 1.2 1.7 1.3.6.1 1.3.1 1.9.1 2.5.1 4.9.1 7.4.2h4.1c1.4 0 2.7-.1 4.1-.2 1.7-.1 2.5-.7 3-2.3.1-.3.2-.6.2-.9.6-3.1.5-6.2.1-9.3 0-1-.4-1.8-.7-2.7zM9.6 12.6V3.9c2.3 1.5 4.5 2.9 6.7 4.4-2.2 1.5-4.4 2.9-6.7 4.3z"/></svg></svg>