<svg id="Camada_1" xmlns="http://www.w3.org/2000/svg" viewBox="0 0 17 13"><style>.st0{fill:#439384}</style><path class="st0" d="M13.7 10.3c-.4 0-.7-.3-.7-.7V5.8c0-2.4-2-4.4-4.5-4.4S4 3.4 4 5.8v3.8c0 .4-.3.7-.7.7s-.7-.3-.7-.7V5.8C2.6 2.6 5.2 0 8.5 0s5.9 2.6 5.9 5.8v3.8c0 .4-.3.7-.7.7z"/><path class="st0" d="M13.8 10.3c-.4 0-.7-.3-.7-.7 0-.4.3-.7.7-.7 1 0 1.7-.7 1.7-1.5s-.8-1.5-1.7-1.5c-.4 0-.7-.3-.7-.7 0-.4.3-.7.7-.7 1.7 0 3.2 1.3 3.2 2.9 0 1.6-1.4 2.9-3.2 2.9zM3.2 10.3C1.4 10.3 0 9 0 7.4c0-1.6 1.4-2.9 3.2-2.9.4 0 .7.3.7.7 0 .4-.3.7-.7.7-1 0-1.7.7-1.7 1.5s.8 1.5 1.7 1.5c.4 0 .7.3.7.7 0 .4-.3.7-.7.7z"/><path class="st0" d="M10.7 12.7h-.2c-.4 0-.7-.3-.7-.7 0-.4.3-.7.7-.7.9 0 1.6-.2 2-.5.5-.5.5-1 .5-1 0-.4.3-.7.7-.7.4 0 .7.3.7.7 0 .1 0 1.1-.8 1.9-.7.6-1.6 1-2.9 1z"/><path class="st0" d="M10.3 10.8c-.6 0-1.1.5-1.1 1.1 0 .6.5 1.1 1.1 1.1.6 0 1.1-.5 1.1-1.1 0-.6-.5-1.1-1.1-1.1z"/></svg>