<svg id="Camada_1" xmlns="http://www.w3.org/2000/svg" viewBox="0 0 14 13"><style>.st0{fill:#439384}</style><path class="st0" d="M2.2 13c-.1 0-.2 0-.2-.1-.2-.1-.3-.3-.3-.5v-1.5h-.6c-.6 0-1.1-.4-1.1-1V5.1C0 4.5.5 4 1.1 4h7.3c.6 0 1.2.5 1.2 1.1v4.8c0 .6-.5 1.1-1.1 1.1H5.1l-2.5 1.9c-.1.1-.3.1-.4.1zM1.1 5.1v4.8h1.1c.3 0 .6.2.6.5v.9L4.5 10c.1-.1.2-.1.3-.1h3.6V5.1H1.1z"/><path class="st0" d="M11.8 9c-.1 0-.2 0-.3-.1l-2.7-2c-.3-.2-.3-.6-.1-.8.2-.2.5-.3.8-.1l1.8 1.4v-1c0-.3.3-.5.6-.5H13V1.1H5.6v3.3c0 .3-.3.5-.6.5s-.6-.2-.6-.5V1.1C4.4.5 5 0 5.6 0h7.3c.6 0 1.1.5 1.1 1.1v4.8c0 .6-.5 1.1-1.1 1.1h-.5v1.5c0 .2-.1.4-.3.5h-.3z"/></svg>