<svg id="Camada_1" xmlns="http://www.w3.org/2000/svg" viewBox="0 0 18 13"><style>.st0{fill:#439384}</style><path class="st0" d="M16.5 1.4v5.8H8.7V1.4h7.8M18 0H7.2v8.7H18V0zM11.9 10.9H7.8c-.4 0-.7-.3-.7-.7s.3-.7.7-.7h4.1c.4 0 .7.3.7.7s-.3.7-.7.7zM15.1 10.6c.3 0 .6.3.6.6s-.3.6-.6.6-.6-.3-.6-.6.3-.6.6-.6m0-1.2c-1 0-1.9.8-1.9 1.8s.9 1.8 1.9 1.8c1.1 0 1.9-.8 1.9-1.8s-.9-1.8-1.9-1.8zM4.8 4.2v3c-1.3 0-2.5.6-3.3 1.5V7.1l1.6-2.9h1.7m1.4-1.4H2.1L0 6.8V11h2.1c.1-1.3 1.3-2.3 2.7-2.3.5 0 1.1.2 1.5.4V2.8h-.1z"/><path class="st0" d="M4.8 10.6c.3 0 .6.3.6.6s-.3.6-.6.6-.6-.3-.6-.6c-.1-.3.2-.6.6-.6m0-1.2c-1 0-1.9.8-1.9 1.8S3.7 13 4.8 13c1 0 1.9-.8 1.9-1.8s-.9-1.8-1.9-1.8z"/></svg>