<svg id="Camada_1" xmlns="http://www.w3.org/2000/svg" viewBox="0 0 129 37"><style>.st0{fill:#fff}</style><path class="st0" d="M105 31.2c.5 1.1 1.2 2.1 2.1 3 1 .9 2.2 1.6 3.7 2.1s3.3.8 5.4.8c2 0 4-.3 6-1s3.8-1.7 5.3-3.1l-.7-.7.1.1-.2-.2-.2-.2c-1.8-1.7-3.5-1.1-4.5-.6-.3.2-.6.4-1 .5-.6.3-1.4.5-2.1.7-.8.2-1.7.3-2.7.3-1.2 0-2.2-.2-3-.5-.8-.3-1.5-.8-2.1-1.4-.6-.6-1-1.2-1.3-1.9-.3-.7-.4-1.4-.4-2.1v-1.2h4c2.2 0 4.2-.2 6.1-.5 1.9-.3 3.6-.9 5-1.7 1.4-.8 2.5-1.8 3.4-3 .8-1.2 1.2-2.8 1.2-4.6 0-1.4-.3-2.6-.8-3.7-.5-1-1.2-1.9-2.1-2.6-.9-.7-1.9-1.2-3.1-1.6-1.2-.4-3.6-.5-5.8-.5-9.1 0-12.8 6.2-12.8 11.9v8.4c-.1.9.1 2.1.5 3.3zm4.4-11.3c0-.9.1-1.9.4-2.9.3-1 .7-1.9 1.4-2.6.6-.8 1.5-1.4 2.5-1.9s2.3-.7 3.8-.7c1.9 0 3.4.4 4.5 1.1 1.1.7 1.7 1.9 1.7 3.5 0 1.1-.3 2-1.1 2.7-.7.7-1.6 1.3-2.7 1.7-1.1.4-2.3.7-3.7.8-1.3.1-2.6.2-3.9.2h-2.9v-1.9zM50.8 10c-1-.9-2.2-1.6-3.7-2.1s-3.3-.8-5.4-.8c-2 0-4 .3-6 1s-3.8 1.7-5.3 3.1l.7.7v.1l.2.2.2.2c1.8 1.7 3.5 1.1 4.5.6.3-.2.6-.4 1-.5.6-.3 1.4-.5 2.1-.7.8-.2 1.7-.3 2.7-.3 1.2 0 2.2.2 3 .5.8.3 1.5.8 2.1 1.4.6.6 1 1.2 1.3 1.9.3.7.4 1.4.4 2.1v1.2h-4c-2.2 0-4.2.2-6.1.5-1.9.3-3.6.9-5 1.7-1.4.8-2.5 1.8-3.4 3-.8 1.2-1.2 2.8-1.2 4.6 0 1.4.3 2.6.8 3.7.5 1 1.2 1.9 2.1 2.6.9.7 1.9 1.2 3.1 1.6 1.2.4 3.6.5 5.8.5 9.1 0 12.8-6.2 12.8-11.9v-8.4c0-1.2-.2-2.4-.7-3.5-.4-1.1-1.1-2.1-2-3zm-2.2 14.3c0 .9-.1 1.9-.4 2.9-.3 1-.7 1.9-1.4 2.6-.6.8-1.5 1.4-2.5 1.9s-2.3.7-3.8.7c-1.9 0-3.4-.4-4.5-1.1-1.1-.7-1.7-1.9-1.7-3.5 0-1.1.3-2 1.1-2.7.7-.7 1.6-1.3 2.7-1.7 1.1-.4 2.3-.7 3.7-.8 1.3-.1 2.6-.2 3.9-.2h2.9v1.9zM22.1 9.7c-.9-.9-2-1.5-3.3-1.9-1.3-.4-2.6-.6-3.9-.6-2.2 0-4.1.5-5.8 1.4-1.7.9-3 2.3-3.7 3.9v-.8C5.3 8.5 2.9 8 1.9 7.9H0v24.2C0 35.7 2.8 36 3.7 36h1.7V21.5c0-1.6.2-3 .6-4.2.4-1.2 1-2.2 1.7-2.9.7-.8 1.6-1.3 2.5-1.7 1-.4 2-.5 3.1-.5.8 0 1.7.1 2.4.4.8.3 1.5.7 2.1 1.2.6.6 1.1 1.3 1.4 2.3.4.9.5 2 .5 3.4v12.7c0 3.5 2.8 3.9 3.7 3.9h1.7V17.9c0-1.9-.3-3.5-.8-4.8-.5-1.4-1.3-2.5-2.2-3.4zM96.7 7.9H95v14.5c0 1.6-.2 3-.6 4.2-.4 1.2-1 2.2-1.7 2.9-.7.8-1.6 1.3-2.5 1.7-1 .4-2 .5-3.1.5-.8 0-1.7-.1-2.4-.4-.8-.3-1.5-.7-2.1-1.2-.6-.6-1.1-1.3-1.4-2.3-.4-.9-.5-2-.5-3.4V11.8c0-3.5-2.8-3.9-3.7-3.9h-1.7V26c0 1.9.3 3.5.8 4.8.6 1.4 1.3 2.5 2.3 3.4.9.9 2 1.5 3.3 1.9 1.3.4 2.6.6 3.9.6 2.2 0 4.1-.5 5.8-1.4 1.7-.9 3-2.3 3.7-3.9v.8c.1 3.1 2.5 3.6 3.5 3.7h1.9V11.8c-.2-3.5-3-3.9-3.8-3.9zM67 7.9h-4V4c0-3.6-2.8-3.9-3.7-4h-1.7v27.2c0 1.1.1 2.3.2 3.4s.4 2.1 1 3.1c.5.9 1.4 1.7 2.5 2.2 1.1.5 2.5.8 4.4.9H67c3.6 0 3.9-2.8 3.9-3.6v-1h-4.1c-.9 0-1.6-.2-2.1-.5-.5-.4-.9-.9-1.2-1.5-.3-.7-.5-1.4-.5-2.2V12.5h7.9v-1c0-.8-.4-3.6-3.9-3.6z"/></svg>