<svg xmlns="http://www.w3.org/2000/svg" viewBox="0 0 26 26"><path fill="#666" d="M13 25.7C6 25.7.3 20 .3 13S6 .3 13 .3 25.7 6 25.7 13 20 25.7 13 25.7zM13 .9C6.4.9.9 6.4.9 13S6.4 25.1 13 25.1 25.1 19.6 25.1 13 19.6.9 13 .9z"/><path fill="none" stroke="#666" stroke-width=".65" stroke-miterlimit="10" d="M16.8 10.5c1.8 2.4 1.6 5.8-.6 8-2.4 2.4-6.3 2.4-8.8 0-2.4-2.4-2.4-6.3 0-8.7 2.2-2.2 5.6-2.4 8-.6"/><path fill="none" stroke="#666" stroke-width=".65" stroke-miterlimit="10" d="M15.6 11.7c1.1 1.7.9 4.1-.6 5.6-1.8 1.8-4.6 1.8-6.4 0-1.8-1.8-1.8-4.6 0-6.4 1.5-1.5 3.9-1.7 5.6-.6"/><path fill="none" stroke="#666" stroke-width=".65" stroke-miterlimit="10" d="M14.3 13c.5 1 .3 2.3-.6 3.1-1.1 1.1-2.9 1.1-4 0s-1.1-2.9 0-4c.9-.9 2.1-1 3.1-.6"/><path fill="none" stroke="#666" stroke-width=".65" stroke-miterlimit="10" d="M12.8 14.5c-.1.2-.1.3-.3.5-.4.4-1.1.4-1.5 0-.4-.4-.4-1.1 0-1.5.1-.1.3-.2.5-.3M11.9 14.1l7.7-7.7M17 9.3l1.6.5L20.4 8l-1.6-.5M16.7 9l-.5-1.5 1.9-1.9.4 1.6"/></svg>