<svg xmlns="http://www.w3.org/2000/svg" viewBox="0 0 26.4 25.6"><g fill="#666"><path d="M13.2 25.5C6.2 25.5.5 19.8.5 12.8S6.2.1 13.2.1s12.7 5.7 12.7 12.7-5.7 12.7-12.7 12.7zm0-24.8C6.5.7 1.1 6.1 1.1 12.8s5.4 12.1 12.1 12.1 12.1-5.4 12.1-12.1S19.8.7 13.2.7z"/><path d="M10.3 5.3h.7v3.3h-.7zM11.4 5.3h.7v3.3h-.7z"/><path d="M12.5 8.6c0 .4-.1 1.1-.8 1.4-.3.2-.8.2-1.1 0-.6-.3-.7-1-.7-1.4V5.3h-.7v3.3c0 .9.4 1.5 1 1.9l-.3 8.7c0 .6.3 1.1.7 1.3.2.1.4.1.6.1.2 0 .4 0 .6-.1.5-.2.8-.7.7-1.3l-.3-8.7c.7-.4 1-1 1-1.9V5.3h-.7v3.3zm-.7 10.6c0 .3-.1.6-.4.7-.2.1-.4.1-.6 0-.2-.1-.4-.4-.4-.7l.3-8.5h.6l.5 8.5zM17 4.9h-.2c-1.4 0-2.2 1.1-2.2 2.8v4.4h.7l-.6 7.2c0 .5.2 1 .7 1.2.2.1.4.1.5.1.2 0 .4 0 .6-.1.5-.2.7-.6.7-1.2V5l-.2-.1zM15.9 20c-.1 0-.2 0-.3-.1-.2-.1-.3-.3-.3-.6l.7-7.8v-.1h-.7V7.7c0-.9.2-1.9 1.2-2.1v13.7c0 .2-.1.5-.3.6-.1.1-.2.1-.3.1z"/></g></svg>