<svg xmlns="http://www.w3.org/2000/svg" viewBox="0 0 26 26"><path fill="#666" d="M13 25.7C6 25.7.3 20 .3 13S6 .3 13 .3 25.7 6 25.7 13 20 25.7 13 25.7zM13 .9C6.4.9.9 6.4.9 13S6.4 25.1 13 25.1 25.1 19.6 25.1 13 19.6.9 13 .9z"/><path fill="none" stroke="#666" stroke-width=".65" stroke-miterlimit="10" d="M19.6 12.8l-1.2-1.2-6.8 6.8 1.2 1.2 6.8-6.8zM19.8 15.2L18.6 14 14 18.6l1.2 1.2 4.6-4.6zM19.9 17.6l-1.2-1.2-2.3 2.3 1.2 1.2 2.3-2.3zM14.4 15.6l1.2-1.2-4-4-1.2 1.2 4 4zM13.2 6.4l1.2 1.2-6.8 6.8-1.2-1.2 6.8-6.8zM10.8 6.2L12 7.4 7.4 12l-1.2-1.2 4.6-4.6zM8.4 6.1l1.2 1.2-2.3 2.3-1.2-1.2 2.3-2.3z"/><g><path fill="#666" d="M13 117.7C6 117.7.3 112 .3 105S6 92.3 13 92.3 25.7 98 25.7 105 20 117.7 13 117.7zm0-24.8C6.4 92.9.9 98.3.9 105s5.4 12.1 12.1 12.1 12.1-5.4 12.1-12.1S19.6 92.9 13 92.9z"/><path fill="none" stroke="#666" stroke-width=".65" stroke-miterlimit="10" d="M16.8 102.5c1.8 2.4 1.6 5.8-.6 8-2.4 2.4-6.3 2.4-8.8 0-2.4-2.4-2.4-6.3 0-8.8 2.2-2.2 5.6-2.4 8-.6"/><path fill="none" stroke="#666" stroke-width=".65" stroke-miterlimit="10" d="M15.6 103.7c1.1 1.7.9 4.1-.6 5.6-1.8 1.8-4.6 1.8-6.4 0-1.8-1.8-1.8-4.6 0-6.4 1.5-1.5 3.9-1.7 5.6-.6"/><path fill="none" stroke="#666" stroke-width=".65" stroke-miterlimit="10" d="M14.3 105c.5 1 .3 2.3-.6 3.1-1.1 1.1-2.9 1.1-4 0s-1.1-2.9 0-4c.9-.9 2.1-1 3.1-.6"/><path fill="none" stroke="#666" stroke-width=".65" stroke-miterlimit="10" d="M12.8 106.5c-.1.2-.1.3-.3.5-.4.4-1.1.4-1.5 0-.4-.4-.4-1.1 0-1.5.1-.1.3-.2.5-.3M11.9 106.1l7.7-7.7M17 101.3l1.6.5 1.8-1.8-1.6-.5M16.7 101l-.5-1.5 1.9-1.9.4 1.6"/></g><g fill="#666"><path d="M105 71.7c-7 0-12.7-5.7-12.7-12.7S98 46.3 105 46.3 117.7 52 117.7 59 112 71.7 105 71.7zm0-24.8c-6.6 0-12.1 5.4-12.1 12.1s5.4 12.1 12.1 12.1 12.1-5.4 12.1-12.1-5.5-12.1-12.1-12.1z"/><path d="M105 51.8l-.1.6h.1c2.6 0 4.7 2.1 4.7 4.7v.1h.6v-.1c0-2.9-2.4-5.3-5.3-5.3z"/><path d="M112.9 57.2h-.6c0 3.5-2.5 6.4-5.9 7v-.4c3.1-.7 5.4-3.5 5.4-6.7 0-3.8-3.1-6.8-6.8-6.8-3.8 0-6.8 3.1-6.8 6.8 0 3.2 2.3 6 5.4 6.7v.4c-3.3-.7-5.8-3.6-5.8-7h-.6c0 3.8 2.8 7 6.4 7.7v.7c-1 .4-1.6 1.1-1.6 1.8v.3h6v-.3c0-.8-.6-1.4-1.6-1.8v-.7c3.7-.7 6.5-3.9 6.5-7.7zm-1.7-.1c0 3.4-2.8 6.2-6.2 6.2-3.4 0-6.2-2.8-6.2-6.2s2.8-6.2 6.2-6.2c3.4 0 6.2 2.8 6.2 6.2zm-8.5 10c.2-.6 1.2-1.1 2.3-1.1 1.1 0 2.1.5 2.3 1.1h-4.6zm1.5-1.7v-1.5c.5.1 1.1.1 1.6 0v1.5c-.3-.1-.5-.1-.8-.1-.3 0-.6 0-.8.1z"/></g></svg>