<svg xmlns="http://www.w3.org/2000/svg" viewBox="0 0 26 26"><path fill="#666" d="M13 117.7C6 117.7.3 112 .3 105S6 92.3 13 92.3 25.7 98 25.7 105 20 117.7 13 117.7zm0-24.8C6.4 92.9.9 98.3.9 105s5.4 12.1 12.1 12.1 12.1-5.4 12.1-12.1S19.6 92.9 13 92.9z"/><path fill="none" stroke="#666" stroke-width=".65" stroke-miterlimit="10" d="M16.8 102.5c1.8 2.4 1.6 5.8-.6 8-2.4 2.4-6.3 2.4-8.8 0-2.4-2.4-2.4-6.3 0-8.8 2.2-2.2 5.6-2.4 8-.6"/><path fill="none" stroke="#666" stroke-width=".65" stroke-miterlimit="10" d="M15.6 103.7c1.1 1.7.9 4.1-.6 5.6-1.8 1.8-4.6 1.8-6.4 0-1.8-1.8-1.8-4.6 0-6.4 1.5-1.5 3.9-1.7 5.6-.6"/><path fill="none" stroke="#666" stroke-width=".65" stroke-miterlimit="10" d="M14.3 105c.5 1 .3 2.3-.6 3.1-1.1 1.1-2.9 1.1-4 0s-1.1-2.9 0-4c.9-.9 2.1-1 3.1-.6"/><path fill="none" stroke="#666" stroke-width=".65" stroke-miterlimit="10" d="M12.8 106.5c-.1.2-.1.3-.3.5-.4.4-1.1.4-1.5 0-.4-.4-.4-1.1 0-1.5.1-.1.3-.2.5-.3M11.9 106.1l7.7-7.7M17 101.3l1.6.5 1.8-1.8-1.6-.5M16.7 101l-.5-1.5 1.9-1.9.4 1.6"/><g fill="#666"><path d="M13 26C6 26 .3 20.3.3 13.3S6 .6 13 .6s12.7 5.7 12.7 12.7S20 26 13 26zm0-24.7C6.4 1.3.9 6.7.9 13.3S6.4 25.4 13 25.4 25.1 20 25.1 13.3s-5.5-12-12.1-12z"/><path d="M13 6.1l-.1.6h.1c2.6 0 4.7 2.1 4.7 4.7v.1h.6v-.1c0-2.9-2.4-5.3-5.3-5.3z"/><path d="M20.9 11.5h-.6c0 3.5-2.5 6.4-5.9 7v-.4c3.1-.7 5.4-3.5 5.4-6.7 0-3.8-3.1-6.8-6.8-6.8s-6.8 3.1-6.8 6.8c0 3.2 2.3 6 5.4 6.7v.4c-3.3-.7-5.8-3.6-5.8-7h-.7c0 3.8 2.8 7 6.4 7.7v.7c-1 .4-1.6 1.1-1.6 1.8v.3h6v-.3c0-.8-.6-1.4-1.6-1.8v-.7c3.8-.7 6.6-3.9 6.6-7.7zm-1.7-.1c0 3.4-2.8 6.2-6.2 6.2s-6.2-2.8-6.2-6.2S9.6 5.3 13 5.3s6.2 2.7 6.2 6.1zm-8.5 10c.2-.6 1.2-1.1 2.3-1.1s2.1.5 2.3 1.1h-4.6zm1.5-1.7v-1.5c.5.1 1.1.1 1.6 0v1.5c-.3-.1-.5-.1-.8-.1-.3 0-.6.1-.8.1z"/></g></svg>