<svg xmlns="http://www.w3.org/2000/svg" viewBox="0 0 26 26"><path fill="#666" d="M105 25.7c-7 0-12.7-5.7-12.7-12.7S98 .3 105 .3c7 0 12.7 5.7 12.7 12.7S112 25.7 105 25.7zm0-24.8C98.4.9 92.9 6.3 92.9 13s5.4 12.1 12.1 12.1c6.6 0 12.1-5.4 12.1-12.1S111.6.9 105 .9z"/><path fill="none" stroke="#666" stroke-width=".65" stroke-miterlimit="10" d="M108.2 8.1c-.1-1.6-1.4-2.9-3.2-2.9-1.9 0-3.1 1.3-3.2 2.9 0 .9 1.4.8 3.2.8 1.6.2 3.2 0 3.2-.8zM104.4 6.6l.7 2.5"/><path fill="none" stroke="#666" stroke-width=".65" stroke-miterlimit="10" d="M107.5 6.3h2.5c1 0 1.9.8 1.9 1.9v9.4c0 1-.8 1.9-1.9 1.9h-10c-1 0-1.9-.8-1.9-1.9V8.2c0-1 .8-1.9 1.9-1.9h2.5"/><path fill="none" stroke="#666" stroke-width=".65" stroke-miterlimit="10" d="M108.3 7.5h1.2c.9 0 1.3.5 1.3 1.3V17c0 .9-.5 1.3-1.3 1.3h-9c-.9 0-1.3-.5-1.3-1.3V8.8c0-.9.5-1.3 1.3-1.3h1.2"/><path fill="#666" d="M13 25.7C6 25.7.3 20 .3 13S6 .3 13 .3 25.7 6 25.7 13 20 25.7 13 25.7zM13 .9C6.4.9.9 6.4.9 13S6.4 25.1 13 25.1 25.1 19.6 25.1 13 19.6.9 13 .9z"/><path fill="none" stroke="#666" stroke-width=".65" stroke-miterlimit="10" d="M6.2 13.9C5 12 4.6 9.9 6.3 8.2c.9-.9 2-1.3 3.1-1.3 3.7 0 3.1 2.5 3.6 3 .5-.5-.2-3 3.6-3 1.1 0 2.2.4 3.1 1.3 4.2 4.2-4.2 10.5-6.2 11.9-.6.4-.4.4-1 0-.8-.5-2.4-1.7-3.9-3.2"/><path fill="none" stroke="#666" stroke-width=".65" stroke-miterlimit="10" d="M5.1 15.2h3.4l.9-5.3 1 5.3h1.5l.9 2.5c.8-2.2 1.4-3.6 2-5.9l1 3.4h3"/><g><path fill="#666" d="M59 71.7c-7 0-12.7-5.7-12.7-12.7S52 46.3 59 46.3 71.7 52 71.7 59 66 71.7 59 71.7zm0-24.8c-6.6 0-12.1 5.4-12.1 12.1S52.4 71.1 59 71.1 71.1 65.6 71.1 59 65.6 46.9 59 46.9z"/><path fill="none" stroke="#666" stroke-width=".65" stroke-miterlimit="10" d="M65.6 58.8l-1.2-1.2-6.8 6.8 1.2 1.2 6.8-6.8zM65.8 61.2L64.6 60 60 64.6l1.2 1.2 4.6-4.6zM65.9 63.6l-1.2-1.2-2.3 2.3 1.2 1.2 2.3-2.3z"/><path fill="none" stroke="#666" stroke-width=".65" stroke-miterlimit="10" d="M60.4 61.6l1.2-1.2-4-4-1.2 1.2 4 4z"/><path fill="none" stroke="#666" stroke-width=".65" stroke-miterlimit="10" d="M59.2 52.4l1.2 1.2-6.8 6.8-1.2-1.2 6.8-6.8zM56.8 52.2l1.2 1.2-4.6 4.6-1.2-1.2 4.6-4.6zM54.4 52.1l1.2 1.2-2.3 2.3-1.2-1.2 2.3-2.3z"/></g><g fill="#666"><path d="M13 72.7C6 72.7.3 67 .3 60S6 47.3 13 47.3 25.7 53 25.7 60 20 72.7 13 72.7zm0-24.8C6.4 47.9.9 53.4.9 60S6.4 72.1 13 72.1 25.1 66.6 25.1 60 19.6 47.9 13 47.9z"/><path d="M16.9 60.5c-.5 0-.9-.1-1.4-.3l-.3.6c.5.3 1.1.4 1.7.4 2 0 3.7-1.6 3.7-3.7 0-2-1.6-3.7-3.7-3.7-.4 0-.8.1-1.2.2-.7-.8-1.7-1.2-2.7-1.2-1 0-2 .4-2.7 1.2-.4-.1-.8-.2-1.2-.2-2 0-3.7 1.6-3.7 3.7 0 1.8 1.3 3.3 3.1 3.6v5.2c0 .6.5 1 1 1h7c.6 0 1-.5 1-1v-4.7h-.6v3.7h-1.8v-2.6h-.6v2.6h-1.1v-2.6h-.6v2.6h-1.1v-2.6h-.6v2.6h-2v-4.1h.2v-.6h-.2c-1.7 0-3-1.4-3-3s1.4-3 3-3c.4 0 .8.1 1.2.2l.2.1.1-.2c.6-.7 1.4-1.1 2.3-1.1.9 0 1.8.4 2.4 1.1l.2.2.2-.1c.4-.2.8-.2 1.2-.2 1.7 0 3 1.4 3 3s-1.3 2.9-3 2.9zm-7.8 5.7v-.5h7.7v.5c0 .2-.2.4-.4.4h-7c-.1 0-.3-.2-.3-.4z"/></g><g><path fill="#666" d="M13 117.7C6 117.7.3 112 .3 105S6 92.3 13 92.3 25.7 98 25.7 105 20 117.7 13 117.7zm0-24.8C6.4 92.9.9 98.3.9 105s5.4 12.1 12.1 12.1 12.1-5.4 12.1-12.1S19.6 92.9 13 92.9z"/><path fill="none" stroke="#666" stroke-width=".65" stroke-miterlimit="10" d="M16.8 102.5c1.8 2.4 1.6 5.8-.6 8-2.4 2.4-6.3 2.4-8.8 0-2.4-2.4-2.4-6.3 0-8.8 2.2-2.2 5.6-2.4 8-.6"/><path fill="none" stroke="#666" stroke-width=".65" stroke-miterlimit="10" d="M15.6 103.7c1.1 1.7.9 4.1-.6 5.6-1.8 1.8-4.6 1.8-6.4 0-1.8-1.8-1.8-4.6 0-6.4 1.5-1.5 3.9-1.7 5.6-.6"/><path fill="none" stroke="#666" stroke-width=".65" stroke-miterlimit="10" d="M14.3 105c.5 1 .3 2.3-.6 3.1-1.1 1.1-2.9 1.1-4 0s-1.1-2.9 0-4c.9-.9 2.1-1 3.1-.6"/><path fill="none" stroke="#666" stroke-width=".65" stroke-miterlimit="10" d="M12.8 106.5c-.1.2-.1.3-.3.5-.4.4-1.1.4-1.5 0-.4-.4-.4-1.1 0-1.5.1-.1.3-.2.5-.3M11.9 106.1l7.7-7.7M17 101.3l1.6.5 1.8-1.8-1.6-.5M16.7 101l-.5-1.5 1.9-1.9.4 1.6"/></g><g fill="#666"><path d="M105 71.7c-7 0-12.7-5.7-12.7-12.7S98 46.3 105 46.3 117.7 52 117.7 59 112 71.7 105 71.7zm0-24.8c-6.6 0-12.1 5.4-12.1 12.1s5.4 12.1 12.1 12.1 12.1-5.4 12.1-12.1-5.5-12.1-12.1-12.1z"/><path d="M105 51.8l-.1.6h.1c2.6 0 4.7 2.1 4.7 4.7v.1h.6v-.1c0-2.9-2.4-5.3-5.3-5.3z"/><path d="M112.9 57.2h-.6c0 3.5-2.5 6.4-5.9 7v-.4c3.1-.7 5.4-3.5 5.4-6.7 0-3.8-3.1-6.8-6.8-6.8-3.8 0-6.8 3.1-6.8 6.8 0 3.2 2.3 6 5.4 6.7v.4c-3.3-.7-5.8-3.6-5.8-7h-.6c0 3.8 2.8 7 6.4 7.7v.7c-1 .4-1.6 1.1-1.6 1.8v.3h6v-.3c0-.8-.6-1.4-1.6-1.8v-.7c3.7-.7 6.5-3.9 6.5-7.7zm-1.7-.1c0 3.4-2.8 6.2-6.2 6.2-3.4 0-6.2-2.8-6.2-6.2s2.8-6.2 6.2-6.2c3.4 0 6.2 2.8 6.2 6.2zm-8.5 10c.2-.6 1.2-1.1 2.3-1.1 1.1 0 2.1.5 2.3 1.1h-4.6zm1.5-1.7v-1.5c.5.1 1.1.1 1.6 0v1.5c-.3-.1-.5-.1-.8-.1-.3 0-.6 0-.8.1z"/></g><g fill="#666"><path d="M59 25.7c-7 0-12.7-5.7-12.7-12.7S52 .3 59 .3 71.7 6 71.7 13 66 25.7 59 25.7zM59 .9C52.4.9 46.9 6.3 46.9 13S52.4 25.1 59 25.1 71.1 19.6 71.1 13 65.6.9 59 .9z"/><path d="M56.1 5.5h.7v3.3h-.7zM57.3 5.5h.7v3.3h-.7z"/><path d="M58.4 8.8c0 .4-.1 1.1-.8 1.4-.3.2-.8.2-1.1 0-.7-.3-.8-1-.8-1.4V5.5H55v3.3c0 .9.4 1.5 1 1.9l-.3 8.7c0 .6.3 1.1.7 1.3.2.1.4.1.6.1.2 0 .4 0 .6-.1.5-.2.8-.7.7-1.3l-.3-8.7c.7-.4 1-1 1-1.9V5.5h-.7v3.3zm-.7 10.6c0 .3-.1.6-.4.7-.2.1-.4.1-.6 0-.2-.1-.4-.4-.4-.7l.3-8.5h.6l.5 8.5zM62.8 5.2h-.2c-1.4 0-2.2 1.1-2.2 2.8v4.4h.7l-.6 7.2c0 .5.2 1 .7 1.2.2.1.4.1.5.1.2 0 .4 0 .6-.1.5-.2.7-.6.7-1.2V5.2h-.2zm-1.1 15c-.1 0-.2 0-.3-.1-.2-.1-.3-.3-.3-.6l.7-7.8v-.1h-.7V7.9c0-.9.2-1.9 1.2-2.1v13.7c0 .2-.1.5-.3.6-.1.1-.2.1-.3.1z"/></g></svg>