<svg width="45" height="45" viewBox="0 0 346 347" xmlns="http://www.w3.org/2000/svg"><title>Untitled 8</title><g fill="none"><path d="M162.9 0h20.3c1.3.2 2.6.5 3.9.7 6.3.9 12.8 1.4 19 2.6 30.7 6 57.9 19.3 81.3 40.1 30.1 26.8 48.9 60.1 55.9 99.9 1.2 6.5 1.8 13.1 2.7 19.7v19.6c-.2 1.2-.5 2.4-.6 3.6-.8 6.2-1.2 12.6-2.4 18.7-5.9 30.7-19 58.1-39.6 81.6-26.9 30.7-60.6 49.8-100.8 56.9-6.4 1.1-12.9 1.8-19.3 2.7H163c-1.2-.2-2.4-.6-3.6-.6-14.4-1-28.5-4-42.2-8.7-33-11.5-60.2-31.2-81.4-58.9-17.2-22.5-28.4-47.6-33-75.6-1.1-6.5-1.8-13.1-2.7-19.7V163c.2-1.1.5-2.2.6-3.3.9-6.3 1.3-12.8 2.6-19 8.3-42.7 29.8-77.5 64-104.3 22.5-17.7 48-28.9 76.3-33.6 6.3-1.2 12.8-1.9 19.3-2.8z" fill="#549689"/><path d="M284 256.1c39-49.5 40.3-129.8-14.3-183.1-54.1-52.8-141.7-52.1-195 1.6-53.5 53.9-50.9 133.8-12.2 182.1 9.9-7.5 21.6-11.5 32.9-16.2 15.1-6.3 30.2-12.9 45.3-19.3 2-.9 2.7-2.1 2.6-4.2-.1-4.9-.1-9.7.2-14.6.2-3.5-.3-6.3-2.8-9-1.8-1.9-3.1-4.4-4-6.9-2-5.8-3.7-11.8-5.6-18-4.6-.1-7.1-3.8-9.2-7.8-2.8-5.2-2.1-10.6-1-16.1.8-3.9 1.9-7.5 6.7-8.1-.5-4.4-.9-8.6-1.5-12.8-2.3-16.3 2.8-29.8 16-39.6 16.9-12.5 35.5-14 54.3-5.3 17.1 7.9 26.6 21.6 25.1 41.3-.4 5.4-1.1 10.9-1.6 16.5 3.7.2 5.4 2.7 6 5.8.8 4.2 1.5 8.6 1.3 12.9-.3 6.5-5.4 12-11.6 13.4-.2.8-.3 1.7-.5 2.6-1.7 9-4.2 17.7-10.5 24.8-.6.7-.8 1.9-.8 2.9 0 6.3.1 12.6.3 18.9 0 1 1 2.5 1.9 2.9 9.7 4.5 19.4 8.8 29.1 13.1 16.4 7.1 33.9 11.9 48.9 22.2z" fill="#fff"/></g></svg>