<svg xmlns="http://www.w3.org/2000/svg" width="51" height="51" viewBox="0 0 51 51"><path fill="#1E1E1C" d="M50.6 21.1c-1-5.9-3.8-10.8-8.2-14.7-3.4-3.1-7.4-5-12-5.9-.9-.2-1.9-.3-2.8-.4-.2 0-.4-.1-.6-.1h-3c-.9.1-1.9.2-2.8.4-4.2.7-7.9 2.4-11.3 5-5 4-8.2 9.1-9.4 15.4-.2.9-.3 1.9-.4 2.8 0 .1-.1.2-.1.4v2.9c.1 1 .2 1.9.4 2.9.7 4.1 2.3 7.8 4.9 11.1 3.1 4.1 7.1 7 12 8.7 2 .7 4.1 1.1 6.2 1.3.2 0 .4.1.5.1h3c1-.1 1.9-.2 2.9-.4 5.9-1.1 10.9-3.9 14.9-8.4 3-3.5 5-7.5 5.8-12 .2-.9.2-1.8.4-2.8 0-.2.1-.4.1-.5V24c-.2-1-.3-1.9-.5-2.9zm-8.7 16.7c-2.2-1.5-4.8-2.2-7.2-3.3-1.4-.6-2.9-1.3-4.3-1.9-.1-.1-.3-.3-.3-.4 0-.9 0-1.9-.1-2.8 0-.1 0-.3.1-.4.9-1 1.3-2.3 1.6-3.7 0-.1.1-.3.1-.4.9-.2 1.7-1 1.7-2 0-.6-.1-1.3-.2-1.9-.1-.5-.3-.8-.9-.9.1-.8.2-1.6.2-2.4.2-2.9-1.2-4.9-3.7-6.1-2.8-1.3-5.5-1.1-8 .8-1.9 1.4-2.7 3.4-2.4 5.8.1.6.1 1.2.2 1.9-.7.1-.9.6-1 1.2-.2.8-.3 1.6.2 2.4.3.6.7 1.1 1.4 1.2.3.9.5 1.8.8 2.7.1.4.3.7.6 1 .4.4.4.8.4 1.3v2.2c0 .3-.1.5-.4.6-2.2.9-4.4 1.9-6.7 2.8-1.7.7-3.4 1.3-4.9 2.4-5.6-7.2-6-19 1.9-26.9 7.9-7.9 20.8-8 28.7-.2 8.1 7.8 7.9 19.7 2.2 27z"/></svg>