<svg width="48" height="48" viewBox="0 0 51 51" xmlns="http://www.w3.org/2000/svg"><title>Untitled 5</title><g fill="#EE7203" fill-rule="evenodd"><path d="M16.8 36.6c-.3 0-.5.1-.6.3-.2.2-.3.4-.3.7 0 .3.1.5.3.7.2.2.4.3.6.3.2 0 .5-.1.6-.3.2-.2.3-.4.3-.7 0-.3-.1-.5-.3-.7-.1-.2-.3-.3-.6-.3zM33.4 38.4c.3 0 .5-.1.6-.3.2-.2.3-.4.3-.7 0-.3-.1-.5-.3-.7-.2-.2-.4-.3-.6-.3-.3 0-.5.1-.7.3-.2.2-.3.4-.3.7 0 .3.1.5.3.7.2.2.4.3.7.3z"/><path d="M25.5-.1C11.4-.1 0 11.3 0 25.4s11.4 25.5 25.5 25.5S51 39.5 51 25.4 39.6-.1 25.5-.1zM39.8 20H38l-1.8 11H23l-3.9 5 .3.6h11.4c.1-.4.4-.7.6-1 .5-.5 1.2-.8 2-.8s1.5.3 1.9.8c.5.5.8 1.2.8 2s-.3 1.5-.8 2-1.2.8-1.9.8c-.8 0-1.5-.3-2-.8-.3-.3-.5-.6-.6-1H19.4c-.1.4-.4.7-.6 1-.5.5-1.2.8-1.9.8-.8 0-1.5-.3-1.9-.8-.5-.5-.8-1.2-.8-1.9 0-.8.3-1.5.8-2s1.2-.8 1.9-.8c.3 0 .6.1.9.2l3-3.8h-2.9l-1.8-12.9-3.7-3.7c-1 0-1.8-.8-1.8-1.8s.8-1.8 1.8-1.8 1.8.8 1.8 1.8l3.7 3.7L40 18.4V20h-.2z"/></g></svg>