<svg width="30" height="30" viewBox="0 0 40 40" xmlns="http://www.w3.org/2000/svg"><title>Untitled 6</title><path d="M13.2 16.5c-.4 0-.8.1-1.1.4l-1.4 1.4c-.1.2-.3.4-.3.5v1.6h5.5v-4c-.9.1-1.8.1-2.7.1zm.4 8.6c-.7 0-1.3.6-1.3 1.3 0 .7.6 1.2 1.2 1.2.7 0 1.3-.5 1.3-1.2.1-.8-.5-1.3-1.2-1.3zM20 .4C9.2.4.4 9.2.4 20S9.2 39.6 20 39.6 39.6 30.8 39.6 20 30.8.4 20 .4zm9.9 26c-.2.1-.5.1-.8.2h-.5c-.1 1.2-.7 2.2-1.7 2.9-.7.5-1.6.7-2.4.6-1.6-.1-3.2-1.3-3.5-3.5h-3.5c-.1 1.1-.6 2-1.5 2.7-.7.5-1.5.8-2.3.8-1.5 0-3.6-1.1-3.8-3.5H8.3c-.8 0-1.3-.5-1.4-1-.1-.7.2-1.2 1-1.5v-4.9c0-.8.3-1.5.9-2.1l2.3-2.3c.6-.6 1.2-.8 2-.8H16v-.7c0-.6 0-1.1.1-1.7.1-.9 1-1.6 1.9-1.6h11.3c1 0 1.9.8 1.9 1.9v12.6c-.1.8-.5 1.5-1.3 1.9zm-5.1-1.3c-.7 0-1.3.6-1.3 1.3 0 .7.5 1.3 1.3 1.3.7 0 1.3-.6 1.3-1.3-.1-.8-.7-1.3-1.3-1.3z" fill="#BDBCBC"/></svg>