<svg xmlns="http://www.w3.org/2000/svg" viewBox="0 0 24 24"><path fill="#706F6F" d="M16.7 11V8.1c0-.6.5-1 1.2-1H20c.3 0 .4-.1.4-.4V4.1c0-.2 0-.4-.3-.4-1.2 0-2.4-.1-3.6 0-2 .2-3.4 1.7-3.6 3.7-.1 1.1-.1 2.1-.1 3.2 0 .4-.1.5-.5.5H10c-.3 0-.4.1-.4.4v3c0 .3.1.4.4.4h2.4c.3 0 .4.1.4.3V24.1H1.6c-1 0-1.5-.5-1.5-1.5V1.5C0 .5.5 0 1.4 0h21.2c.9 0 1.4.5 1.4 1.4v21.2c0 .8-.5 1.4-1.4 1.4H17c-.3 0-.4-.1-.4-.4v-8.5c0-.3.1-.4.4-.4h2.4c.3 0 .4-.1.4-.4.1-1 .2-1.9.4-2.9.1-.4-.1-.5-.4-.5h-2.7c-.2.1-.3.1-.4.1z"/></svg>