<svg xmlns="http://www.w3.org/2000/svg" viewBox="7 7 16 16"><g fill="#706F6F"><path d="M20.2 11.9v-.2-2.3c0-.1 0-.2-.2-.2h-1c-.1 0-.2.1-.2.2v2.4c0 .1-.1.2-.2.2H16v1.4h2.8v2.5c0 .1.1.2.2.2h1.1c.1 0 .2-.1.2-.2v-2.4-.2H23v-1.4h-2.8z"/><path d="M14.5 16.2c-.5-.3-.9-.7-1.2-1.1-.2-.3-.2-.8.1-1.1l.7-.7c.8-.7 1.3-1.6 1.1-2.7-.1-.7-.3-1.3-.8-1.7-.1-.1-.3-.3-.5-.4h1c.2 0 .4-.1.6-.2.2-.2.5-.3.7-.5h-4.4c-1.3.1-2.3.5-3.1 1.4-.9 1-1 2.3-.4 3.5.6 1.1 1.5 1.5 2.7 1.7h.7c-.4.8-.3 1.5.3 2v.1h-.7c-.9 0-1.9.2-2.7.7-.7.4-1.3 1-1.6 1.8-.2.5-.2 1 .1 1.5.3.7.9 1 1.5 1.3.7.3 1.4.4 2.1.5 1.3.1 2.4 0 3.5-.7.7-.4 1.2-.9 1.4-1.7.5-1.6.1-2.9-1.1-3.7zm-3.4-2.6c-.7-.4-1.1-1-1.4-1.7-.1-.4-.1-.8-.2-1 0-.8.1-1.5.5-2 .5-.5 1-.6 1.7-.4.7.2 1.2.7 1.5 1.3.4.7.5 1.5.4 2.3-.1.5-.3 1-.7 1.3-.5.5-1.1.5-1.8.2zm2.2 7.6l-1.5.3c-.9 0-1.7-.2-2.4-.8-.6-.6-.9-1.5-.5-2.3.3-.5.7-.9 1.2-1.1.9-.5 1.9-.5 2.8-.3.2.1.3.2.5.3.3.3.7.5 1 .7.3.3.5.7.5 1.1-.1 1-.6 1.7-1.6 2.1z"/></g></svg>