<svg width="24" height="24" viewBox="0 0 66 67" xmlns="http://www.w3.org/2000/svg"><path d="M37.899 41.4a20.3 20.3 0 0 0-2.298-2.594 33.94 33.94 0 0 0-2.515-2.18 57.346 57.346 0 0 1-2.298-1.887c-.694-.602-1.257-1.231-1.689-1.886-.432-.655-.648-1.323-.648-2.004 0-.943.302-1.828.904-2.652a15.481 15.481 0 0 1 2.199-2.396 42.579 42.579 0 0 0 2.594-2.535c.863-.917 1.598-2.128 2.2-3.635.602-1.506.902-3.229.902-5.167 0-2.305-.51-4.519-1.532-6.64-1.021-2.122-2.462-3.772-4.321-4.951h5.304l5.304-3.104h-17.17c-2.435 0-4.885.262-7.346.787-3.641.812-6.705 2.665-9.194 5.56-2.488 2.895-3.732 6.175-3.732 9.842 0 3.877 1.396 7.099 4.185 9.666 2.79 2.566 6.136 3.851 10.039 3.851.785 0 1.702-.066 2.75-.197-.053.21-.144.491-.275.845l-.313.845a5.319 5.319 0 0 0-.275 1.691c0 1.729.838 3.681 2.515 5.854-1.99.053-3.955.229-5.894.53-1.938.301-3.968.773-6.09 1.415-2.121.643-4.021 1.572-5.697 2.789-1.676 1.219-2.934 2.666-3.771 4.343-.97 1.938-1.454 3.706-1.454 5.304 0 1.755.394 3.346 1.18 4.773.785 1.428 1.793 2.594 3.024 3.497 1.231.904 2.652 1.663 4.263 2.279 1.611.614 3.208 1.055 4.793 1.317s3.15.392 4.695.392c7.02 0 12.521-1.716 16.502-5.147 3.668-3.195 5.501-6.89 5.501-11.08 0-1.493-.216-2.888-.648-4.185-.432-1.297-.998-2.41-1.694-3.34zM22.753 27.119c-1.335 0-2.605-.341-3.811-1.022s-2.227-1.565-3.064-2.652a19.118 19.118 0 0 1-2.2-3.674 20.07 20.07 0 0 1-1.395-4.086 17.92 17.92 0 0 1-.452-3.89c0-2.514.668-4.675 2.004-6.482 1.336-1.808 3.222-2.711 5.658-2.711 1.729 0 3.294.537 4.694 1.611 1.401 1.074 2.502 2.436 3.301 4.086a25.829 25.829 0 0 1 1.847 5.127c.433 1.769.648 3.438.648 5.01 0 2.62-.57 4.723-1.709 6.307-1.139 1.583-2.979 2.376-5.521 2.376zm10.864 29.506a7.74 7.74 0 0 1-2.927 2.887 14.874 14.874 0 0 1-3.948 1.533 19.343 19.343 0 0 1-4.421.491c-1.676 0-3.34-.196-4.989-.589a19.924 19.924 0 0 1-4.734-1.787 9.84 9.84 0 0 1-3.654-3.302c-.931-1.401-1.396-2.992-1.396-4.774 0-1.57.354-2.973 1.062-4.203.708-1.231 1.611-2.214 2.711-2.947 1.101-.733 2.384-1.336 3.851-1.807 1.467-.472 2.881-.8 4.243-.982a30.922 30.922 0 0 1 4.165-.274c.864 0 1.521.026 1.965.077.157.105.557.38 1.198.825l1.297.904c.222.157.628.459 1.218.903.59.446 1.009.78 1.257 1.002.248.223.609.557 1.081 1.002.471.446.818.831 1.041 1.159l.825 1.197c.327.473.556.925.688 1.356.131.434.256.904.372 1.414.118.512.177 1.043.177 1.593-.001 1.65-.361 3.091-1.082 4.322zM55.602 9.829V-.229h-5.031V9.829H40.513v5.029h10.058v10.059h5.031V14.858h10.057V9.829H55.602z" fill="#fff"/></svg>