<svg xmlns="http://www.w3.org/2000/svg" viewBox="0 0 24 21.5"><g fill="#706F6F"><path d="M19.8 6.1v-.3-3.5c0-.2 0-.3-.3-.3H18c-.2 0-.3.1-.3.3v3.6c0 .2-.1.3-.3.3h-3.9v2.1h4.2v3.8c0 .2.1.3.3.3h1.6c.2 0 .3-.1.3-.3V8.5v-.3H24V6.1h-4.2z"/><path d="M11.3 12.6c-.7-.5-1.3-1-1.8-1.7-.3-.5-.3-1.2.1-1.6l1.1-1.1c1.2-1.1 1.9-2.4 1.7-4-.1-1-.5-1.9-1.2-2.6-.2-.2-.5-.4-.8-.6h1.5c.3 0 .6-.1.9-.3.3-.3.7-.5 1.1-.8H7.3C5.4 0 3.9.7 2.6 2 1.2 3.5 1.1 5.5 2 7.2c.9 1.6 2.2 2.3 4 2.5h1.1c-.6 1.2-.4 2.2.5 3v.1h-1c-1.4 0-2.8.3-4 1-1.1.6-2 1.5-2.4 2.7-.3.8-.3 1.5.1 2.3.5 1 1.3 1.5 2.3 1.9 1 .4 2.1.6 3.2.7 1.9.1 3.6 0 5.3-1 1-.6 1.8-1.4 2.1-2.6.5-2-.1-3.9-1.9-5.2zM6.2 8.7c-1-.6-1.7-1.5-2.1-2.5-.1-.6-.2-1.2-.3-1.5 0-1.2.1-2.2.8-3 .7-.7 1.5-.9 2.5-.6 1.1.3 1.8 1.1 2.3 2 .6 1 .8 2.2.6 3.4-.1.8-.4 1.5-1 2-.9.7-1.8.7-2.8.2zm3.2 11.4c-.8.2-1.5.3-2.3.4-1.3 0-2.6-.3-3.6-1.2-.9-.9-1.4-2.3-.7-3.5.4-.7 1-1.3 1.8-1.6 1.4-.7 2.8-.8 4.2-.4.3.1.5.3.7.4.5.4 1 .7 1.5 1.1.5.4.7 1 .7 1.7 0 1.5-.8 2.6-2.3 3.1z"/></g></svg>