<svg xmlns="http://www.w3.org/2000/svg" viewBox="7 7 16 16"><g fill="#706F6F"><path d="M15.3 18.7c2 0 3.5-1.6 3.5-3.6s-1.6-3.6-3.5-3.6c-2 0-3.6 1.6-3.6 3.6s1.6 3.6 3.6 3.6z"/><path d="M19.7 16.1c-.3 1.1-.9 1.9-1.7 2.6-1.5 1.1-3.6 1.1-5.1.1-.8-.5-1.3-1.3-1.7-2.1-.5-1.3-.4-2.5.1-3.7H7v.4c0 2.2.1 4.4 0 6.6-.1 1.8 1.5 3 2.9 3h10.8c.7 0 1.4-.3 1.8-1 .3-.5.5-1.1.5-1.7v-7-.3h-3.7c.4 1 .6 2.1.4 3.1zM22.9 9c-.2-1.2-1.1-2-2.1-2h-11C8.5 7 7.2 8.1 7.1 9.3c-.1.9 0 1.7 0 2.7H12c.1 0 .3-.1.3-.1 1.8-1.6 4.2-1.6 6 0 .1.1.2.1.3.2h4.3v-.9c.1-.8.1-1.5 0-2.2zM21 10.5c0 .3-.2.5-.5.5h-2.1c-.3 0-.5-.2-.5-.5v-1-1c.1-.4.2-.5.6-.5h2.1c.2 0 .4.1.4.5v2z"/></g></svg>