<svg xmlns="http://www.w3.org/2000/svg" viewBox="0 0 24 24"><g fill="#706F6F"><path d="M12.5 17.5c3 0 5.3-2.4 5.3-5.4 0-3-2.4-5.4-5.3-5.4-3 0-5.4 2.4-5.4 5.4 0 3 2.4 5.4 5.4 5.4z"/><path d="M19 13.7c-.4 1.6-1.3 2.9-2.6 3.9-2.3 1.6-5.4 1.7-7.6.1-1.2-.8-2-1.9-2.5-3.2-.8-1.9-.6-3.7.2-5.5H0v.6c0 3.3.1 6.6 0 9.9-.1 2.7 2.3 4.5 4.4 4.5h16.2c1.1 0 2.1-.5 2.7-1.5.5-.8.7-1.6.7-2.5V9.5 9h-5.6c.7 1.5 1 3.1.6 4.7zM23.9 3c-.3-1.8-1.6-3-3.2-3H4.2C2.3 0 .3 1.6.1 3.4c-.2 1.3 0 2.6 0 4h7.4c.2 0 .4-.1.5-.2 2.7-2.4 6.3-2.4 9 0 .1.1.3.2.5.3H24V6.2c0-1.1 0-2.2-.1-3.2zM21 5.3c0 .4-.3.7-.7.7h-3.1c-.4 0-.7-.3-.7-.8V3.7 2.2c0-.5.2-.7.7-.7h3.1c.4 0 .7.2.7.7v3.1z"/></g></svg>