<svg width="24" height="24" viewBox="0 0 51 51" xmlns="http://www.w3.org/2000/svg"><path d="M6.834-.248h36.891c3.506 0 6.371 2.866 6.371 6.371v36.892c0 3.504-2.865 6.368-6.371 6.368H6.834c-3.506 0-6.373-2.864-6.373-6.368V6.123c0-3.505 2.867-6.371 6.373-6.371zm29.785 5.512a2.242 2.242 0 0 0-2.234 2.238v5.346a2.24 2.24 0 0 0 2.234 2.236h5.609a2.24 2.24 0 0 0 2.234-2.236V7.502a2.244 2.244 0 0 0-2.234-2.238h-5.609zm7.865 15.476h-4.367a14.52 14.52 0 0 1 .639 4.262c0 8.253-6.91 14.947-15.432 14.947-8.519 0-15.428-6.694-15.428-14.947 0-1.483.226-2.909.638-4.262H5.978v20.968c0 1.086.887 1.97 1.971 1.97h34.564a1.973 1.973 0 0 0 1.971-1.97V20.74zm-19.16-5.938c-5.503 0-9.967 4.323-9.967 9.661 0 5.332 4.464 9.658 9.967 9.658 5.506 0 9.971-4.326 9.971-9.658 0-5.338-4.465-9.661-9.971-9.661z" fill="#fff"/></svg>