<svg width="16" height="16" viewBox="0 0 190 190" xmlns="http://www.w3.org/2000/svg"><title>Untitled</title><path d="M47.1 37.8c32.1-.1 64.2-.1 96.3 0 5 0 9.9.8 14.9 1h.4l-62.5 62.3-62.7-62.6c4.4-.3 9-.7 13.6-.7zm130 94.2c-.4 2.2-1 4.4-1.7 6.5-3.6 11.5-9.2 15.9-21.2 16.4-9.7.5-19.5 1-29.2 1.2-9.7.2-19.3 0-29 0v.3c-17.6-.4-35.1-.7-52.7-1.1-4.6-.1-9.2-.5-13.7-1.1-5.8-.7-10.1-4.3-12.3-9.4-2.5-5.9-4.6-12.1-5.5-18.4-3.1-21-2.8-42 .5-62.9.8-5.4 3.1-10.6 5.2-15.7.3-.7.6-1.3 1-1.9L96 123.2l75.9-75.7c0 .1.1.2.1.3 2.6 5.8 4.9 12 5.7 18.3 3.2 22 3.3 44-.6 65.9z" fill="#fff"/></svg>