<svg width="16" height="16" viewBox="0 0 70 70" xmlns="http://www.w3.org/2000/svg"><path d="M69.284 14.08a28.372 28.372 0 0 1-8.164 2.238 14.24 14.24 0 0 0 6.25-7.864 28.413 28.413 0 0 1-9.023 3.451 14.2 14.2 0 0 0-10.379-4.49c-7.85 0-14.215 6.366-14.215 14.215 0 1.116.126 2.198.368 3.238-11.812-.59-22.286-6.249-29.299-14.853a14.176 14.176 0 0 0-1.924 7.149c0 4.93 2.508 9.284 6.32 11.831a14.168 14.168 0 0 1-6.436-1.778v.179c0 6.886 4.9 12.632 11.4 13.939a14.115 14.115 0 0 1-6.419.242c1.809 5.648 7.058 9.756 13.277 9.874a28.51 28.51 0 0 1-17.654 6.085 29.4 29.4 0 0 1-3.389-.199 40.267 40.267 0 0 0 21.793 6.384c26.144 0 40.441-21.656 40.441-40.442 0-.615-.017-1.228-.039-1.842a28.946 28.946 0 0 0 7.092-7.357z" fill="#fff"/></svg>