<svg xmlns="http://www.w3.org/2000/svg" viewBox="0 0 24 19.5"><path fill="#706F6F" d="M23.3.4l-.6.3c-.8.4-1.6.7-2.5.9 0 0-.1 0-.1-.1-.6-.6-1.2-1-2-1.2-.3-.2-.6-.3-1-.3h-.9c-.2 0-.4.1-.7.1-1.9.5-3.2 1.7-3.7 3.6-.2.7-.2 1.5-.1 2.2V6c-2-.1-3.8-.6-5.6-1.5C4.4 3.7 2.9 2.4 1.7.9 1 2 .8 3.2 1.1 4.5c.3 1.3 1 2.2 2 3-.4 0-.7-.1-1.1-.2-.4-.1-.7-.3-1-.4-.1 1.7 1.1 4.2 3.9 4.9-.7.2-1.4.2-2.2.1.3 1 .9 1.8 1.7 2.4.8.6 1.8.9 2.8 1-2.1 1.6-4.5 2.3-7.2 2 0 0 .1 0 .1.1 1.4.9 2.8 1.5 4.4 1.8.8.2 1.6.3 2.4.3H8.6c1.2-.1 2.3-.3 3.5-.7 1.9-.6 3.5-1.6 4.9-2.9 2.1-2 3.5-4.4 4.2-7.3.2-.9.3-1.8.4-2.7V5c0-.1 0-.1.1-.1.9-.7 1.7-1.5 2.3-2.4l.1-.1c-.9.4-1.8.7-2.8.8.9-.8 1.6-1.7 2-2.8z"/></svg>