<svg xmlns="http://www.w3.org/2000/svg" viewBox="7 7 16 16"><path fill="#706F6F" d="M22.5 8.8c-.1.1-.3.1-.4.2-.5.3-1.1.5-1.7.6 0 0-.1 0-.1-.1-.4-.4-.8-.7-1.3-.8-.2-.1-.4-.2-.7-.2h-.6c-.1 0-.3.1-.5.1-1.3.3-2.1 1.1-2.5 2.4-.1.5-.1 1-.1 1.5v.1c-1.3-.1-2.5-.4-3.7-1C10 11 9 10.1 8.2 9.1c-.5.7-.6 1.5-.4 2.4.2.9.7 1.5 1.3 2-.3 0-.5-.1-.7-.1-.3-.1-.5-.2-.7-.3-.1 1.1.7 2.8 2.6 3.3-.5.1-.9.1-1.5.1.2.7.6 1.2 1.1 1.6.5.4 1.2.6 1.9.7-1.4 1.1-3 1.5-4.8 1.3 0 0 .1 0 .1.1.9.6 1.9 1 2.9 1.2.5.1 1.1.2 1.6.2H12.7c.8-.1 1.5-.2 2.3-.5 1.3-.4 2.3-1.1 3.3-1.9 1.4-1.3 2.3-2.9 2.8-4.8l.3-1.8V12c0-.1 0-.1.1-.1.6-.5 1.1-1 1.5-1.6l.1-.1c-.6.3-1.2.5-1.9.5.6-.6 1.1-1.2 1.3-1.9z"/></svg>