<svg width="24" height="24" viewBox="0 0 72 72" xmlns="http://www.w3.org/2000/svg"><path d="M56.761 52.707h-3.927l.019-2.28c0-1.014.832-1.843 1.85-1.843h.25c1.02 0 1.854.829 1.854 1.843l-.046 2.28zM42.035 47.82c-.996 0-1.812.669-1.812 1.488v11.091c0 .818.815 1.485 1.812 1.485.999 0 1.815-.667 1.815-1.485v-11.09c.001-.82-.816-1.489-1.815-1.489zm23.914-6.203v21.098c0 5.061-4.389 9.202-9.752 9.202H16.09c-5.367 0-9.754-4.142-9.754-9.202V41.617c0-5.062 4.387-9.203 9.754-9.203h40.107c5.364 0 9.752 4.142 9.752 9.203zM18.765 65.006l-.003-22.225 4.973.001V39.49l-13.255-.02v3.237l4.137.012v22.287h4.148zm14.903-18.914h-4.145v11.867c0 1.717.104 2.575-.007 2.878-.337.921-1.852 1.898-2.442.1-.101-.314-.012-1.265-.014-2.896l-.017-11.949h-4.122l.013 11.762c.003 1.803-.04 3.146.014 3.759.102 1.079.065 2.336 1.066 3.054 1.865 1.344 5.439-.2 6.333-2.12l-.007 2.45 3.33.003V46.092h-.002zm13.261 13.591l-.009-9.878c-.004-3.766-2.819-6.02-6.643-2.974l.017-7.344-4.141.007-.021 25.347 3.405-.05.31-1.578c4.352 3.992 7.089 1.257 7.082-3.53zm12.972-1.31l-3.108.016-.008.421v1.734c0 .929-.767 1.685-1.698 1.685h-.608c-.934 0-1.7-.756-1.7-1.685v-4.561h7.117v-2.679c0-1.957-.051-3.914-.212-5.033-.509-3.54-5.479-4.103-7.988-2.29a4.679 4.679 0 0 0-1.74 2.341c-.353 1.019-.528 2.41-.528 4.177v5.89c0 9.789 11.892 8.405 10.473-.016zM43.958 26.397c.214.521.546.941.997 1.26.444.312 1.015.471 1.696.471.598 0 1.127-.162 1.588-.495.459-.331.847-.826 1.163-1.487l-.079 1.627h4.621V8.123h-3.638v15.292a1.516 1.516 0 0 1-3.03 0V8.123H43.48v13.253c0 1.688.031 2.814.081 3.384.053.567.184 1.111.397 1.637zM29.956 15.3c0-1.886.157-3.359.471-4.421.314-1.058.879-1.908 1.698-2.55.816-.645 1.861-.967 3.133-.967 1.068 0 1.984.209 2.749.621.769.414 1.361.95 1.773 1.612.419.665.703 1.348.855 2.046.155.708.23 1.776.23 3.218v4.969c0 1.822-.072 3.164-.215 4.015a6.38 6.38 0 0 1-.91 2.388c-.461.734-1.057 1.283-1.778 1.634-.729.354-1.564.527-2.507.527-1.054 0-1.94-.146-2.671-.449-.734-.302-1.302-.758-1.705-1.362-.407-.605-.694-1.343-.868-2.204-.174-.859-.257-2.151-.257-3.874l.002-5.203zm3.619 7.805c0 1.113.829 2.021 1.837 2.021 1.01 0 1.834-.908 1.834-2.021v-10.46c0-1.111-.824-2.02-1.834-2.02-1.008 0-1.837.909-1.837 2.02v10.46zm-12.788 5.283h4.359l.005-15.071L30.302.407h-4.768l-2.739 9.589L20.019.38H15.3l5.479 12.943.008 15.065z" fill="#fff"/></svg>